<svg xmlns="http://www.w3.org/2000/svg" width="175.515" height="151.617" viewBox="0 0 175.515 151.617">
  <g id="Group_15902" data-name="Group 15902" transform="translate(-117.746 -279.73)">
    <g id="Group_15877" data-name="Group 15877" transform="translate(304.846 412.136) rotate(169)">
      <path id="Path_47399" data-name="Path 47399" d="M128.052,18.3C98.693-5.751,57.42-6.281,26.993,17.816,10.909,30.555-1.683,49.908.184,79.139c.66,10.339,2.759,18.8,5.892,25.717,12.69,28.026,66.321,26.336,69.3,26.3q2.894-.036,5.786.073a118.374,118.374,0,0,1,20.066,2.482c9.414,1.991,21.42,2.909,32.21-1.185a37.177,37.177,0,0,0,5.335-2.518c5.945-3.41,12.592-6.679,16.557-14.652,2.979-5.984,5.191-13.47,6.329-22.776C165.8,58.688,147.609,34.316,128.052,18.3Z" transform="translate(11.801 0) rotate(5)" fill="#f1f5f8"/>
    </g>
    <text id="NANOMICS" transform="translate(146.059 346.179)" fill="#1b1b2d" font-size="18" font-family="SegoeUI-Bold, Segoe UI" font-weight="700"><tspan x="9.945" y="19">NANOMICS</tspan></text>
  </g>
</svg>
