<svg xmlns="http://www.w3.org/2000/svg" xmlns:xlink="http://www.w3.org/1999/xlink" width="83.07" height="82.588" viewBox="0 0 83.07 82.588">
  <defs>
    <clipPath id="clip-path">
      <rect id="Rectangle_2605" data-name="Rectangle 2605" width="32.202" height="32.206" fill="none" stroke="#707070" stroke-linecap="round" stroke-linejoin="round" stroke-width="1.3"/>
    </clipPath>
  </defs>
  <g id="Group_14815" data-name="Group 14815" transform="translate(-648 -1806.865)">
    <g id="Group_14812" data-name="Group 14812">
      <path id="Path_26624" data-name="Path 26624" d="M47.343,8.047C36.313-2.347,20.966-2.772,9.77,7.356,3.852,12.709-.736,20.9.1,33.371A35.568,35.568,0,0,0,2.413,44.364C7.265,56.373,27.2,55.911,28.3,55.909q1.076,0,2.151.059a39.075,39.075,0,0,1,7.472,1.155c3.509.894,7.977,1.343,11.969-.35a12.717,12.717,0,0,0,1.971-1.048c2.194-1.425,4.649-2.787,6.085-6.167a32.682,32.682,0,0,0,2.243-9.68C61.571,25.449,54.691,14.971,47.343,8.047Z" transform="translate(648 1843.198) rotate(-37)" fill="#3fc0c8"/>
      <g id="Group_14624" data-name="Group 14624" transform="translate(674.579 1833.056)">
        <g id="Group_14623" data-name="Group 14623" transform="translate(0 0)" clip-path="url(#clip-path)">
          <path id="Path_47322" data-name="Path 47322" d="M29.448,16.319a4.047,4.047,0,0,1,2.6-3.776A16.05,16.05,0,0,0,30.1,7.866a4.1,4.1,0,0,1-1.649.352A4.038,4.038,0,0,1,24.761,2.53,16.009,16.009,0,0,0,20.092.589a4.044,4.044,0,0,1-5.224,2.328A4.044,4.044,0,0,1,12.54.589,16.05,16.05,0,0,0,7.863,2.53,4.038,4.038,0,0,1,4.169,8.215,3.975,3.975,0,0,1,2.52,7.863,16.411,16.411,0,0,0,.589,12.548a4.047,4.047,0,0,1,2.329,5.226A4.047,4.047,0,0,1,.6,20.1a16.05,16.05,0,0,0,1.941,4.677A4.04,4.04,0,0,1,7.871,30.11a16.135,16.135,0,0,0,4.677,1.939,4.036,4.036,0,0,1,7.536,0,16.05,16.05,0,0,0,4.677-1.941,4.044,4.044,0,0,1,5.332-5.332A16.141,16.141,0,0,0,32.034,20.1,4.067,4.067,0,0,1,29.448,16.319Z" transform="translate(-0.215 -0.215)" fill="none" stroke="#fff" stroke-linecap="round" stroke-linejoin="round" stroke-miterlimit="10" stroke-width="1.3"/>
          <path id="Path_47323" data-name="Path 47323" d="M21.459,14.652c-3.761,0-6.809.953-6.809,2.128v1.7c0,1.175,3.049,2.128,6.809,2.128s6.809-.953,6.809-2.128v-1.7c0-1.175-3.049-2.128-6.809-2.128m0,7.235c-3.761,0-6.809-.953-6.809-2.128v2.554c0,1.175,3.049,2.128,6.809,2.128s6.809-.953,6.809-2.128V19.759c0,1.175-3.049,2.128-6.809,2.128m0,3.831c-3.761,0-6.809-.953-6.809-2.128v2.554c0,1.175,3.049,2.128,6.809,2.128s6.809-.953,6.809-2.128V23.589c0,1.175-3.049,2.128-6.809,2.128Z" transform="translate(-5.358 -5.359)" fill="#fff"/>
        </g>
      </g>
    </g>
  </g>
</svg>
