<svg xmlns="http://www.w3.org/2000/svg" width="81.242" height="80.344" viewBox="0 0 81.242 80.344">
  <g id="Group_14814" data-name="Group 14814" transform="translate(-648 -1957.156)">
    <g id="Group_14567" data-name="Group 14567" transform="translate(-20.54 -57.525)">
      <path id="Path_26619" data-name="Path 26619" d="M47.343,8.047C36.313-2.347,20.966-2.772,9.77,7.356,3.852,12.709-.736,20.9.1,33.371A35.568,35.568,0,0,0,2.413,44.364C7.265,56.373,27.2,55.911,28.3,55.909q1.076,0,2.151.059a39.075,39.075,0,0,1,7.472,1.155c3.509.894,7.977,1.343,11.969-.35a12.717,12.717,0,0,0,1.971-1.048c2.194-1.425,4.649-2.787,6.085-6.167a32.682,32.682,0,0,0,2.243-9.68C61.571,25.449,54.691,14.971,47.343,8.047Z" transform="translate(668.54 2044.866) rotate(-30)" fill="#3fc0c8"/>
      <g id="Group_14566" data-name="Group 14566" transform="translate(0 75.827)">
        <g id="Ellipse_46" data-name="Ellipse 46" transform="matrix(0.978, -0.208, 0.208, 0.978, 703.214, 1975.422)" fill="none" stroke="#fff" stroke-width="1.3">
          <circle cx="5.671" cy="5.671" r="5.671" stroke="none"/>
          <circle cx="5.671" cy="5.671" r="5.021" fill="none"/>
        </g>
        <circle id="Ellipse_47" data-name="Ellipse 47" cx="3.171" cy="3.171" r="3.171" transform="matrix(0.978, -0.208, 0.208, 0.978, 695.692, 1966.861)" fill="#fff"/>
        <circle id="Ellipse_51" data-name="Ellipse 51" cx="3.171" cy="3.171" r="3.171" transform="matrix(0.978, -0.208, 0.208, 0.978, 720.492, 1977.348)" fill="#fff"/>
        <circle id="Ellipse_50" data-name="Ellipse 50" cx="4.525" cy="4.525" r="4.525" transform="matrix(0.966, -0.259, 0.259, 0.966, 710.612, 1964.062)" fill="#fff"/>
        <circle id="Ellipse_49" data-name="Ellipse 49" cx="3.171" cy="3.171" r="3.171" transform="matrix(0.978, -0.208, 0.208, 0.978, 703.214, 1991.781)" fill="#fff"/>
        <circle id="Ellipse_48" data-name="Ellipse 48" cx="4.781" cy="4.781" r="4.781" transform="matrix(0.978, -0.208, 0.208, 0.978, 690.046, 1981.109)" fill="#fff"/>
        <circle id="Ellipse_52" data-name="Ellipse 52" cx="4.781" cy="4.781" r="4.781" transform="matrix(0.978, -0.208, 0.208, 0.978, 716.026, 1986.78)" fill="#fff"/>
        <line id="Line_32" data-name="Line 32" x2="7" y2="7" transform="translate(699.5 1969.5)" fill="none" stroke="#fff" stroke-width="1.3"/>
        <path id="Path_26620" data-name="Path 26620" d="M0,0H9.829" transform="translate(714.697 1980.025)" fill="none" stroke="#fff" stroke-width="1.3"/>
        <path id="Path_26621" data-name="Path 26621" d="M-.13-3.494,7.131,3.62" transform="translate(714.697 1986.516)" fill="none" stroke="#fff" stroke-width="1.3"/>
        <path id="Path_26622" data-name="Path 26622" d="M.508-7.353-1.157,1.833" transform="translate(708.197 1992.514)" fill="none" stroke="#fff" stroke-width="1.3"/>
        <line id="Line_33" data-name="Line 33" y1="3" x2="10" transform="translate(695.5 1981.5)" fill="none" stroke="#fff" stroke-width="1.3"/>
        <line id="Line_34" data-name="Line 34" y1="7.289" x2="4.803" transform="translate(711.697 1967.5)" fill="none" stroke="#fff" stroke-width="1.3"/>
      </g>
    </g>
  </g>
</svg>
