<?xml version="1.0" encoding="utf-8"?>
<!-- Generator: Adobe Illustrator 19.0.0, SVG Export Plug-In . SVG Version: 6.00 Build 0)  -->
<svg version="1.1" id="Layer_1" xmlns="http://www.w3.org/2000/svg" xmlns:xlink="http://www.w3.org/1999/xlink" x="0px" y="0px"
	 viewBox="-68.3 93.3 64.4 57.8" style="enable-background:new -68.3 93.3 64.4 57.8;" xml:space="preserve">
<style type="text/css">
	.st0{fill:#3FC0C8;}
	.st1{fill:none;}
	.st2{fill:none;stroke:#FFFFFF;stroke-width:1.3;}
	.st3{fill:#FFFFFF;}
</style>
<g id="Group_14814" transform="translate(-648 -1957.156)">
	<g id="Group_14567" transform="translate(-20.54 -57.525)">
		<path id="Path_26619" class="st0" d="M634.6,2108.8c-14.7-3.5-28.3,3.8-32.9,18.2c-2.4,7.6-2.3,17,4.6,27.4c2,3.2,4.6,6,7.5,8.4
			c10.2,8,27.2-2.4,28.2-2.9c0.6-0.4,1.3-0.7,1.9-1c2.3-1.1,4.6-2.1,7-2.7c3.5-1,7.6-2.8,10.2-6.3c0.4-0.6,0.8-1.2,1.2-1.9
			c1.2-2.3,2.6-4.7,2.2-8.4c-0.5-3.3-1.5-6.5-2.9-9.5C655.6,2116.8,644.4,2111.1,634.6,2108.8z"/>
		<g id="Group_14566" transform="translate(0 75.827)">
			<g id="Ellipse_46" transform="matrix(0.978, -0.208, 0.208, 0.978, 703.214, 1975.422)">
				<circle class="st1" cx="-88.4" cy="68.1" r="5.7"/>
				<circle class="st2" cx="-88.4" cy="68.1" r="5"/>
			</g>
			<circle id="Ellipse_47" class="st3" cx="620.5" cy="2050" r="3.2"/>
			<circle id="Ellipse_51" class="st3" cx="645.3" cy="2060.4" r="3.2"/>
			<circle id="Ellipse_50" class="st3" cx="637.2" cy="2047.9" r="4.5"/>
			<circle id="Ellipse_49" class="st3" cx="628" cy="2074.9" r="3.2"/>
			<circle id="Ellipse_48" class="st3" cx="616.7" cy="2065.4" r="4.8"/>
			<circle id="Ellipse_52" class="st3" cx="642.7" cy="2071.1" r="4.8"/>
			<line id="Line_32" class="st2" x1="620.5" y1="2050.2" x2="627.5" y2="2057.2"/>
			<path id="Path_26620" class="st2" d="M635.7,2060.7h9.8"/>
			<path id="Path_26621" class="st2" d="M635.6,2063.7l7.3,7.1"/>
			<path id="Path_26622" class="st2" d="M629.7,2065.8l-1.7,9.2"/>
			<line id="Line_33" class="st2" x1="616.5" y1="2065.2" x2="626.5" y2="2062.2"/>
			<line id="Line_34" class="st2" x1="632.7" y1="2055.4" x2="637.5" y2="2048.2"/>
		</g>
	</g>
</g>
</svg>
