<svg xmlns="http://www.w3.org/2000/svg" xmlns:xlink="http://www.w3.org/1999/xlink" width="65.189" height="62.96" viewBox="0 0 65.189 62.96">
  <defs>
    <clipPath id="clip-path">
      <rect id="Rectangle_2606" data-name="Rectangle 2606" width="26.091" height="35.765" fill="none"/>
    </clipPath>
  </defs>
  <g id="Group_14811" data-name="Group 14811" transform="translate(-656 -1739.163)">
    <path id="Path_26625" data-name="Path 26625" d="M47.343,8.047C36.313-2.347,20.966-2.772,9.77,7.356,3.852,12.709-.736,20.9.1,33.371A35.568,35.568,0,0,0,2.413,44.364C7.265,56.373,27.2,55.911,28.3,55.909q1.076,0,2.151.059a39.075,39.075,0,0,1,7.472,1.155c3.509.894,7.977,1.343,11.969-.35a12.717,12.717,0,0,0,1.971-1.048c2.194-1.425,4.649-2.787,6.085-6.167a32.682,32.682,0,0,0,2.243-9.68C61.571,25.449,54.691,14.971,47.343,8.047Z" transform="translate(661.048 1739.163) rotate(5)" fill="#3fc0c8"/>
    <g id="Group_14627" data-name="Group 14627" transform="translate(674.549 1752.76)">
      <g id="Group_14626" data-name="Group 14626" clip-path="url(#clip-path)">
        <path id="Path_47324" data-name="Path 47324" d="M25.748,4.216,15.32,7.38a5.817,5.817,0,0,1-2.87,0L2.022,4.216c-.789-.24-.789-.632,0-.871L12.45.18a5.817,5.817,0,0,1,2.87,0L25.748,3.345c.789.24.789.632,0,.871M12.667,8.338,6.275,6.347v5.68s1.537,1.768,7.61,1.768,7.61-1.768,7.61-1.768V6.347L15.1,8.338a4.1,4.1,0,0,1-2.437,0m-9.543,1.2V5.319l-.845-.3V9.541h0l-.64,1.182v1.39H3.763v-1.39l-.64-1.182Z" transform="translate(-0.958 0)" fill="#fff"/>
        <path id="Path_47325" data-name="Path 47325" d="M21.261,38.14l-.03.035a3.447,3.447,0,0,1-.877.66,12.048,12.048,0,0,1,2.036,2.012q-1.463.438-2.96.737-.216-1.071-.5-2.125c-.315.106-.669.208-1.065.3q.271,1,.478,2.019A32.659,32.659,0,0,1,13.6,42.2V40.252c-.218,0-.441.008-.671.008-.148,0-.292,0-.435,0v1.95c-1.094-.018-2.19-.091-3.271-.218a2.14,2.14,0,0,0-1.144-1.655c.044-.174.091-.346.138-.52-.4-.087-.752-.183-1.072-.283q-.076.284-.148.568a2.137,2.137,0,0,0-1.8,1.158c-.5-.124-1-.261-1.5-.409A12.043,12.043,0,0,1,5.64,38.912a4.105,4.105,0,0,1-.944-.661,13.045,13.045,0,1,0,16.565-.111m-1.72,9.094a1.031,1.031,0,1,1-1.031,1.031,1.032,1.032,0,0,1,1.031-1.031M13.6,43.311a33.8,33.8,0,0,0,4.944-.443,32.586,32.586,0,0,1,.382,3.351,2.143,2.143,0,0,0-1.445,1.493H13.6Zm0,5.507H17.48a2.143,2.143,0,0,0,1.445,1.492,32.516,32.516,0,0,1-.383,3.352,33.67,33.67,0,0,0-3.418-.384A2.141,2.141,0,0,0,13.6,51.706ZM9.058,43.082a34.088,34.088,0,0,0,3.434.23v4.4H7.107a33.11,33.11,0,0,1,.229-3.36,2.14,2.14,0,0,0,1.722-1.271m3.434,5.737v2.887a2.141,2.141,0,0,0-1.525,1.572,33.676,33.676,0,0,0-3.418.384,32.7,32.7,0,0,1-.44-4.843ZM7.1,41.2A1.031,1.031,0,1,1,6.068,42.23,1.032,1.032,0,0,1,7.1,41.2m-4.079.6c.643.2,1.294.382,1.948.544a2.139,2.139,0,0,0,1.275,1.849A34.093,34.093,0,0,0,6,47.712H1.12a11.858,11.858,0,0,1,1.9-5.918m-1.9,7.024H6a33.794,33.794,0,0,0,.458,5.041,33.334,33.334,0,0,0-3.442.876,11.858,11.858,0,0,1-1.9-5.917M3.7,55.684q1.461-.437,2.96-.737a33.373,33.373,0,0,0,1.072,4.006A12.016,12.016,0,0,1,3.7,55.684m8.791,4.506a11.871,11.871,0,0,1-3.382-.655A32.248,32.248,0,0,1,7.75,54.75,32.6,32.6,0,0,1,11,54.384a2.143,2.143,0,0,0,1.492,1.445Zm-.478-6.423A1.031,1.031,0,1,1,13.045,54.8a1.032,1.032,0,0,1-1.031-1.031m4.966,5.768a11.862,11.862,0,0,1-3.382.655V55.829a2.143,2.143,0,0,0,1.492-1.445,32.6,32.6,0,0,1,3.251.366,32.242,32.242,0,0,1-1.36,4.785m1.379-.583a33.343,33.343,0,0,0,1.07-4q1.5.3,2.96.737a12.008,12.008,0,0,1-4.03,3.268m4.712-4.216a33.418,33.418,0,0,0-3.442-.876,33.745,33.745,0,0,0,.4-3.517A2.141,2.141,0,0,0,21.6,48.818h3.368a11.858,11.858,0,0,1-1.9,5.917m1.9-7.023H21.6a2.141,2.141,0,0,0-1.573-1.526,33.7,33.7,0,0,0-.4-3.514,33.363,33.363,0,0,0,3.441-.877,11.862,11.862,0,0,1,1.9,5.918" transform="translate(0 -25.546)" fill="#fff"/>
      </g>
    </g>
  </g>
</svg>
