<?xml version="1.0" encoding="utf-8"?>
<!-- Generator: Adobe Illustrator 19.0.0, SVG Export Plug-In . SVG Version: 6.00 Build 0)  -->
<svg version="1.1" id="Layer_1" xmlns="http://www.w3.org/2000/svg" xmlns:xlink="http://www.w3.org/1999/xlink" x="0px" y="0px"
	 viewBox="-84.8 91.4 60 59.2" style="enable-background:new -84.8 91.4 60 59.2;" xml:space="preserve">
<style type="text/css">
	.st0{fill:#3FC0C8;}
	.st1{clip-path:url(#SVGID_2_);}
	.st2{fill:#FFFFFF;}
</style>
<g id="Group_14811" transform="translate(-656 -1739.163)">
	<path id="Path_26625" class="st0" d="M620.5,1840.3c-10.1-11.3-25.3-13.1-37.4-4c-6.4,4.8-11.6,12.6-11.9,25.1
		c-0.1,3.8,0.3,7.5,1.3,11.2c3.8,12.4,23.7,13.7,24.8,13.8c0.7,0.1,1.4,0.1,2.1,0.2c2.5,0.4,5,1,7.3,1.8c3.4,1.2,7.8,2,12,0.7
		c0.7-0.2,1.4-0.5,2.1-0.9c2.3-1.2,4.9-2.4,6.6-5.6c1.5-3,2.5-6.2,3.1-9.4C633.2,1858.9,627.2,1847.9,620.5,1840.3z"/>
	<g id="Group_14627" transform="translate(674.549 1752.76)">
		<g>
			<defs>
				<rect id="SVGID_1_" x="-87" y="89" width="26.1" height="35.8"/>
			</defs>
			<clipPath id="SVGID_2_">
				<use xlink:href="#SVGID_1_"  style="overflow:visible;"/>
			</clipPath>
			<g id="Group_14626" class="st1">
				<path id="Path_47324" class="st2" d="M-62.2,93.3l-10.4,3.2c-0.9,0.2-1.9,0.2-2.9,0l-10.4-3.2c-0.8-0.2-0.8-0.6,0-0.9l10.4-3.2
					c0.9-0.2,1.9-0.2,2.9,0l10.4,3.2C-61.4,92.6-61.4,93-62.2,93.3 M-75.3,97.4l-6.4-2v5.7c0,0,1.5,1.8,7.6,1.8s7.6-1.8,7.6-1.8
					v-5.7l-6.4,2C-73.7,97.6-74.5,97.6-75.3,97.4 M-84.8,98.6v-4.2l-0.8-0.3v4.5l0,0l-0.6,1.2v1.4h2.1v-1.4L-84.8,98.6L-84.8,98.6z"
					/>
				<path id="Path_47325" class="st2" d="M-65.7,101.6L-65.7,101.6c-0.3,0.3-0.6,0.5-0.9,0.7c0.8,0.6,1.4,1.3,2,2
					c-1,0.3-2,0.5-3,0.7c-0.1-0.7-0.3-1.4-0.5-2.1c-0.3,0.1-0.7,0.2-1.1,0.3c0.2,0.7,0.3,1.3,0.5,2c-1.6,0.3-3.2,0.4-4.7,0.4v-1.9
					c-0.2,0-0.4,0-0.7,0c-0.1,0-0.3,0-0.4,0v2c-1.1,0-2.2-0.1-3.3-0.2c-0.1-0.7-0.5-1.3-1.1-1.7c0-0.2,0.1-0.3,0.1-0.5
					c-0.4-0.1-0.8-0.2-1.1-0.3c-0.1,0.2-0.1,0.4-0.1,0.6c-0.8,0-1.5,0.5-1.8,1.2c-0.5-0.1-1-0.3-1.5-0.4c0.6-0.7,1.2-1.4,1.9-1.9
					c-0.3-0.2-0.7-0.4-0.9-0.7c-5.5,4.6-6.3,12.8-1.7,18.4s12.8,6.3,18.4,1.7s6.3-12.8,1.7-18.4C-64.5,102.8-65.1,102.2-65.7,101.6
					 M-67.5,110.7c0.6,0,1,0.5,1,1s-0.5,1-1,1s-1-0.5-1-1l0,0C-68.5,111.2-68,110.7-67.5,110.7 M-73.4,106.8c1.7,0,3.3-0.2,4.9-0.4
					c0.2,1.1,0.3,2.2,0.4,3.4c-0.7,0.2-1.3,0.8-1.4,1.5h-3.9V106.8z M-73.4,112.3h3.9c0.2,0.7,0.7,1.3,1.4,1.5
					c-0.1,1.1-0.2,2.2-0.4,3.4c-1.1-0.2-2.3-0.3-3.4-0.4c-0.2-0.8-0.8-1.4-1.5-1.6V112.3z M-77.9,106.6c1.1,0.1,2.3,0.2,3.4,0.2v4.4
					h-5.4c0-1.1,0.1-2.2,0.2-3.4C-78.9,107.8-78.2,107.3-77.9,106.6 M-74.5,112.3v2.9c-0.8,0.2-1.3,0.8-1.5,1.6
					c-1.1,0.1-2.3,0.2-3.4,0.4c-0.3-1.6-0.4-3.2-0.4-4.8H-74.5z M-79.9,104.7c0.6,0,1,0.5,1,1c0,0.6-0.5,1-1,1c-0.6,0-1-0.5-1-1l0,0
					C-80.9,105.2-80.5,104.7-79.9,104.7 M-84,105.3c0.6,0.2,1.3,0.4,1.9,0.5c0,0.8,0.5,1.5,1.3,1.8c-0.1,1.2-0.2,2.3-0.2,3.5h-4.9
					C-85.8,109.1-85.1,107.1-84,105.3 M-85.9,112.3h4.9c0,1.7,0.2,3.4,0.5,5c-1.2,0.2-2.3,0.5-3.4,0.9
					C-85.1,116.5-85.8,114.4-85.9,112.3 M-83.3,119.2c1-0.3,2-0.5,3-0.7c0.3,1.4,0.6,2.7,1.1,4C-80.8,121.7-82.2,120.5-83.3,119.2
					 M-74.5,123.7c-1.2-0.1-2.3-0.3-3.4-0.7c-0.6-1.6-1-3.2-1.4-4.8c1.1-0.2,2.2-0.3,3.3-0.4c0.2,0.7,0.8,1.3,1.5,1.4L-74.5,123.7z
					 M-75,117.3c0-0.6,0.5-1,1-1s1,0.5,1,1c0,0.6-0.5,1-1,1C-74.5,118.3-75,117.8-75,117.3 M-70,123c-1.1,0.4-2.2,0.6-3.4,0.7v-4.4
					c0.7-0.2,1.3-0.7,1.5-1.4c1.1,0.1,2.2,0.2,3.3,0.4C-69,119.9-69.4,121.5-70,123 M-68.6,122.4c0.4-1.3,0.8-2.6,1.1-4
					c1,0.2,2,0.4,3,0.7C-65.7,120.6-67.1,121.7-68.6,122.4 M-63.9,118.2c-1.1-0.4-2.3-0.6-3.4-0.9c0.2-1.2,0.3-2.3,0.4-3.5
					c0.8-0.2,1.4-0.8,1.6-1.5h3.4C-62.1,114.4-62.8,116.5-63.9,118.2 M-62,111.2h-3.4c-0.2-0.8-0.8-1.3-1.6-1.5
					c-0.1-1.2-0.2-2.4-0.4-3.5c1.2-0.2,2.3-0.5,3.4-0.9C-62.8,107.1-62.1,109.1-62,111.2"/>
			</g>
		</g>
	</g>
</g>
</svg>
