<?xml version="1.0" encoding="utf-8"?>
<!-- Generator: Adobe Illustrator 19.0.0, SVG Export Plug-In . SVG Version: 6.00 Build 0)  -->
<svg version="1.1" id="Layer_1" xmlns="http://www.w3.org/2000/svg" xmlns:xlink="http://www.w3.org/1999/xlink" x="0px" y="0px"
	 viewBox="-66.3 93.5 64.7 58.2" style="enable-background:new -66.3 93.5 64.7 58.2;" xml:space="preserve">
<style type="text/css">
	.st0{fill:#3FC0C8;}
	.st1{clip-path:url(#SVGID_2_);}
	.st2{fill:none;stroke:#FFFFFF;stroke-width:1.3;stroke-linecap:round;stroke-linejoin:round;stroke-miterlimit:10;}
	.st3{fill:#FFFFFF;}
</style>
<g id="Group_14815" transform="translate(-648 -1806.865)">
	<g id="Group_14812">
		<path id="Path_26624" class="st0" d="M612.7,1900.5c-15.1-1.7-27.6,7.2-30.4,22.1c-1.5,7.8-0.2,17.1,7.9,26.6
			c2.4,2.9,5.3,5.4,8.5,7.4c11.1,6.7,26.7-5.7,27.6-6.4c0.6-0.4,1.2-0.8,1.8-1.2c2.1-1.4,4.3-2.6,6.7-3.6c3.3-1.4,7.2-3.7,9.3-7.5
			c0.4-0.6,0.7-1.3,0.9-2c0.9-2.5,2-5,1.1-8.6c-0.9-3.2-2.2-6.3-4-9.1C634.5,1905.9,622.7,1901.7,612.7,1900.5z"/>
		<g id="Group_14624" transform="translate(674.579 1833.056)">
			<g>
				<defs>
					<rect id="SVGID_1_" x="-78" y="79.4" width="32.2" height="32.2"/>
				</defs>
				<clipPath id="SVGID_2_">
					<use xlink:href="#SVGID_1_"  style="overflow:visible;"/>
				</clipPath>
				<g id="Group_14623" transform="translate(0 0)" class="st1">
					<path id="Path_47322" class="st2" d="M-48.8,95.5c0-1.7,1-3.2,2.6-3.8c-0.4-1.7-1.1-3.2-1.9-4.7c-0.5,0.2-1.1,0.4-1.6,0.4
						c-2.2,0-4-1.8-4-4c0-0.6,0.1-1.1,0.4-1.7c-1.4-0.9-3-1.5-4.7-1.9c-0.8,2.1-3.1,3.1-5.2,2.3c0,0,0,0,0,0
						c-1.1-0.4-1.9-1.3-2.3-2.3c-1.7,0.4-3.2,1.1-4.7,1.9c0.9,2,0,4.4-2,5.3c-0.5,0.2-1.1,0.4-1.7,0.4c-0.6,0-1.1-0.1-1.6-0.4
						c-0.9,1.5-1.5,3-1.9,4.7c2.1,0.8,3.1,3.1,2.3,5.2c-0.4,1.1-1.3,1.9-2.3,2.3c0.4,1.7,1.1,3.2,1.9,4.7c2-0.9,4.4,0,5.3,2.1
						c0.5,1,0.5,2.2,0,3.3c1.4,0.9,3,1.5,4.7,1.9c0.8-2.1,3.1-3.1,5.2-2.3c1.1,0.4,1.9,1.3,2.3,2.3c1.7-0.4,3.2-1.1,4.7-1.9
						c-0.9-2,0-4.4,2.1-5.3c1-0.5,2.2-0.5,3.3,0c0.9-1.4,1.5-3,1.9-4.7C-47.7,98.7-48.8,97.2-48.8,95.5z"/>
					<path id="Path_47323" class="st3" d="M-61.9,88.7c-3.8,0-6.8,1-6.8,2.1v1.7c0,1.2,3,2.1,6.8,2.1s6.8-1,6.8-2.1v-1.7
						C-55.1,89.7-58.1,88.7-61.9,88.7 M-61.9,95.9c-3.8,0-6.8-1-6.8-2.1v2.6c0,1.2,3,2.1,6.8,2.1s6.8-1,6.8-2.1v-2.6
						C-55.1,95-58.1,95.9-61.9,95.9 M-61.9,99.8c-3.8,0-6.8-1-6.8-2.1v2.6c0,1.2,3,2.1,6.8,2.1s6.8-1,6.8-2.1v-2.6
						C-55.1,98.8-58.1,99.8-61.9,99.8L-61.9,99.8z"/>
				</g>
			</g>
		</g>
	</g>
</g>
</svg>
