<?xml version="1.0" encoding="utf-8"?>
<!-- Generator: Adobe Illustrator 19.0.0, SVG Export Plug-In . SVG Version: 6.00 Build 0)  -->
<svg version="1.1" id="Layer_1" xmlns="http://www.w3.org/2000/svg" xmlns:xlink="http://www.w3.org/1999/xlink" x="0px" y="0px"
	 viewBox="-84.8 91.4 60 59.2" style="enable-background:new -84.8 91.4 60 59.2;" xml:space="preserve">
<style type="text/css">
	.st0{fill:#3FC0C8;}
	.st1{fill:none;}
	.st2{fill:none;stroke:#FFFFFF;stroke-width:1.3;}
	.st3{fill:#FFFFFF;}
</style>
<g id="Group_14813" transform="translate(-656 -1894.196)">
	<path id="Path_26623" class="st0" d="M620.5,1995.4c-10.1-11.3-25.3-13.1-37.4-4c-6.4,4.8-11.6,12.6-11.9,25.1
		c-0.1,3.8,0.3,7.5,1.3,11.2c3.8,12.4,23.7,13.7,24.8,13.8c0.7,0.1,1.4,0.1,2.1,0.2c2.5,0.4,5,1,7.3,1.8c3.4,1.2,7.8,2,12,0.7
		c0.7-0.2,1.4-0.5,2.1-0.9c2.3-1.2,4.9-2.4,6.6-5.6c1.5-3,2.5-6.2,3.1-9.4C633.2,2014,627.2,2002.9,620.5,1995.4z"/>
	<g id="Group_14625" transform="translate(0.395 -0.647)">
		<g id="Group_14568" transform="translate(1.219 -36.714)">
			<g id="Ellipse_53" transform="matrix(0.978, -0.208, 0.208, 0.978, 680.395, 1950.714)">
				<circle class="st1" cx="-98.9" cy="73.7" r="4.7"/>
				<circle class="st2" cx="-98.9" cy="73.7" r="4.1"/>
			</g>
			<path id="Path_26626" class="st3" d="M602,2056.9h-6.1c-2.2,0-3.9-1.8-3.9-3.9c0-2.2,1.8-3.9,3.9-3.9l3.1,1.9l3-1.9
				c2.2,0,3.9,1.8,3.9,3.9S604.2,2056.9,602,2056.9z"/>
		</g>
		<g id="Group_14570" transform="translate(667.013 1921.567)">
			<g id="Ellipse_53-2" transform="matrix(0.978, -0.208, 0.208, 0.978, 1.101, 1.551)">
				
					<ellipse transform="matrix(-0.9781 -0.208 0.208 -0.9781 -212.7495 123.0918)" class="st1" cx="-99.9" cy="72.7" rx="3.7" ry="3.7"/>
				
					<ellipse transform="matrix(-0.9781 -0.208 0.208 -0.9781 -212.7495 123.0918)" class="st2" cx="-99.9" cy="72.7" rx="3.1" ry="3.1"/>
			</g>
			<path id="Path_26626-2" class="st3" d="M-79.1,104.1h-4.8c-1.7,0-3.1-1.4-3.1-3.1c0-1.7,1.4-3.1,3.1-3.1l2.4,1.5l2.4-1.5
				c1.7,0,3.1,1.4,3.1,3.1C-76,102.7-77.4,104.1-79.1,104.1z"/>
		</g>
		<g id="Group_14628" transform="translate(697.013 1921.567)">
			<g id="Ellipse_53-3" transform="matrix(0.978, -0.208, 0.208, 0.978, 1.101, 1.551)">
				
					<ellipse transform="matrix(-0.9781 -0.208 0.208 -0.9781 -212.7495 123.0918)" class="st1" cx="-99.9" cy="72.7" rx="3.7" ry="3.7"/>
				
					<ellipse transform="matrix(-0.9781 -0.208 0.208 -0.9781 -212.7495 123.0918)" class="st2" cx="-99.9" cy="72.7" rx="3.1" ry="3.1"/>
			</g>
			<path id="Path_26626-3" class="st3" d="M-79.1,104.1h-4.8c-1.7,0-3.1-1.4-3.1-3.1c0-1.7,1.4-3.1,3.1-3.1l2.4,1.5l2.4-1.5
				c1.7,0,3.1,1.4,3.1,3.1C-76,102.7-77.4,104.1-79.1,104.1z"/>
		</g>
	</g>
</g>
</svg>
