<?xml version="1.0" encoding="utf-8"?>
<!-- Generator: Adobe Illustrator 27.0.0, SVG Export Plug-In . SVG Version: 6.00 Build 0)  -->
<svg version="1.1" id="Layer_1" xmlns="http://www.w3.org/2000/svg" xmlns:xlink="http://www.w3.org/1999/xlink" x="0px" y="0px"
	 viewBox="0 0 1398 461" style="enable-background:new 0 0 1398 461;" xml:space="preserve">
<style type="text/css">
	.st0{fill:#00B6C4;}
	.st1{fill:#FFFFFF;}
	.st2{fill:#5953A5;}
</style>
<g>
	<g>
		<path class="st0" d="M553.7,158.5l-64.3,159.6c-0.7,1.8-1.7,3.1-2.9,4c-1.2,0.9-2.6,1.3-4.2,1.3c-2.6,0-4.6-0.7-5.8-2
			c-1.2-1.3-1.9-3-1.9-4.9c-0.2-0.9-0.1-1.9,0.3-3.2l69.9-171c0.7-1.9,1.7-3.3,3-4.1c1.3-0.8,2.9-1.2,4.6-1.2c1.9,0,3.6,0.5,4.9,1.5
			c1.3,1,2.3,2.2,3,3.8l69.6,170.2c0.4,1.1,0.5,2.1,0.5,3.2c0,2.5-0.8,4.4-2.4,5.7c-1.6,1.3-3.4,2-5.6,2c-1.8,0-3.3-0.5-4.6-1.5
			c-1.3-1-2.3-2.2-3-3.8l-65.9-160.9L553.7,158.5z M504.7,269.7l6.6-15.6h82l3.2,15.6H504.7z"/>
		<path class="st0" d="M798.2,137.9c2.3,0,4.1,0.7,5.4,2.1c1.3,1.4,2,3.2,2,5.3v169.4c0,2.6-0.8,4.7-2.5,6.2
			c-1.7,1.5-3.6,2.2-5.7,2.2c-1.2,0-2.4-0.2-3.6-0.7c-1.2-0.4-2.1-1.1-2.8-2L673,161.7l4.5-2.6V316c0,1.9-0.7,3.6-2.1,5
			c-1.4,1.4-3.2,2.1-5.3,2.1c-2.3,0-4.1-0.7-5.4-2.1c-1.3-1.4-2-3.1-2-5V145.8c0-2.5,0.7-4.4,2.2-5.8c1.5-1.4,3.3-2.1,5.4-2.1
			c1.1,0,2.2,0.2,3.4,0.7c1.2,0.4,2.2,1.2,2.9,2.2L793.4,298l-2.6,4.8V145.3c0-2.1,0.7-3.9,2.1-5.3
			C794.3,138.6,796.1,137.9,798.2,137.9z"/>
		<path class="st0" d="M863.3,137.9h96.9c2.3,0,4.2,0.8,5.8,2.3c1.6,1.5,2.4,3.4,2.4,5.7c0,2.3-0.8,4.2-2.4,5.6
			c-1.6,1.4-3.5,2.1-5.8,2.1h-90.8l2.6-4.5v74.4l-2.9-3.4h79.1c2.3,0,4.2,0.8,5.8,2.4c1.6,1.6,2.4,3.4,2.4,5.6
			c0,2.3-0.8,4.1-2.4,5.6c-1.6,1.4-3.5,2.1-5.8,2.1h-78.6l2.4-2.6v76.2l-1.3-1.6h89.4c2.3,0,4.2,0.8,5.8,2.4
			c1.6,1.6,2.4,3.4,2.4,5.6c0,2.3-0.8,4.1-2.4,5.6c-1.6,1.4-3.5,2.1-5.8,2.1h-96.9c-2.3,0-4.2-0.8-5.7-2.4s-2.2-3.4-2.2-5.6V145.8
			c0-2.1,0.7-4,2.2-5.6C859.1,138.7,861,137.9,863.3,137.9z"/>
		<path class="st0" d="M1014.7,323.1c-2.6,0-4.8-0.8-6.5-2.4c-1.7-1.6-2.5-3.4-2.5-5.6V145.8c0-2.1,0.7-4,2.2-5.6
			c1.5-1.6,3.4-2.4,5.7-2.4h71.5c10.1,0,19.1,2.2,27,6.5c7.9,4.3,14.2,10.3,18.7,17.9c4.5,7.6,6.8,16.2,6.8,25.9
			c0,7.8-1.4,14.9-4.2,21.3c-2.8,6.4-6.8,11.9-11.9,16.4c-5.1,4.5-10.8,7.9-17.2,10.2l-9.3-3.2c6.5,0.7,12.6,2.9,18.3,6.5
			s10.2,8.6,13.6,14.8c3.4,6.3,5.2,13.7,5.4,22.4c0.2,7.6,0.6,13.5,1.2,17.7c0.6,4.2,1.5,7.4,2.8,9.5c1.2,2.1,2.8,3.8,4.8,5
			c1.8,1.1,2.9,2.6,3.6,4.5c0.6,1.9,0.4,3.8-0.7,5.6c-0.7,1.4-1.8,2.4-3.2,3c-1.4,0.6-2.8,0.9-4.2,0.9c-1.4,0-2.7-0.4-4-1.1
			c-2.6-1.4-5.2-3.6-7.7-6.6c-2.5-3-4.5-7.4-6.2-13.2c-1.7-5.8-2.5-13.9-2.5-24.3c0-6.9-1.1-12.5-3.3-16.8c-2.2-4.3-5-7.7-8.5-10.2
			s-7.2-4.1-11.4-5c-4.2-0.9-8.1-1.3-11.8-1.3h-61.7l2.9-4v74.9c0,2.1-0.7,4-2.1,5.6C1018.8,322.3,1017,323.1,1014.7,323.1z
			 M1019.4,229.4h66.4c6-0.5,11.6-2.5,16.8-5.8c5.2-3.3,9.5-8.1,12.8-14.2c3.3-6.1,5-13.1,5-21c0-10.1-3.4-18.4-10.2-25
			c-6.8-6.6-15.7-9.9-26.6-9.9h-63.2l1.8-3.4v83.1L1019.4,229.4z"/>
		<path class="st0" d="M1199.6,314.9c-0.2,2.3-1.1,4.2-2.8,5.8c-1.7,1.6-3.6,2.4-5.7,2.4c-2.6,0-4.7-0.8-6.1-2.4
			c-1.4-1.6-2.1-3.5-2.1-5.8V146.1c0-2.3,0.8-4.2,2.4-5.8c1.6-1.6,3.6-2.4,6.1-2.4c2.1,0,4,0.8,5.7,2.4c1.7,1.6,2.5,3.5,2.5,5.8
			V314.9z"/>
		<path class="st0" d="M1300.2,325.8c-13.4,0.2-25.1-1.9-34.9-6.2c-9.9-4.3-19.3-10.9-28.3-19.7c-0.9-0.9-1.6-1.9-2.2-2.9
			c-0.6-1.1-0.9-2.3-0.9-3.7c0-2.1,0.8-4.1,2.5-5.8c1.7-1.8,3.6-2.6,5.7-2.6c2.1,0,4.1,0.9,5.8,2.6c6.9,7.4,14.7,13.1,23.4,16.9
			c8.7,3.9,18.1,5.8,28.2,5.8c8.5,0,16-1.3,22.6-4s11.9-6.4,15.7-11.4c3.9-4.9,5.8-10.7,5.8-17.2c-0.2-8.1-2.4-14.6-6.7-19.6
			c-4.3-4.9-10.1-9.1-17.3-12.4c-7.2-3.4-15.3-6.3-24.1-8.7c-7.2-2.3-14.2-4.8-20.8-7.5c-6.6-2.7-12.4-6.1-17.5-10.1
			c-5-4-9-8.9-11.8-14.7c-2.8-5.8-4.2-12.8-4.2-20.9c0-9.3,2.5-17.7,7.4-25c4.9-7.3,11.9-13.1,21-17.2c9.1-4.1,19.6-6.2,31.6-6.2
			c10.4,0,20.4,1.8,30,5.3c9.6,3.5,17.2,8.7,22.9,15.6c2.6,2.8,4,5.4,4,7.7c0,1.9-0.9,3.8-2.6,5.4c-1.8,1.7-3.7,2.5-5.8,2.5
			c-1.8,0-3.3-0.6-4.5-1.9c-3-3.7-6.8-7-11.4-9.9c-4.6-2.9-9.7-5.2-15.2-6.7c-5.6-1.6-11.3-2.4-17.3-2.4c-8.3,0-15.7,1.3-22.4,3.8
			c-6.6,2.6-11.8,6.2-15.6,11c-3.8,4.8-5.7,10.6-5.7,17.5c0,7.4,2.1,13.5,6.4,18.1c4.2,4.7,9.8,8.6,16.7,11.6c6.9,3.1,14.2,6,22,8.6
			c7.6,2.1,14.9,4.5,21.8,7.3c7,2.7,13.1,6.1,18.5,10.2c5.4,4.1,9.6,9.2,12.7,15.3c3.1,6.2,4.6,13.9,4.6,23.3c0,9-2.6,17.1-7.7,24.3
			s-12.1,13-21,17.2C1322.7,323.4,1312.2,325.6,1300.2,325.8z"/>
	</g>
	<path class="st2" d="M231.2,423.9c-21.1,0-35.2-19.3-48.8-38c-8.1-11.1-16.4-22.5-25-27.5c-9.1-5.3-23.6-6.9-37.7-8.6
		c-22.6-2.6-45.9-5.3-56-22.7c-9.7-16.8-0.7-37.9,8.1-58.4c5.7-13.3,11.7-27.1,11.7-38.4s-5.9-25-11.7-38.4
		c-8.8-20.4-17.8-41.6-8.1-58.4c10.1-17.4,33.4-20.1,56-22.7c14-1.6,28.5-3.3,37.7-8.5c8.6-5,17-16.4,25-27.5
		c13.7-18.7,27.8-38,48.8-38c21.1,0,35.2,19.3,48.8,38c8.1,11.1,16.4,22.5,25,27.5c9.1,5.3,23.6,6.9,37.7,8.5
		c22.6,2.6,45.9,5.3,56,22.7c9.7,16.8,0.7,37.9-8.1,58.4c-5.7,13.3-11.7,27.1-11.7,38.4c0,11.2,5.9,25,11.7,38.4
		c8.8,20.4,17.8,41.6,8.1,58.4c-10.1,17.4-33.4,20.1-56,22.7c-14,1.6-28.6,3.3-37.7,8.6c-8.6,5-17,16.4-25,27.5
		C266.3,404.6,252.2,423.9,231.2,423.9z M231.2,50.1c-14.5,0-26.6,16.6-38.3,32.6c-8.9,12.1-18.1,24.7-29,31
		c-11.5,6.6-27.4,8.5-42.7,10.2c-19.4,2.2-39.4,4.5-46.2,16.3c-6.4,11.2,1,28.4,8.8,46.7c6.2,14.6,12.7,29.6,12.7,43.5
		s-6.5,29-12.7,43.5c-7.8,18.3-15.3,35.5-8.8,46.7c6.8,11.8,26.8,14.1,46.2,16.3c15.4,1.8,31.3,3.6,42.7,10.2
		c11,6.3,20.2,18.9,29,31.1c11.7,16,23.9,32.6,38.3,32.6c14.5,0,26.6-16.6,38.3-32.6c8.9-12.1,18.1-24.7,29-31
		c11.5-6.6,27.4-8.5,42.7-10.2c19.3-2.2,39.4-4.5,46.2-16.3c6.4-11.2-1-28.4-8.8-46.7c-6.2-14.6-12.7-29.6-12.7-43.5
		s6.5-29,12.7-43.5c7.8-18.3,15.3-35.5,8.8-46.7c-6.8-11.8-26.8-14.1-46.2-16.3c-15.4-1.8-31.2-3.6-42.7-10.2
		c-11-6.4-20.2-18.9-29-31C257.7,66.7,245.6,50.1,231.2,50.1z"/>
	<path class="st0" d="M150.9,402.2c-5.8,0-11.4-1.2-16.5-4.2c-17.4-10.1-20.1-33.4-22.7-56c-1.6-14-3.3-28.6-8.6-37.7
		c-5-8.6-16.4-17-27.5-25.1c-18.7-13.6-38-27.8-38-48.8c0-21.1,19.3-35.2,38-48.8c11-8.1,22.5-16.4,27.4-25
		c5.3-9.1,6.9-23.6,8.6-37.7c2.6-22.6,5.3-45.9,22.7-56c16.8-9.7,37.9-0.6,58.4,8.1c13.3,5.7,27.1,11.7,38.4,11.7
		c11.2,0,25-5.9,38.4-11.7c20.4-8.8,41.6-17.8,58.4-8.1c17.4,10.1,20.1,33.4,22.7,56c1.6,14,3.3,28.6,8.6,37.7
		c5,8.6,16.4,17,27.5,25c18.7,13.7,38,27.8,38,48.8c0,21.1-19.3,35.2-38,48.8c-11.1,8.1-22.5,16.4-27.5,25
		c-5.3,9.1-6.9,23.6-8.5,37.7c-2.6,22.6-5.3,45.9-22.7,56c-16.8,9.7-37.9,0.7-58.4-8.1c-3.1-1.3-6.2-2.7-9.3-3.9
		c-14.8-6.1-25.1-18.9-27.7-34.4c-3.2-16.7,3.2-35.2,15.8-44.9c6.1-4.7,12.8-7.1,19.3-9.3c2.3-0.8,4.6-1.6,6.8-2.5
		c31.3-12.7,52.3-53.2,49.6-91.5c-10,9.3-22.7,14.4-35,19.4c-11.4,4.6-22.2,8.9-30.9,16.4c-10.5,9-17.8,23.4-19.9,38.5
		c-0.5,3.6-3.5,6.2-7.1,6.2h0c-3.6,0-6.6-2.7-7.1-6.2c-2.1-15.1-9.4-29.5-19.9-38.5c-8.7-7.5-19.5-11.8-30.9-16.4
		c-12.3-5-24.9-10-35-19.4c-2.7,38.3,18.4,78.8,49.6,91.5c2.2,0.9,4.5,1.7,6.8,2.5c6.5,2.3,13.2,4.6,19.3,9.3
		c12.6,9.7,19,28.2,15.8,45.1c-3.5,15.8-14.6,28.8-29.6,35.1l-7.4,3.2C178.6,396,164.1,402.2,150.9,402.2z M151.1,71.8
		c-3.8,0-7.2,0.7-10.2,2.5c-11.8,6.8-14.1,26.8-16.3,46.2c-1.8,15.4-3.6,31.3-10.2,42.7c-6.4,11-18.9,20.2-31,29
		c-16,11.7-32.6,23.9-32.6,38.3c0,14.4,16.6,26.6,32.6,38.3c12.1,8.9,24.7,18.1,31.1,29c6.6,11.5,8.5,27.4,10.2,42.7
		c2.2,19.3,4.5,39.4,16.3,46.2c11.2,6.5,28.4-1,46.7-8.8l7.5-3.2c11.1-4.6,19.2-14.2,21.8-25.7c2.3-11.8-2.3-25.4-11-32.1
		c-4.4-3.4-9.8-5.3-15.6-7.3c-2.5-0.9-5-1.7-7.4-2.7c-41.3-16.8-66.7-72-55.4-120.6l3.7-15.7l8.3,13.8c8.4,14,23,19.9,38.5,26.1
		c11.9,4.8,24.2,9.7,34.6,18.6c7.9,6.8,14.2,15.6,18.5,25.6c4.3-10,10.7-18.9,18.5-25.6c10.4-8.9,22.7-13.8,34.6-18.6
		c15.5-6.2,30.1-12.1,38.5-26.1l8.3-13.8l3.7,15.7c11.3,48.6-14,103.8-55.4,120.6c-2.4,1-4.9,1.9-7.4,2.7c-5.8,2-11.2,3.9-15.6,7.3
		c-8.7,6.7-13.3,20.3-10.9,32.3c1.9,11.2,9.3,20.4,19.8,24.7c3.2,1.3,6.3,2.7,9.5,4c18.3,7.8,35.5,15.2,46.7,8.8
		c11.8-6.8,14.1-26.8,16.3-46.2c1.8-15.4,3.6-31.2,10.2-42.7c6.4-11,18.9-20.2,31.1-29c16-11.7,32.6-23.9,32.6-38.3
		c0-14.5-16.6-26.6-32.6-38.3c-12.1-8.9-24.7-18.1-31-29c-6.6-11.5-8.5-27.4-10.2-42.7c-2.2-19.4-4.5-39.4-16.3-46.2
		c-11.2-6.5-28.4,1-46.7,8.8c-14.6,6.2-29.6,12.7-43.5,12.7c-13.9,0-29-6.5-43.5-12.7C174.2,77.3,161.4,71.8,151.1,71.8z"/>
</g>
</svg>
