<svg xmlns="http://www.w3.org/2000/svg" width="34.509" height="34.501" viewBox="0 0 34.509 34.501">
  <path id="Icon_awesome-instagram" data-name="Icon awesome-instagram" d="M17.253,10.643A8.846,8.846,0,1,0,26.1,19.488,8.832,8.832,0,0,0,17.253,10.643Zm0,14.6A5.751,5.751,0,1,1,23,19.488a5.761,5.761,0,0,1-5.751,5.751ZM28.524,10.281a2.063,2.063,0,1,1-2.063-2.063A2.058,2.058,0,0,1,28.524,10.281Zm5.859,2.094c-.131-2.764-.762-5.212-2.787-7.229S27.131,2.5,24.367,2.359c-2.849-.162-11.386-.162-14.235,0A10.263,10.263,0,0,0,2.9,5.138C.878,7.155.255,9.6.116,12.367c-.162,2.849-.162,11.386,0,14.235.131,2.764.762,5.212,2.787,7.229s4.465,2.648,7.229,2.787c2.849.162,11.386.162,14.235,0,2.764-.131,5.212-.762,7.229-2.787s2.648-4.465,2.787-7.229c.162-2.849.162-11.379,0-14.227ZM30.7,29.658a5.822,5.822,0,0,1-3.28,3.28c-2.271.9-7.66.693-10.17.693s-7.907.2-10.17-.693a5.822,5.822,0,0,1-3.28-3.28c-.9-2.271-.693-7.66-.693-10.17s-.2-7.907.693-10.17a5.822,5.822,0,0,1,3.28-3.28c2.271-.9,7.66-.693,10.17-.693s7.907-.2,10.17.693a5.822,5.822,0,0,1,3.28,3.28c.9,2.271.693,7.66.693,10.17S31.6,27.4,30.7,29.658Z" transform="translate(0.005 -2.238)" fill="#3fc0c8"/>
</svg>
