<svg xmlns="http://www.w3.org/2000/svg" width="173.434" height="149.025" viewBox="0 0 173.434 149.025">
  <g id="Group_15885" data-name="Group 15885" transform="translate(0)">
    <path id="Path_47399" data-name="Path 47399" d="M128.052,18.3C98.693-5.751,57.42-6.281,26.993,17.816,10.909,30.555-1.683,49.908.184,79.139c.66,10.339,2.759,18.8,5.892,25.717,12.69,28.026,66.321,26.336,69.3,26.3q2.894-.036,5.786.073a118.374,118.374,0,0,1,20.066,2.482c9.414,1.991,21.42,2.909,32.21-1.185a37.177,37.177,0,0,0,5.335-2.518c5.945-3.41,12.592-6.679,16.557-14.652,2.979-5.984,5.191-13.47,6.329-22.776C165.8,58.688,147.609,34.316,128.052,18.3Z" transform="translate(11.801 0) rotate(5)" fill="#f1f5f8"/>
  </g>
</svg>
