<svg xmlns="http://www.w3.org/2000/svg" xmlns:xlink="http://www.w3.org/1999/xlink" width="48.679" height="39.763" viewBox="0 0 48.679 39.763">
  <defs>
    <clipPath id="clip-path">
      <rect id="Rectangle_3369" data-name="Rectangle 3369" width="48.679" height="39.763" transform="translate(0 0)" fill="#3fc0c8"/>
    </clipPath>
  </defs>
  <g id="Group_14825" data-name="Group 14825" transform="translate(0 0.003)">
    <g id="Group_14824" data-name="Group 14824" transform="translate(0 -0.003)" clip-path="url(#clip-path)">
      <path id="Path_47765" data-name="Path 47765" d="M22.255,3.746a3.957,3.957,0,0,1,0-.434.78.78,0,0,0-.172-.548.522.522,0,0,1-.047-.063c-.046-.078-.034-.112.05-.119a.581.581,0,0,1,.344.049c.068.039.14.071.206.114a1.474,1.474,0,0,0,.946.186c.266-.02.333-.214.294-.494a.433.433,0,0,0-.111-.205c-.067-.081-.13-.164-.2-.244a.442.442,0,0,1-.075-.494.294.294,0,0,0-.017-.33c-.059-.076,0-.12.062-.154A4.784,4.784,0,0,1,24.084.7a3.6,3.6,0,0,1,.911-.3.878.878,0,0,1,.156-.014A.233.233,0,0,1,25.4.613a.961.961,0,0,1-.058.481.3.3,0,0,0,.355.451,1.538,1.538,0,0,1,.694.027.525.525,0,0,0,.545-.192c.218-.253.426-.513.637-.771.062-.076.128-.15.183-.231A1.065,1.065,0,0,1,28.3.014a.787.787,0,0,1,.784.461.74.74,0,0,1,.007.369,1.235,1.235,0,0,0-.047.733c.025.082-.014.11-.1.077-.133-.054-.262-.12-.4-.173-.1-.041-.156-.02-.2.064s-.026.138.068.186a.669.669,0,0,0,.3.067c.189,0,.379.005.568.019A1.4,1.4,0,0,1,29.916,2a.484.484,0,0,0,.679-.118A2.918,2.918,0,0,0,31.338.671.6.6,0,0,1,31.4.509.214.214,0,0,1,31.7.437a1.487,1.487,0,0,1,.5.48.775.775,0,0,1,.035.713,1.416,1.416,0,0,0-.124.551.507.507,0,0,0,.143.374c.1.1.189.217.288.322a.669.669,0,0,1,.142.276c.04.131.076.264.12.394a.325.325,0,0,0,.35.254c.124,0,.248-.012.372-.016a.457.457,0,0,1,.509.487c0,.124,0,.249,0,.373.005.151.07.21.222.2a.785.785,0,0,0,.191-.041,1.526,1.526,0,0,1,.66-.053c.333.038.667.023,1,.034a.7.7,0,0,0,.424-.13c.146-.1.289-.2.435-.3a.65.65,0,0,1,.933.168.864.864,0,0,1,.236.506,2.21,2.21,0,0,1,.047.329c-.013.295.186.413.408.505A3.623,3.623,0,0,0,39.028,6a.789.789,0,0,1,.412.251.414.414,0,0,0,.383.149,3.371,3.371,0,0,0,.406-.071.55.55,0,0,1,.613.244c.059.086.126.167.192.248a.243.243,0,0,0,.295.088.92.92,0,0,1,.309-.048.209.209,0,0,1,.217.161c.036.1.1.193,0,.306-.176.2-.165.283.022.485l.054.057c.061.062.05.115-.021.16a.63.63,0,0,1-.277.094c-.094.009-.126.046-.1.141a.737.737,0,0,1-.171.6.092.092,0,0,1-.151.021c-.071-.054-.127-.027-.156.046a.471.471,0,0,0,.011.518.219.219,0,0,1,.027.237,3.516,3.516,0,0,1-.354.7,1.067,1.067,0,0,0-.2.37c.075.045.137,0,.2,0,.173,0,.229.082.148.232-.128.236-.225.487-.37.714a.437.437,0,0,1-.249.207.681.681,0,0,0-.319.219c-.22.25-.445.5-.665.747a.6.6,0,0,0-.017.644.985.985,0,0,0,.422.4,3.126,3.126,0,0,0,.356.164.153.153,0,0,1,.111.181,2.035,2.035,0,0,1-.08.343c-.052.187-.035.233.109.3a.255.255,0,0,0,.373-.086,1.913,1.913,0,0,1,.127-.174.16.16,0,0,1,.257-.022,2.059,2.059,0,0,1,.223.221.391.391,0,0,0,.37.132,6.16,6.16,0,0,1,.784-.025.586.586,0,0,1,.136.014,3.862,3.862,0,0,0,1.284.075c.032,0,.084-.016.091.011.035.127.163.163.231.254a.282.282,0,0,1,.023.191c0,.039-.013.077-.017.116-.025.2.047.267.247.229a2.54,2.54,0,0,0,.284-.075.462.462,0,0,1,.557.163c.116.151.216.312.321.469.142.212.278.428.418.641.05.075.082.137,0,.225s-.01.231.1.319a.555.555,0,0,0,.346.117,3.654,3.654,0,0,1,.588.023c.177.03.218.094.128.252a1.217,1.217,0,0,1-.388.454,1.731,1.731,0,0,0-.593.561.221.221,0,0,0,.009.3.168.168,0,0,1,.045.212c-.061.108,0,.159.094.183.068.017.086.041.084.12a.616.616,0,0,0,.222.435.157.157,0,0,0,.167.018c.119-.036.24-.067.356-.11a.242.242,0,0,1,.206.007,2.517,2.517,0,0,0,.812.212.88.88,0,0,1,.1.026.534.534,0,0,0-.048.627.392.392,0,0,0,.16.216.192.192,0,0,1,.094.2,3.2,3.2,0,0,1-.136.83.573.573,0,0,0,.063.523c.1.159.19.328.283.494.164.3.111.573-.318.62a.8.8,0,0,1-.348-.037.345.345,0,0,0-.432.13.641.641,0,0,0-.149.474.329.329,0,0,1-.244.385c-.122.046-.25.076-.375.114a.774.774,0,0,0-.5.321c-.031.053-.1.084-.149.125a1.926,1.926,0,0,0-.166.137c-.1.1-.1.119-.008.229a.6.6,0,0,1,.131.5c-.035.2-.131.3-.317.312a.319.319,0,0,0-.221.509.241.241,0,0,1,.022.322c-.038.056-.084.105-.16.09a.192.192,0,0,1-.159-.129.786.786,0,0,1-.02-.233.377.377,0,0,0-.107-.285c-.086-.079-.131-.089-.219-.014a.642.642,0,0,1-.441.131.383.383,0,0,1-.407-.3c-.008-.025-.011-.052-.021-.076-.039-.1-.076-.114-.161-.058a.545.545,0,0,1-.235.091.285.285,0,0,0-.244.246c-.03.114-.055.229-.088.342a.663.663,0,0,1-.363.415,2.607,2.607,0,0,0-.411.227.449.449,0,0,0-.2.382,1.278,1.278,0,0,1-.009.137.5.5,0,0,1-.18.358.391.391,0,0,0-.174.442.407.407,0,0,1,0,.137.4.4,0,0,1-.259.378.3.3,0,0,0-.161.465c.042.084.09.159.038.256-.064.121-.107.267-.257.3a.509.509,0,0,0-.378.383,3.361,3.361,0,0,1-.29.555c-.052.1-.112.192-.165.29-.111.2-.107.216.079.343a1.075,1.075,0,0,1,.292.259c.056.081.035.125-.056.128-.062,0-.143-.046-.181.025a.254.254,0,0,0-.021.261.091.091,0,0,1-.009.125c-.169.153-.123.345-.093.532a.9.9,0,0,0,.1.255.337.337,0,0,0,.232.195.588.588,0,0,1,.416.356,1.943,1.943,0,0,1,.3.822.155.155,0,0,0,.112.147.928.928,0,0,0,.281.081c.221.016.311.166.2.359a1.3,1.3,0,0,0-.109.374c-.032.14.027.221.167.263.019.006.038.008.057.013a.345.345,0,0,1,.229.526.066.066,0,0,1-.01.017,1.65,1.65,0,0,0-.394.712.991.991,0,0,1-.182.285.124.124,0,0,0,.071.083.121.121,0,0,1,.054.167,1.044,1.044,0,0,1-.619.641.285.285,0,0,1-.229-.013,1.419,1.419,0,0,1-.136-.078c-.218-.133-.309-.119-.471.073a.411.411,0,0,1-.543.121c-.085-.033-.165-.081-.25-.113a.547.547,0,0,0-.744.341.236.236,0,0,1-.332.172,1.119,1.119,0,0,1-.252-.107.35.35,0,0,0-.4.023,2.129,2.129,0,0,0-.219.165,2.135,2.135,0,0,1-.347.221.25.25,0,0,1-.169.033c-.215-.03-.293-.122-.286-.344a.24.24,0,0,1,0-.059,1.017,1.017,0,0,0-.162-.857c-.145-.233-.271-.478-.4-.72a.783.783,0,0,0-.323-.306,4.255,4.255,0,0,0-.45-.194c-.1-.04-.148.017-.189.09a.23.23,0,0,1-.232.146.239.239,0,0,1-.252-.265c0-.142-.02-.29.112-.4a.147.147,0,0,0,.034-.164.659.659,0,0,0-.111-.249c-.093-.119-.2-.227-.295-.341a.393.393,0,0,0-.425-.124,4.091,4.091,0,0,0-.4.109.523.523,0,0,1-.436-.048,1.375,1.375,0,0,1-.475-.4c-.143-.2-.289-.405-.422-.615a.67.67,0,0,0-.446-.323,1.189,1.189,0,0,1-.664-.392c-.065-.073-.151-.126-.216-.2a.6.6,0,0,0-.733-.139,2.632,2.632,0,0,1-.563.165,1.029,1.029,0,0,1-.369-.031.271.271,0,0,1-.2-.283c-.006-.157-.006-.314,0-.471a.642.642,0,0,0-.1-.392.31.31,0,0,1,.015-.381,1.767,1.767,0,0,0,.233-.661.773.773,0,0,0-.167-.606.3.3,0,0,0-.14-.1c-.109-.044-.218-.088-.327-.135a.465.465,0,0,1-.3-.551,1.527,1.527,0,0,1,.094-.3c.107-.267.209-.536.323-.8a.958.958,0,0,0,.086-.5,1.382,1.382,0,0,1,.228-.758c.051-.109.138-.063.232-.016.039-.3.082-.587.111-.871.019-.189-.071-.262-.258-.231-.052.009-.1.022-.154.028a.208.208,0,0,1-.257-.154c-.063-.155-.067-.156-.226-.085a.765.765,0,0,0-.238.17q-.574.591-1.15,1.181a.5.5,0,0,0-.133.557.621.621,0,0,1,.021.328,6.162,6.162,0,0,1-.129.694,1.525,1.525,0,0,1-.093.237.359.359,0,0,1-.3.227,2.616,2.616,0,0,0-.991.35c-.343.177-.691.345-1.036.517a1.079,1.079,0,0,1-.833.078c-.532-.161-1.071-.3-1.607-.448a.581.581,0,0,0-.252-.008c-.213.034-.427.064-.64.1a.671.671,0,0,1-.42-.06c-.162-.085-.322-.174-.484-.26-.069-.037-.108-.074-.084-.168a.681.681,0,0,0-.053-.423.567.567,0,0,1,.143-.629,2.256,2.256,0,0,1,.6-.466c.04-.023.081-.042.122-.063a.128.128,0,0,0,.066-.195,4.078,4.078,0,0,1-.3-.952c-.066-.241-.148-.282-.384-.186a.9.9,0,0,1-.109.045.179.179,0,0,1-.234-.164A1.021,1.021,0,0,1,20.3,26.9a9.309,9.309,0,0,0,.284-1.04.733.733,0,0,1,.284-.435,2.568,2.568,0,0,0,.226-.188.3.3,0,0,0,0-.478.851.851,0,0,0-.276-.184c-.133-.055-.217-.005-.234.136-.01.083.009.192-.1.21a.284.284,0,0,1-.267-.133.672.672,0,0,1-.063-.122c-.058-.124-.12-.247-.172-.374a.949.949,0,0,0-.426-.472,1.566,1.566,0,0,1-.437-.387l-.012-.015a.591.591,0,0,0-.811-.2c-.156.067-.315.129-.469.2a.7.7,0,0,1-.742-.059c-.016-.011-.034-.02-.049-.032a1.587,1.587,0,0,0-1.174-.266,1.157,1.157,0,0,1-.136.016.482.482,0,0,0-.482.3,2.316,2.316,0,0,0-.187.366c-.03.1-.124.149-.185.224-.031.038-.071.027-.1,0-.116-.106-.232-.212-.346-.319a.228.228,0,0,1-.057-.143,6.423,6.423,0,0,1-.111-1.19,4.437,4.437,0,0,0-.082-1.074,1.106,1.106,0,0,0-.827-.9,1.659,1.659,0,0,0-.408-.048c-.177,0-.354.008-.53,0s-.235-.1-.164-.274c.042-.1.08-.2-.007-.293a.3.3,0,0,0-.329-.061.657.657,0,0,0-.225.152,1.722,1.722,0,0,1-1,.4.342.342,0,0,1-.137,0,1.882,1.882,0,0,1-1.067-.682.549.549,0,0,1-.1-.334,3.473,3.473,0,0,0-.231-1.266,6.1,6.1,0,0,1-.2-.819A.454.454,0,0,1,9,16.755a.351.351,0,0,0,.031-.354,1.515,1.515,0,0,1-.05-.169c-.053-.189-.146-.333-.366-.353a.293.293,0,0,1-.248-.222,6.4,6.4,0,0,0-.455-.89.71.71,0,0,0-.447-.356.452.452,0,0,0-.268,0c-.449.144-.9.284-1.348.425a1.287,1.287,0,0,0-.772.626c-.082.149-.167.3-.257.441-.13.207-.238.245-.461.148-.324-.141-.646-.286-.963-.442a.732.732,0,0,1-.408-.43,1.67,1.67,0,0,0-.541-.777.861.861,0,0,1-.255-.366.348.348,0,0,0-.429-.25.993.993,0,0,1-.369-.006.334.334,0,0,1-.259-.215.584.584,0,0,0-.267-.348.143.143,0,0,1-.052-.207.844.844,0,0,0-.009-.7c-.038-.118-.066-.24-.1-.358a.4.4,0,0,1,.1-.416c.035-.039.073-.075.11-.112A.542.542,0,0,0,1,10.717a1.464,1.464,0,0,0-.263-.341,1.516,1.516,0,0,1-.485-1,2.606,2.606,0,0,0-.233-.987.15.15,0,0,1,.054-.206A.9.9,0,0,1,.4,8.013a1.5,1.5,0,0,0,.568-.3c.25-.2.515-.382.762-.586A14.12,14.12,0,0,1,3.758,5.822c1.178-.671,2.3-1.428,3.426-2.181a3.147,3.147,0,0,1,.841-.411c.726-.221,1.444-.466,2.166-.7.037-.012.074-.026.112-.036.133-.034.16-.021.181.121a3.43,3.43,0,0,1,.053,1.014,1.911,1.911,0,0,0,.039.777,1.163,1.163,0,0,0,1.272.846c.117-.011.234-.028.349-.05.134-.026.161-.058.165-.2,0-.1-.007-.209,0-.314a.332.332,0,0,1,.309-.365c.295-.025.576-.119.87-.147a1.433,1.433,0,0,1,.58.063c.461.147.921.3,1.378.459.332.117.449.249.409.613a.492.492,0,0,0,.167.457.39.39,0,0,0,.265.11c.432,0,.864,0,1.3-.008a.676.676,0,0,0,.44-.148,8.945,8.945,0,0,1,1.9-1.093,3.42,3.42,0,0,0,.8-.6,3.972,3.972,0,0,0,.5-.676,1.552,1.552,0,0,0,.134-.489c.019-.073-.005-.186.079-.206s.145.075.2.132a.677.677,0,0,1,.178.386.875.875,0,0,0,.392.568m.267.792a.129.129,0,0,0,.091-.063,1.024,1.024,0,0,0,.07-.116c.147-.283.13-.321-.179-.412-.01,0-.023,0-.035.007.115.342.115.342.053.584" transform="translate(0.001 0.003)" fill="#3fc0c8"/>
    </g>
  </g>
</svg>
