<svg id="Group_14826" data-name="Group 14826" xmlns="http://www.w3.org/2000/svg" xmlns:xlink="http://www.w3.org/1999/xlink" width="54.281" height="35.199" viewBox="0 0 54.281 35.199">
  <defs>
    <clipPath id="clip-path">
      <rect id="Rectangle_3371" data-name="Rectangle 3371" width="54.281" height="35.199" fill="#3fc0c8"/>
    </clipPath>
  </defs>
  <g id="Group_14828" data-name="Group 14828" clip-path="url(#clip-path)">
    <path id="Path_47768" data-name="Path 47768" d="M0,5.067V4.879A5.451,5.451,0,0,0,.425,3.161c.067-.473.232-.724.71-.746a.544.544,0,0,0,.3-.124A1.529,1.529,0,0,0,2.249.732.218.218,0,0,1,2.265.64.749.749,0,0,1,3.508.183,6.261,6.261,0,0,0,5.7,1.4a.444.444,0,0,1,.368.435.568.568,0,0,1-.312.585,2.97,2.97,0,0,1-.619.21.574.574,0,0,0-.474.46,6.646,6.646,0,0,0-.154.875c-.032.4.164.639.578.621A8.936,8.936,0,0,0,7.58,4.208a3.384,3.384,0,0,1,2.857.149,1.589,1.589,0,0,0,1.217.19.748.748,0,0,1,.551.017,17.047,17.047,0,0,0,2.865.864A6.822,6.822,0,0,0,17.4,5.5a.565.565,0,0,0,.34-.14,1.218,1.218,0,0,1,1.483-.126,4.993,4.993,0,0,0,3.107.423,1.258,1.258,0,0,1,.734.1,3.94,3.94,0,0,0,1.461.308,2.127,2.127,0,0,1,1.252.462,1.1,1.1,0,0,0,.868.265c1-.141,1.9-.629,2.882-.845.2-.043.278-.238.415-.358.658-.573,1.06-1.39,1.808-1.874a1.576,1.576,0,0,0,.508-.54,1.553,1.553,0,0,1,.835-.717,14.992,14.992,0,0,1,2.95-.72A9.2,9.2,0,0,0,39.214.846,1.976,1.976,0,0,1,40.707.631c.559.2,1.126.359,1.693.523.186.054.246.2.348.339a2.108,2.108,0,0,0,1.169.906,3.67,3.67,0,0,0,1.49-.024c.449-.089.713-.017.9.4a.561.561,0,0,0,.835.318c1.225-.508,1.231-.5,1.6.8.081.287.137.588.428.75A7.629,7.629,0,0,0,53.5,5.761c.509-.038.592.033.553.529a2.924,2.924,0,0,0,.182,1.7c.095.176.007.365-.031.549-.115.559-.586.864-.883,1.292-.249.359-.412.307-.693.111a3.218,3.218,0,0,0-2.43,0,1.13,1.13,0,0,0-.411.557c-.13.318-.251.641-.375.961-.063.161-.108.379-.262.431-.516.172-.645.434-.678,1.026a9.471,9.471,0,0,0-.279,2.554c.112.559-.121,1.132-.037,1.72.122.854-.01.947-.871.862a2.135,2.135,0,0,0-.374,0c-.16.013-.308.128-.272.265.105.4-.188.439-.424.524s-.424.2-.334.468c.162.485-.1.537-.469.5a.615.615,0,0,0-.744.539.944.944,0,0,1-.128.3c-.067.107-.17.2-.027.319.12.1.23.234.4.091.122-.1.268-.06.405-.075.344-.038.557.224.824.332.357.146.451.3.434.629-.01.2.024.4.264.43.374.048.341.266.215.5a.5.5,0,0,0,.088.644A19.635,19.635,0,0,0,48.621,25.2a1.865,1.865,0,0,1,.566,1.006c.082.276-.028.455-.354.448a2.868,2.868,0,0,1-.922-.132c-.2-.07-.5-.131-.519.19-.033.47-.283.331-.5.209A.976.976,0,0,0,45.707,27c-.472.442-.77.423-1.271,0a4.877,4.877,0,0,1-1.175-1.176,1.122,1.122,0,0,0-.606-.494.418.418,0,0,0-.516.093.666.666,0,0,1-.957.136.508.508,0,0,0-.724.179,1.818,1.818,0,0,1-.787.7,5.411,5.411,0,0,1-2.421.347.608.608,0,0,0-.7.62c-.015.929-.21,1.125-1.135,1.133-.638.005-.892.244-.911.858-.01.336-.215.471-.467.247-.566-.5-1.075-.17-1.57.067-.411.2-.415.581-.044.844.17.121.349.223.386.443.079.473.529.876.265,1.418-.024.05.027.154.069.214.12.169.042.308-.012.478a1.1,1.1,0,0,1-1.023.872,2.128,2.128,0,0,0-.475.189c-.462.164-.923.438-1.389-.008-.131-.126-.289-.048-.44.011-.289.114-.609.341-.873.291a2.392,2.392,0,0,0-1.589.19,11.674,11.674,0,0,1-1.7.493.746.746,0,0,1-.9-.3,1.6,1.6,0,0,0-.666-.577c-.668-.3-1.333-.613-2.016-.876-.236-.091-.59-.084-.68.219-.159.54-.392.305-.567.071a1.493,1.493,0,0,0-1-.624.631.631,0,0,1-.492-.38,2.917,2.917,0,0,1-.308-.775c-.066-.334-.318-.465-.588-.245a2.2,2.2,0,0,1-1.153.316.441.441,0,0,1-.514-.222c-.211-.36-.5-.309-.707-.009-.162.238-.28.238-.527.135-.435-.181-.612-.043-.663.442-.013.124,0,.323-.119.327-.344.012-.645.367-1.016.127a.361.361,0,0,0-.312-.061,6.6,6.6,0,0,1-2.015.687c-.026,0-.057.028-.078.049a.7.7,0,0,1-.86.092,1.546,1.546,0,0,0-1.564.036.429.429,0,0,1-.52-.023.5.5,0,0,0-.816.274.722.722,0,0,1-.843.507c-.467-.031-.93-.12-1.393-.194-.14-.022-.261-.058-.228-.271a9.616,9.616,0,0,0-.007-2.835.615.615,0,0,1,.181-.559,1.581,1.581,0,0,0,.348-.551c.153-.351.179-.675-.272-.838a.46.46,0,0,1-.269-.309,7.437,7.437,0,0,1-.631-1.9c-.041-.64-.431-.848-.964-1a3.631,3.631,0,0,1-2.126-1.365C.939,23.918.459,23.37,0,22.8v-.188c.451-.053.867-.147.978-.693.018-.09.136-.165.218-.234a.931.931,0,0,0,.028-1.546c-.191-.175-.5-.312-.484-.6a4.721,4.721,0,0,1,.217-1.374.829.829,0,0,0-.034-.814c-.12-.2-.328-.451-.1-.683a1.782,1.782,0,0,1,1.683-.689c.635.132.858-.007,1.028-.626a1.317,1.317,0,0,1,.541-.706,4,4,0,0,0,1.391-1.879c.1-.308.016-.517-.323-.594a1.37,1.37,0,0,1-.57-.39,3.8,3.8,0,0,1-.633-1.077A3.211,3.211,0,0,0,2.456,9.645a2.129,2.129,0,0,1-1.25-1.56,3.981,3.981,0,0,1-.078-.649.827.827,0,0,0-.391-.748.783.783,0,0,1-.351-.637A1.823,1.823,0,0,0,0,5.067" transform="translate(0 0)" fill="#3fc0c8"/>
  </g>
</svg>
