<!--?xml version="1.0" standalone="no"?-->
              <svg id="sw-js-blob-svg" viewBox="0 0 100 100" xmlns="http://www.w3.org/2000/svg" version="1.1">
                    <defs> 
                        <linearGradient id="sw-gradient" x1="0" x2="1" y1="1" y2="0">
                            <stop id="stop1" stop-color="rgba(241, 245, 248, 1)" offset="0%"></stop>
                            <stop id="stop2" stop-color="rgba(241, 245, 248, 1)" offset="100%"></stop>
                        </linearGradient>
                    </defs>
                <path fill="url(#sw-gradient)" d="M21.3,-35.9C28.3,-32.9,35.2,-28.6,38.1,-22.4C41.1,-16.2,40.2,-8.1,37.3,-1.7C34.4,4.8,29.6,9.5,25.6,14C21.6,18.4,18.5,22.5,14.3,26.3C10.2,30.2,5.1,33.9,-0.1,34.1C-5.4,34.3,-10.7,31.1,-15.2,27.4C-19.6,23.7,-23.1,19.5,-26.6,14.9C-30,10.3,-33.4,5.1,-33.9,-0.3C-34.3,-5.6,-31.8,-11.3,-29.2,-17.4C-26.6,-23.4,-23.8,-29.9,-18.9,-34.2C-14,-38.4,-7,-40.4,0.1,-40.6C7.2,-40.7,14.3,-38.9,21.3,-35.9Z" width="100%" height="100%" transform="translate(50 50)" stroke-width="0" style="transition: all 0.3s ease 0s;" stroke="url(#sw-gradient)"></path>
              </svg>