<svg id="Group_14795" data-name="Group 14795" xmlns="http://www.w3.org/2000/svg" xmlns:xlink="http://www.w3.org/1999/xlink" width="30.654" height="62.375" viewBox="0 0 30.654 62.375">
  <defs>
    <clipPath id="clip-path">
      <rect id="Rectangle_3366" data-name="Rectangle 3366" width="30.654" height="62.375" fill="#3fc0c8"/>
    </clipPath>
  </defs>
  <g id="Group_14794" data-name="Group 14794" clip-path="url(#clip-path)">
    <path id="Path_47758" data-name="Path 47758" d="M53.953,0a1.864,1.864,0,0,0,.866,1.474c.023.013.055.031.059.051.133.738.819.845,1.329,1.017.994.335.958,1.23,1.218,1.956.085.237-.174.51-.336.733-.186.256-.389.5-.589.746a1.2,1.2,0,0,0-.165,1.483c.1.172-.027.245-.123.323-.277.225-.561.439-.842.659-.059.046-.155.08-.121.177s.13.072.206.077.159,0,.237.011c.289.042.441.144.356.5a6.422,6.422,0,0,1-.658,1.564,1.03,1.03,0,0,0-.109.8q.2.767.355,1.543a.645.645,0,0,0,.441.553,2.749,2.749,0,0,1,1.955,1.921,2.4,2.4,0,0,0,.937,1.2.5.5,0,0,1,.178.552A5.328,5.328,0,0,1,58.1,19.389c-.455.711-.913,1.423-1.3,2.172a1.331,1.331,0,0,0,.185,1.319,11.62,11.62,0,0,1,1.291,2.881,1.534,1.534,0,0,0,.177.439,7.366,7.366,0,0,1,1,3.334c.033.228.041.368-.267.273-.237-.073-.425.11-.606.229-.146.1-.029.216.051.3a.278.278,0,0,1,.014.419.935.935,0,0,0-.169.676.967.967,0,0,1-.2.741c-.161.192-.094.3.149.338.171.028.465.055.381.279s.195.6-.318.658c-.331.035-.437.421-.3,1.02.069.3.105.688.585.652.321-.024.639-.036.523.462-.02.084.063.2.109.29a.256.256,0,0,1-.084.377.424.424,0,0,0-.162.555,1.939,1.939,0,0,1,.127.577.317.317,0,0,0,.207.313,1.6,1.6,0,0,1,.622.466,1.469,1.469,0,0,1,.309,1.484A7.81,7.81,0,0,0,59.8,40.78c-.053.185-.29.213-.45.3-.185.1-.219.213-.082.372A7.026,7.026,0,0,0,61,43.177c.6.347,1.308.777,1.379,1.652.012.154.178.222.278.324a.975.975,0,0,1,.239,1.36c-.253.55-.347,1.164-.645,1.7a6.51,6.51,0,0,1-1.162,1.477,15.233,15.233,0,0,0-1.151,1.544,25.488,25.488,0,0,1-1.6,2.139c-.647.653-.982,1.569-1.8,2.064a1.576,1.576,0,0,0-.742.931c-.022.079-.066.168-.147.171-.338.013-.508.268-.69.483a19.8,19.8,0,0,0-1.576,1.842.9.9,0,0,1-.931.114A1.286,1.286,0,0,0,51.9,58.8a.341.341,0,0,0-.434.226c-.071.159-.144.221-.405.179a1.032,1.032,0,0,0-.967.137.8.8,0,0,1-.961.018c.146.534-.016.732-.617.816-.136.019-.327-.064-.417.137-.024.053-.084.044-.138.015a.868.868,0,0,0-1.093.087,1.442,1.442,0,0,1-.643.24,1.058,1.058,0,0,0-.875.565c-.28.373-.277.38-.631.028-.046-.046-.077-.061-.127-.04-.347.15-.756.079-1.08.32a1.879,1.879,0,0,1-1.151.312c-.12,0-.242.038-.271.126-.171.513-.6.335-.989.414.124-.325.511-.292.641-.63-.4.185-.688.211-.891-.234-.1-.22-.437-.183-.677-.153-.14.017-.3.13-.387-.029a.41.41,0,0,1,.013-.449c.119-.181.1-.191-.143-.2-.295-.014-.679-.708-.524-.962.069-.114.155-.2.077-.351-.047-.09-.071-.194-.185-.105-.06.046-.252.04-.131.213.148.212.054.368-.125.5-.072.053-.211.049-.2,0,.065-.334-.425-.472-.29-.838a1.308,1.308,0,0,0-.393-.238c-.241-.105-.476.061-.731.036-.374-.037-.238-.362-.364-.531-.1-.13.035-.308.146-.364.273-.137.213.235.482.318-.4-.45.093-1.014-.382-1.389l-.029.36c-.28-.192-.386-.421-.126-.613.2-.146.023-.308.122-.448.129-.183.035-.505.362-.581a.435.435,0,0,0,0-.253c-.452-.168-.071-.32.013-.452.179-.283.374-.548.118-.889-.054-.072-.006-.111.183-.151-.153-.313-.008-.736-.422-.955.31-.1.31-.1.519.2a2.652,2.652,0,0,0-.214-.864,2.519,2.519,0,0,1-.1-.513.466.466,0,0,0-.126-.366c-.542-.43-.283-.944-.161-1.439.082-.333-.179-.609-.13-.932-.42.113-.3-.214-.333-.412a2.552,2.552,0,0,0-.285-.672c-.005-.011,0-.027,0-.039-.039-.14.529.013.142-.294-.184-.146,0-.383-.139-.545-.024-.029,0-.141,0-.141.439,0,.171-.367.146-.436-.1-.278.3-.337.152-.612.166.074.271.123.378.167.084.034.21,0,.158-.078-.177-.257.079-.293.185-.393-.037-.187-.384,0-.3-.262.052-.162.112-.338.376-.309.168.019.2-.162.132-.292a.758.758,0,0,1,.261-1.007c.1-.09.211-.116.27-.017.169.284.468.165.69.273-.2-.138-.155-.348-.159-.53a.2.2,0,0,1,.207-.2c.114-.005.155.051.161.17,0,.092.528.289.6.234a.141.141,0,0,0,.013-.211c-.069-.1-.149-.185-.217-.282-.115-.162-.259-.307.009-.489.135-.091.042-.362.228-.461.162.064.024.279.259.341-.08-.518.354-.825.475-1.213.111-.354.3-.708.4-1.093.157.1.463.08.449.552.175-.366.328-.583.678-.57.243.009.346-.156.323-.421s-.08-.63.408-.376c.075.039.194-.012.152-.1-.1-.225.265-.4.051-.627a.377.377,0,0,1,.121-.134,1.8,1.8,0,0,0,.706-.807,3.761,3.761,0,0,1,.987-1.123.2.2,0,0,0,.066-.177A1.124,1.124,0,0,1,45.2,35.6a.245.245,0,0,0,.09-.166c-.018-.622.45-.7.889-.872.385-.155.682-.19.97.137.032.036.1.116.162.035a.135.135,0,0,0-.016-.209c-.08-.068-.162-.134-.238-.207-.1-.1-.182-.218-.08-.348s.235-.036.346.03c.075.045.114.148.262.141a.639.639,0,0,1-.161-.43c0-.123-.045-.323-.125-.357-.416-.176-.3-.479-.19-.751.123-.3-.122-.568-.007-.875.039-.105.058-.228.109-.354.118-.289-.094-.543-.291-.716-.163-.143-.308-.3-.466-.438a.624.624,0,0,0-.682-.182c-.211.088-.434-.136-.461-.35-.034-.265-.307-.332-.486-.47-.092-.071-.2-.168-.334,0s-.235.156-.235-.1a4.414,4.414,0,0,0-.368-1.4,3.333,3.333,0,0,1-.2-.6.384.384,0,0,0-.232-.341.66.66,0,0,1-.419-.582c-.048-.586-.23-1.2.267-1.705.333-.341.189-.8.262-1.2.016-.09-.032-.215.014-.271.492-.6-.083-1.016-.278-1.474a4.149,4.149,0,0,1-.55-1.494c-.006-.205.017-.357.241-.435.2-.071.215-.236.228-.445.029-.483-.14-.678-.63-.627-.144.015-.318-.171-.221-.3.476-.614.148-1.282.165-1.923.009-.338,0-.654.328-.875.151-.1.136-.229-.016-.388a1.987,1.987,0,0,1-.7-.977c-.014-.078-.05-.183-.14-.163-.384.085-.308-.164-.325-.393a1.38,1.38,0,0,0-.465-.912,3.361,3.361,0,0,0-1.593-.923,1.218,1.218,0,0,1-1.04-.722c-.553.014-.59-.7-1.091-.772a.213.213,0,0,1-.14-.129c-.135-.48-.541-.756-.831-1.118a.493.493,0,0,0-.209-.176c-.286-.083-.444-.165-.342-.548.053-.2-.182-.465-.477-.541-.125-.033-.392-.037-.239-.276.1-.162.232-.432.527-.252.135.082.26.18.393.267.074.048.147.139.245.072a.25.25,0,0,0,.069-.289,1.471,1.471,0,0,0-.072-.184A.853.853,0,0,1,36.9,5.765a1.194,1.194,0,0,1,1.131.349A16.946,16.946,0,0,1,39.7,9.07c.145.379.146.737.7.776.282.02.564.255.9.225a.3.3,0,0,1,.312.134c.159.275.344.225.549.062a.537.537,0,0,1,.2-.125,1.037,1.037,0,0,0,.975-.9c.039-.235.341-.241.533-.106a1.669,1.669,0,0,1,.451.358,1.18,1.18,0,0,0,.765.51,1.25,1.25,0,0,1,1.025.9c.072-.118.108-.26.176-.277.491-.121.4-.535.429-.862A1.458,1.458,0,0,1,47.5,8.658a.307.307,0,0,1,.11-.042c.148-.028.35.2.443-.062a1.862,1.862,0,0,0,.256-.937,4.032,4.032,0,0,1,.148-2.359c.1-.235.015-.539.1-.81.072-.244.052-.51.246-.721a.313.313,0,0,0,.019-.376c-.2-.307.008-.475.217-.609a2.846,2.846,0,0,0,.92-1.189.88.88,0,0,1,1.183-.53c.653.264.643.254,1.129-.22.231-.225.506-.4.748-.624.187-.171.54-.016.783-.18Z" transform="translate(-32.416)" fill="#3fc0c8"/>
    <path id="Path_47759" data-name="Path 47759" d="M0,746.849c.272,0,.332-.162.275-.392.173-.056.088.141.221.148.034-.314.181-.565.544-.548a1.187,1.187,0,0,1,1.053.955c.116-.112.1-.35.365-.346-.066.212.158.528-.281.572a.121.121,0,0,0-.079.16c.226.331-.145.544-.155.827,0,.067-.088.141-.137.087-.165-.18-.464-.116-.594-.339a.288.288,0,0,0-.255-.154.327.327,0,0,1-.337-.221c-.021-.064-.073-.156-.125-.132-.428.206-.348-.233-.494-.38Z" transform="translate(0 -686.831)" fill="#3fc0c8"/>
    <path id="Path_47760" data-name="Path 47760" d="M52.491,546.519a.358.358,0,0,0,.088.476c.079.085.069.273-.055.306-.177.047-.243.349-.5.2a.919.919,0,0,1-.331-.466c-.135-.269.023-.319.212-.408.095-.045.141-.184.227-.26a.258.258,0,0,1,.294-.049c.066.033.086.094.066.2" transform="translate(-47.542 -502.924)" fill="#3fc0c8"/>
    <path id="Path_47761" data-name="Path 47761" d="M163.869,420.625c-.026.023-.061.074-.08.069-.36-.1-.3.175-.359.37a.2.2,0,0,1-.253.135c-.191-.068-.408-.094-.5-.333a.359.359,0,0,1,.058-.4.858.858,0,0,1,1.11.08.338.338,0,0,1,.023.079" transform="translate(-149.732 -386.934)" fill="#3fc0c8"/>
  </g>
</svg>
