<svg xmlns="http://www.w3.org/2000/svg" width="54.609" height="58.182" viewBox="0 0 54.609 58.182">
  <g id="Group_14778" data-name="Group 14778" transform="translate(-310.774 -460.438)">
    <path id="Path_27414" data-name="Path 27414" d="M234.206,579.751l.254.4a8.994,8.994,0,0,1-2.365.1,1.481,1.481,0,0,1-1.541-.634.915.915,0,0,0-.685-.435.737.737,0,0,1-.694-.583.661.661,0,0,0-.619-.557c-.173-.02-.292-.113-.287-.281.025-.736-.537-.455-.843-.344-.663.242-1.225.477-1.708-.315-.122-.2-.6-.244-.923-.343-.3-.092-.688-.122-.836-.36-.385-.621-.851-.463-1.382-.264a8.027,8.027,0,0,0-1.474.595,2.194,2.194,0,0,1-1.141.331A2.973,2.973,0,0,0,217.5,579.4a1.955,1.955,0,0,0-.041.275c-.032.414.089.919-.133,1.217s-.823-.036-1.244.059a3.377,3.377,0,0,0-.585.175.594.594,0,0,1-.79-.242c-.507-.644-.891-.707-1.726-.288a1.359,1.359,0,0,0-.722-.867c-.417-.3-.033-.91-.587-1.161a1.648,1.648,0,0,0-1.153-.355.321.321,0,0,1-.166-.115c-.71-.313-1.252-.846-1.956-1.183a1.37,1.37,0,0,0-1.9.26c-.29.293-.651.136-.913-.023a2.67,2.67,0,0,0-1.358-.492c-.376-.008-.491-.327-.687-.537a1.465,1.465,0,0,0-1.319-.631.493.493,0,0,1-.632-.47c-.064-.557-.52-.711-.985-.721a1.015,1.015,0,0,1-.887-.471c-.043-.059-.053-.159-.109-.184-.676-.3-1.316-.581-.951-1.453.08-.191-.416-.281-.7-.341-.214-.046-.52,0-.543-.3-.018-.236.239-.274.425-.336a3.076,3.076,0,0,0,1.689-1.7c1.459-2.665,2.224-5.578,3.467-8.32a1.065,1.065,0,0,1,.344-.557,2.1,2.1,0,0,1,.764,1.479,6.061,6.061,0,0,0,.645,2.5c.11.185.2.517.539.388.248-.094.143-.361.1-.567a13.173,13.173,0,0,1-.417-3.042c.031-.867-.736-1.411-1.277-2.03-.171-.2-.5-.3-.393-.616.129-.373.368.06.575-.034.185-.084.4-.1.419-.33.009-.092.021-.184.033-.276.256-1.981.266-1.994-1.562-3.219a1.533,1.533,0,0,1-.811-1.21,3.057,3.057,0,0,0-.566-1.151c-.108-.2-.362-.525.12-.605.9-.15.57-.724.514-1.2-.021-.178-.287-.3-.234-.506.159-.617-.18-.833-.821-.9-.328-.034-.7-.154-.133-.457.3-.163.224-.5.19-.766-.045-.341-.4-.335-.675-.36-.435-.039-.845-.086-.928-.577,0-.021-.024-.059-.037-.059-.879-.046-1.214-.815-1.868-1.178a15.857,15.857,0,0,1-2.189-1.424c-.376-.3-.613-.546-1.093-.165-.308.244-.465.029-.419-.279.076-.511-.2-.883-.707-1.253.356.043.609.07.861.1.33.045.566-.025.615-.356.042-.283-.006-.54-.378-.588a.566.566,0,0,1-.556-.573.507.507,0,0,0-.22-.356c-.544-.417-.438-.853.263-1.048a4.5,4.5,0,0,1,3.254.287,1.4,1.4,0,0,0,1.5.093,1.925,1.925,0,0,1,2.126.571,4.648,4.648,0,0,1,.8,1.518c.109.382.346.438.678.194a1.32,1.32,0,0,1,1.663-.123,7.129,7.129,0,0,0,2.223.827c1.084.129,1.107.144.98-.819a7.8,7.8,0,0,1,.119-2.007,2.169,2.169,0,0,0-.3-1.8c-.306-.393-.014-.9-.082-1.366-.027-.183.162-.2.32-.081a2.5,2.5,0,0,0,.407.332c1.055.5,1.083.494,1.288,1.464a.871.871,0,0,0,.95.816,7.887,7.887,0,0,1,2.837,1.008,3.438,3.438,0,0,0,2.329-.133c.359-.08.206-.336.057-.561-.378-.574-.088-1.125.642-1.262a6.915,6.915,0,0,1,2.633-.02c1.323.259,2.235-.528,3.113-1.107.427-.282.391-1.145.5-1.755.086-.483.267-.935.4-1.4a1.237,1.237,0,0,1,1.354-.9c.649-.009,1.3.036,1.95.053.3.008.392.214.47.411a2.356,2.356,0,0,0,1.5,1.529c.405.134.481.432.464.8-.027.58-.152,1.241.953,1.161.4-.029.5.314.416.616-.158.6.107.7.732.645,1.063-.091,1.318.23,1.05,1.141-.109.37-.463.783.191,1.081,1.262.576,1.44.572,2.015-.048.092-.1.133-.259.413-.261a1.752,1.752,0,0,1,.072.708c-.277.817.355,1.253.839,1.813a4.233,4.233,0,0,0,3.065,1.405.569.569,0,0,1,.456.225,1.508,1.508,0,0,0,1.323.561.29.29,0,0,1,.3.164c.135.28.267.561.405.84.248.5.4,1.127,1.291.78.183-.071.34.085.473.2a1.309,1.309,0,0,0,.841.342,2.1,2.1,0,0,1,1.54.587c.31.317.776.227,1.185.249.25.013.5.071.591.282s-.142.335-.294.432c-1.89,1.212-2.29,3.181-3.046,4.961a2.071,2.071,0,0,0-.171,1.687c.13.313-.628.721-1.051.588a1.574,1.574,0,0,1-.409-.213c-.569-.39-.9-.515-1.265.267-.268.574-.875,1.009-.967,1.722-.041.313-.539.3-.85.377-.452.112-.8.263-.852.746-.082.728-.822.86-1.391,1.135a1.581,1.581,0,0,0-.337,1.986c.16.14.353.073.521.057.515-.049,1.024-.132,1.538-.189a.8.8,0,0,1,.71.231c.246.273-.127.334-.217.494a.8.8,0,0,0,.151,1.14c.243.206.564.355.708.73-.507,0-1.022.058-1.219.508A.947.947,0,0,0,238,566.89c.181.138.163.333.157.521a.724.724,0,0,0,.4.71c.59.34.306.6-.108.809a2.839,2.839,0,0,1-1.748.149c-.523-.081-.7.1-.445.535.39.653.363,1.491,1.288,1.921.277.129.07.579-.223.828a1.515,1.515,0,0,0,.311,2.5c.676.37,1.269.94,2.194.784.321-.054.437.274.258.418-.5.4-.752,1.164-1.228,1.319-.855.277-1.513.909-2.348,1.228-.116.045-.247.079-.359.134-.089.043-.211.17-.309.184-.133.018-.093.013-.205-.052-.366-.212-.535-.7-1.082-.527a.808.808,0,0,0-.44.5c-.036.1-.105.709.061.757Q234.337,579.657,234.206,579.751Z" transform="translate(117.688 -73.323)" fill="#3fc0c8"/>
    <path id="Path_27415" data-name="Path 27415" d="M420.414,757.2a3.164,3.164,0,0,0-.07.966c.065.557.248,1.109-.661,1.249-.31.048-.274.38-.253.595a4.951,4.951,0,0,1-.949,2.651c-.041.084-.079.173-.208.17a.205.205,0,0,1-.227-.231c.051-.5-.352-.489-.715-.537-.582-.078-.862-.314-.437-.787.448-.5-.367-.369-.361-.653.206-.362.623-.559.114-1.221a2.272,2.272,0,0,1-.059-2.34c.352-.633.7-1.315,1.755-1.1a.278.278,0,0,0,.212-.067c.539-.566.969-.263,1.45.315-.057-.069.046-.465.055-.559.019-.194.039-.387.071-.579.023-.132.132-.935.387-.694.169.16.084.788.08.985A10.791,10.791,0,0,1,420.414,757.2Z" transform="translate(-55.242 -244.211)" fill="#3fc0c8"/>
  </g>
</svg>
