<svg xmlns="http://www.w3.org/2000/svg" xmlns:xlink="http://www.w3.org/1999/xlink" width="87" height="86" viewBox="0 0 87 86">
  <defs>
    <clipPath id="clip-path">
      <rect id="Rectangle_28" data-name="Rectangle 28" width="87" height="86" transform="translate(-0.236 0.008)" fill="#3fc0c8"/>
    </clipPath>
  </defs>
  <g id="Group_41" data-name="Group 41" transform="translate(0.236 -0.008)">
    <g id="Group_37" data-name="Group 37" transform="translate(0 0)" clip-path="url(#clip-path)">
      <path id="Path_54" data-name="Path 54" d="M142.9,135.691a4.333,4.333,0,0,0,2.846-7.4l-1.024-1.024,3.071-3.072a7.242,7.242,0,0,0,0-10.242L135.5,101.665a7.222,7.222,0,0,0-9.218-.842,7.222,7.222,0,0,0-9.218.842L104.77,113.956a7.242,7.242,0,0,0,0,10.242l3.072,3.072-1.024,1.023a4.328,4.328,0,0,0,2.846,7.4,4.279,4.279,0,0,0,4.1,4.094,4.276,4.276,0,0,0,4.1,4.1,4.334,4.334,0,0,0,7.4,2.849l1.027-1.025,1.026,1.024a4.329,4.329,0,0,0,7.4-2.848,4.276,4.276,0,0,0,4.1-4.1,4.284,4.284,0,0,0,4.1-4.1M127.3,103.713a4.452,4.452,0,0,1,6.146,0L145.741,116a4.346,4.346,0,0,1,0,6.145l-3.072,3.072L127.3,109.86a1.448,1.448,0,0,0-2.048,0L119.11,116a1.449,1.449,0,0,1-2.049-2.048Zm-16.391,28.678a1.479,1.479,0,0,1-2.048,0,1.447,1.447,0,0,1,0-2.047l1.027-1.025,2.048,2.048Zm4.1,4.1a1.486,1.486,0,0,1-2.049,0,1.449,1.449,0,0,1,0-2.047l1.027-1.025,2.049,2.049Zm4.1,4.1a1.449,1.449,0,0,1-2.051-2.047l1.027-1.024,2.05,2.05Zm4.1,4.1a1.479,1.479,0,0,1-2.048,0,1.447,1.447,0,0,1,0-2.047l1.028-1.023,2.046,2.046Zm16.393-8.195a1.449,1.449,0,0,1-2.049,0L126.28,125.224l-2.048,2.048L135.5,138.536a1.449,1.449,0,0,1-2.048,2.051l0,0h0l-11.27-11.262-2.048,2.048L131.4,142.636a1.446,1.446,0,0,1,0,2.047,1.477,1.477,0,0,1-2.048,0l-2.051-2.047h0L106.818,122.15a4.346,4.346,0,0,1,0-6.145l12.291-12.291a4.457,4.457,0,0,1,4.92-.823l-9.017,9.017a4.345,4.345,0,0,0,6.146,6.145l5.121-5.121,17.415,17.412a1.446,1.446,0,0,1,0,2.047,1.478,1.478,0,0,1-2.047,0h0l-11.269-11.266-2.048,2.048L139.6,134.44a1.448,1.448,0,0,1,0,2.048" transform="translate(-82.823 -80.734)" fill="#3fc0c8"/>
      <path id="Path_55" data-name="Path 55" d="M255.8,71.106c-.957-.286-1.931-.525-2.9-.713l-.555,2.843c.874.17,1.756.387,2.624.645Z" transform="translate(-203.607 -57.214)" fill="#3fc0c8"/>
      <path id="Path_56" data-name="Path 56" d="M329.443,115.421c-.63-.761-1.307-1.5-2.012-2.2l-2.041,2.057c.639.634,1.251,1.3,1.821,1.993Z" transform="translate(-262.544 -91.768)" fill="#3fc0c8"/>
      <path id="Path_57" data-name="Path 57" d="M282.891,80.514c-.879-.465-1.788-.893-2.7-1.266l-1.1,2.679c.826.34,1.648.724,2.443,1.147Z" transform="translate(-225.187 -64.359)" fill="#3fc0c8"/>
      <path id="Path_58" data-name="Path 58" d="M227.23,70.52l.27-2.886c-.954-.089-1.924-.134-2.881-.134h-.091l.091,2.9c.868,0,1.746.041,2.611.123" transform="translate(-181.162 -54.88)" fill="#3fc0c8"/>
      <path id="Path_59" data-name="Path 59" d="M307.749,95.492c-.768-.628-1.576-1.224-2.4-1.771l-1.6,2.413c.746.5,1.477,1.034,2.171,1.6Z" transform="translate(-245.081 -76.037)" fill="#3fc0c8"/>
      <path id="Path_60" data-name="Path 60" d="M167.948,77.147l-.847-2.77c-.948.29-1.892.631-2.808,1.013l1.118,2.674c.828-.346,1.681-.655,2.538-.917" transform="translate(-132.562 -60.429)" fill="#3fc0c8"/>
      <path id="Path_61" data-name="Path 61" d="M197.046,71.181l-.287-2.883c-.986.1-1.979.248-2.952.443l.572,2.84c.879-.177,1.777-.311,2.668-.4" transform="translate(-156.375 -55.524)" fill="#3fc0c8"/>
      <path id="Path_62" data-name="Path 62" d="M344.6,140.914l2.549-1.378c-.471-.871-.992-1.729-1.547-2.552l-2.4,1.621c.5.744.972,1.521,1.4,2.309" transform="translate(-276.913 -110.944)" fill="#3fc0c8"/>
      <path id="Path_63" data-name="Path 63" d="M239.128,365.155l.279,2.883a29.774,29.774,0,0,0,2.955-.437l-.567-2.841c-.883.176-1.78.308-2.666.395" transform="translate(-192.943 -294.727)" fill="#3fc0c8"/>
      <path id="Path_64" data-name="Path 64" d="M125.262,337.551c.766.628,1.573,1.225,2.4,1.775l1.607-2.411c-.746-.5-1.476-1.038-2.169-1.606Z" transform="translate(-101.069 -270.965)" fill="#3fc0c8"/>
      <path id="Path_65" data-name="Path 65" d="M103.418,317.423c.63.764,1.306,1.505,2.007,2.2l2.046-2.051c-.635-.634-1.247-1.306-1.818-2Z" transform="translate(-83.444 -255.044)" fill="#3fc0c8"/>
      <path id="Path_66" data-name="Path 66" d="M150.941,353.359c.872.464,1.78.893,2.7,1.272l1.107-2.676c-.831-.344-1.653-.731-2.442-1.153Z" transform="translate(-121.788 -283.464)" fill="#3fc0c8"/>
      <path id="Path_67" data-name="Path 67" d="M88.754,292.4,86.2,293.777c.468.87.986,1.729,1.54,2.555l2.4-1.615c-.5-.747-.971-1.525-1.393-2.311" transform="translate(-69.553 -236.347)" fill="#3fc0c8"/>
      <path id="Path_68" data-name="Path 68" d="M179.465,364.23c.95.287,1.924.529,2.9.72l.559-2.843c-.879-.172-1.76-.39-2.619-.649Z" transform="translate(-144.803 -292.062)" fill="#3fc0c8"/>
      <path id="Path_69" data-name="Path 69" d="M357.4,167.794l2.77-.852c-.292-.949-.634-1.894-1.017-2.807l-2.672,1.12c.347.825.656,1.679.92,2.538" transform="translate(-287.627 -132.852)" fill="#3fc0c8"/>
      <path id="Path_70" data-name="Path 70" d="M212.72,366.967h-.063c-.881,0-1.768-.044-2.635-.127l-.279,2.883c.971.093,1.962.141,2.947.141a1.44,1.44,0,0,0,.192-.013l-.162-1.423Z" transform="translate(-169.233 -296.406)" fill="#3fc0c8"/>
      <path id="Path_71" data-name="Path 71" d="M73.916,180.454l-2.774-.835c-.284.945-.525,1.92-.716,2.9l2.843.557c.173-.886.391-1.767.647-2.62" transform="translate(-56.824 -145.344)" fill="#3fc0c8"/>
      <path id="Path_72" data-name="Path 72" d="M97.825,127.231,95.581,125.4c-.629.771-1.225,1.577-1.772,2.4l2.412,1.6c.5-.744,1.035-1.475,1.6-2.171" transform="translate(-75.691 -101.596)" fill="#3fc0c8"/>
      <path id="Path_73" data-name="Path 73" d="M77.1,266.631l-2.771.846c.29.949.63,1.894,1.011,2.808l2.674-1.115c-.345-.826-.652-1.68-.914-2.539" transform="translate(-59.971 -215.551)" fill="#3fc0c8"/>
      <path id="Path_74" data-name="Path 74" d="M117.384,105.756l-1.843-2.235c-.761.628-1.5,1.3-2.205,2.01l2.054,2.043c.635-.638,1.306-1.251,1.995-1.818" transform="translate(-91.446 -83.944)" fill="#3fc0c8"/>
      <path id="Path_75" data-name="Path 75" d="M83.135,152.445l-2.558-1.361c-.468.881-.9,1.789-1.27,2.7l2.679,1.1c.338-.823.725-1.644,1.149-2.442" transform="translate(-63.99 -122.321)" fill="#3fc0c8"/>
      <path id="Path_76" data-name="Path 76" d="M71.159,239.268l-2.883.289c.1.985.247,1.976.441,2.948l2.84-.566c-.175-.88-.309-1.778-.4-2.671" transform="translate(-55.089 -193.473)" fill="#3fc0c8"/>
      <path id="Path_77" data-name="Path 77" d="M70.522,210.186l-2.884-.274c-.091.962-.138,1.942-.138,2.914v.061l2.9-.061c0-.88.042-1.768.125-2.64" transform="translate(-54.463 -169.787)" fill="#3fc0c8"/>
      <path id="Path_78" data-name="Path 78" d="M141.06,88.829l-1.377-2.549c-.869.47-1.728.988-2.552,1.542l1.617,2.4c.746-.5,1.523-.972,2.311-1.4" transform="translate(-110.646 -70.033)" fill="#3fc0c8"/>
      <path id="Path_79" data-name="Path 79" d="M292.266,344.841l1.372,2.552c.873-.47,1.732-.987,2.555-1.538l-1.613-2.408c-.745.5-1.523.969-2.314,1.393" transform="translate(-235.818 -277.532)" fill="#3fc0c8"/>
      <path id="Path_80" data-name="Path 80" d="M366.826,227.189l2.883.28c.1-.986.144-1.987.144-2.978v-.122l-2.9.122c0,.9-.044,1.8-.13,2.7" transform="translate(-295.978 -181.452)" fill="#3fc0c8"/>
      <path id="Path_81" data-name="Path 81" d="M361.41,255.406l2.772.84c.287-.946.53-1.921.723-2.9l-2.842-.563c-.175.883-.395,1.764-.654,2.618" transform="translate(-291.608 -204.382)" fill="#3fc0c8"/>
      <path id="Path_82" data-name="Path 82" d="M350.724,281.941l2.556,1.364c.467-.874.9-1.782,1.275-2.7l-2.677-1.109c-.343.828-.731,1.648-1.155,2.442" transform="translate(-282.986 -225.934)" fill="#3fc0c8"/>
      <path id="Path_83" data-name="Path 83" d="M266.5,357.57l.839,2.773a29.708,29.708,0,0,0,2.812-1.009l-1.112-2.673c-.832.345-1.686.652-2.538.909" transform="translate(-215.031 -288.193)" fill="#3fc0c8"/>
      <path id="Path_84" data-name="Path 84" d="M315.465,327.523l1.839,2.238c.762-.625,1.506-1.3,2.209-2l-2.05-2.048c-.637.638-1.309,1.248-2,1.815" transform="translate(-254.536 -263.218)" fill="#3fc0c8"/>
      <path id="Path_85" data-name="Path 85" d="M365.078,196.89l2.881-.3c-.1-.993-.252-1.985-.447-2.948l-2.839.574c.176.871.312,1.77.4,2.671" transform="translate(-294.24 -156.661)" fill="#3fc0c8"/>
      <path id="Path_86" data-name="Path 86" d="M335.2,306.29l2.239,1.839c.63-.767,1.228-1.573,1.778-2.4l-2.409-1.61c-.5.744-1.038,1.474-1.608,2.167" transform="translate(-270.463 -245.802)" fill="#3fc0c8"/>
      <path id="Path_87" data-name="Path 87" d="M85.7,33.336l-4.68-.781a38.932,38.932,0,0,0-3.3-7.949l2.763-3.868a1.449,1.449,0,0,0-.155-1.866L68.039,6.582a1.448,1.448,0,0,0-1.866-.154L62.3,9.191a38.923,38.923,0,0,0-7.948-3.3l-.78-4.678A1.449,1.449,0,0,0,52.148,0H34.765a1.449,1.449,0,0,0-1.429,1.211l-.78,4.678a38.923,38.923,0,0,0-7.948,3.3L20.739,6.428a1.448,1.448,0,0,0-1.866.154L6.583,18.874a1.449,1.449,0,0,0-.155,1.866l2.763,3.868a38.932,38.932,0,0,0-3.3,7.949l-4.68.781A1.448,1.448,0,0,0,0,34.765V52.148a1.448,1.448,0,0,0,1.21,1.429l4.68.781a38.922,38.922,0,0,0,3.3,7.949L6.428,66.173a1.449,1.449,0,0,0,.155,1.866L18.874,80.33a1.449,1.449,0,0,0,1.866.154l3.869-2.763a38.911,38.911,0,0,0,7.948,3.3l.78,4.678a1.449,1.449,0,0,0,1.429,1.211H52.148A1.449,1.449,0,0,0,53.576,85.7l.78-4.678a38.911,38.911,0,0,0,7.948-3.3l3.869,2.763a1.449,1.449,0,0,0,1.866-.154L80.33,68.039a1.449,1.449,0,0,0,.155-1.866l-2.763-3.868a38.923,38.923,0,0,0,3.3-7.949l4.68-.781a1.448,1.448,0,0,0,1.21-1.429V34.765a1.448,1.448,0,0,0-1.21-1.429M84.015,50.921l-4.381.73a1.446,1.446,0,0,0-1.162,1.06,36,36,0,0,1-3.718,8.954,1.449,1.449,0,0,0,.072,1.572l2.587,3.621L66.859,77.415l-3.623-2.587a1.444,1.444,0,0,0-1.572-.074,35.994,35.994,0,0,1-8.954,3.719,1.448,1.448,0,0,0-1.06,1.163l-.731,4.38H35.992l-.731-4.38a1.448,1.448,0,0,0-1.06-1.163,35.994,35.994,0,0,1-8.954-3.719,1.444,1.444,0,0,0-1.572.074l-3.623,2.587L9.5,66.858l2.587-3.621a1.45,1.45,0,0,0,.072-1.572A36,36,0,0,1,8.44,52.711a1.447,1.447,0,0,0-1.162-1.06L2.9,50.921V35.991l4.381-.73A1.446,1.446,0,0,0,8.44,34.2a36.006,36.006,0,0,1,3.718-8.954,1.45,1.45,0,0,0-.072-1.572L9.5,20.055,20.054,9.5l3.623,2.587a1.45,1.45,0,0,0,1.572.074A35.993,35.993,0,0,1,34.2,8.439a1.448,1.448,0,0,0,1.06-1.163l.731-4.38H50.92l.731,4.38a1.448,1.448,0,0,0,1.06,1.163,35.993,35.993,0,0,1,8.954,3.719,1.45,1.45,0,0,0,1.572-.074L66.859,9.5,77.414,20.055l-2.587,3.621a1.449,1.449,0,0,0-.072,1.572A36.006,36.006,0,0,1,78.472,34.2a1.446,1.446,0,0,0,1.162,1.06l4.381.73Z" transform="translate(0 -0.417)" fill="#3fc0c8"/>
    </g>
  </g>
</svg>
