<svg xmlns="http://www.w3.org/2000/svg" xmlns:xlink="http://www.w3.org/1999/xlink" width="40.23" height="52.567" viewBox="0 0 40.23 52.567">
  <defs>
    <clipPath id="clip-path">
      <rect id="Rectangle_3359" data-name="Rectangle 3359" width="40.23" height="52.567" fill="#3fc0c8"/>
    </clipPath>
  </defs>
  <g id="Group_13988" data-name="Group 13988" transform="translate(94.619 -265.895)">
    <g id="Group_14780" data-name="Group 14780" transform="translate(-94.619 265.895)">
      <g id="Group_14779" data-name="Group 14779" clip-path="url(#clip-path)">
        <path id="Path_47408" data-name="Path 47408" d="M40.231,12.356V12.7c-.1.191-.3.409-.264.568a1.7,1.7,0,0,1-.191.982c-.029.091-.016.266-.17.249a.274.274,0,0,1-.217-.238c-.007-.041,0-.094-.067-.1.067.63.057.7-.113,1.009a2.587,2.587,0,0,1-.758.749c-.189.145-.2-.233-.386-.238-.011,0-.023-.006-.034-.005a2.028,2.028,0,0,0-1.083.222c-.229.146-.38.311-.257.617a1.077,1.077,0,0,1-.006.505c-.085.859-.835,1.152-1.368,1.629-.114.1-.24.046-.342-.036-.074-.059-.19-.113-.09-.244.083-.109-.008-.161-.084-.159a.75.75,0,0,1-.777-.435c-.043-.089-.188-.086-.283-.038a.1.1,0,0,0,0,.17c.319.174.447.566.821.684a.377.377,0,0,1,.1.642.62.62,0,0,1-.582.1,1.785,1.785,0,0,1-.747-.321c-.089-.07-.224-.179-.316-.01a1.8,1.8,0,0,0-.273,1.133.544.544,0,0,0,.431.512c.11.025.212.082.321.113.208.059.308.143.212.391-.078.2-.164.449.142.582.073.032.076.1.035.173a2.043,2.043,0,0,0-.04,1.529,1.767,1.767,0,0,0,.808,1.122.74.74,0,0,1,.4.607,1.861,1.861,0,0,1-.285.933,1.481,1.481,0,0,0,.019.894c.034.232.232.161.381.187a.2.2,0,0,1,.164.193.214.214,0,0,1-.116.228.223.223,0,0,1-.258-.017,2.745,2.745,0,0,1-.215-.257c-.114.286-.461.284-.578.625-.082.239-.02.284.1.375a1.357,1.357,0,0,0,.283.111c.247.109.491.207.322.572a.643.643,0,0,0,.022.5c.121.279.192.579.311.851a2.351,2.351,0,0,1,.161,1.592.635.635,0,0,0,.214.765c.117.079.113.179.067.3-.133.349-.277.7-.379,1.053a.725.725,0,0,1-.227.394,1.222,1.222,0,0,0-.446.992,1.283,1.283,0,0,1-.278.879,1.238,1.238,0,0,0-.287,1.353,1.021,1.021,0,0,1-.2,1.133c-.311.405-.582.842-.864,1.269a.817.817,0,0,0-.147.618c.055.269,0,.328-.267.217-.151-.062-.4-.1-.433.163-.029.229.117.512.326.457.24-.063.147.05.163.141.033.19.056.377.282.463.66.249-.018.562.016.851.025.213-.2.253-.409.16a1.393,1.393,0,0,0-1.129-.009.531.531,0,0,1-.668-.123c-.408-.419-.926-.263-1.415-.222-.261.022-.1.294-.221.4a.543.543,0,0,1-.145.086.889.889,0,0,0-.436.414c-.04.079-.09.188-.2.114-.08-.055-.019-.141.02-.213a.773.773,0,0,0-.272-1.139.736.736,0,0,0-.088.556c.088.19,0,.287-.069.429-.169.369-.513.262-.8.32-.125.025-.216.088-.23-.145a.2.2,0,0,0-.367-.083c-.2.29-.474.238-.738.21a2.7,2.7,0,0,0-1.885.329c-.172.115-.422.09-.538.322-.04.08-.142.038-.2-.031a.14.14,0,0,0-.234-.009c-.1.106-.006.181.053.266.109.159.319.072.486.193-.139.125-.3.224-.3.388.008.447-.3.537-.636.611-.2.044-.442.034-.459.352-.008.155-.191.154-.272.1-.257-.157-.486.01-.72.039a.415.415,0,0,0-.284.583c.092.159-.027.178-.122.2-.231.057-.47.09-.7.159-.148.045-.34.122-.291.318s-.066.22-.189.286c-.318.172-.706.093-1.023.338-.134.1-.465.011-.677-.069a.247.247,0,0,1-.054-.405,1.312,1.312,0,0,1,.394-.323.465.465,0,0,0-.363-.036c-.389.062-.464.218-.248.544a.225.225,0,0,1,.012.28.766.766,0,0,0-.139.447.413.413,0,0,1-.169.318,10.129,10.129,0,0,1-1.032.576.628.628,0,0,1-.31.129.39.39,0,0,0-.37.492c.023.124.08.246-.009.376-.18-.139-.195-.46-.477-.4a1.142,1.142,0,0,1-.771-.074.557.557,0,0,1,.057.4c-.013.519-.2.61-.681.408-.46-.195-.728-.3-.946.314-.083.234-.322.178-.476.281-.082.055-.082-.127-.136-.192-.093-.113-.22-.211-.352-.14a5.246,5.246,0,0,1-.971.387c-.432.13-.616.85-1.231.512-.046-.025-.172.088-.256.145-.157.107-.341.206-.506.1-.131-.081-.127,0-.183.055s-.158.193-.25.122-.028-.207.034-.3c.03-.045.092-.069.077-.145-.088,0-.177.113-.275,0,.1-.128.207-.255.3-.391.038-.054.142-.121.032-.194a.127.127,0,0,0-.185.022c-.168.264-.457.216-.7.26-.086.015-.125.021-.165.1a.473.473,0,0,1-.69.153.347.347,0,0,0-.561.194c-.042.153-.146.211-.247.3-.156.138-.341.01-.493.093-.078.042-.207.047-.19-.035.036-.172-.256-.327-.065-.445.294-.181.5-.506.888-.543a.767.767,0,0,0,.487-.349,4.227,4.227,0,0,1,.726-.631.472.472,0,0,0-.3.067c-.334.167-.668.336-1.008.491-.248.113-.5.208-.759.3a.181.181,0,0,1-.157-.028c-.051-.05,0-.109.045-.137.287-.165.484-.437.772-.611a13.685,13.685,0,0,1,1.649-.8c.078-.034.206-.058.122-.182-.12-.175.029-.218.122-.283.17-.12.12.137.246.146.015-.126.194-.293-.072-.326a.848.848,0,0,1-.5-.315c-.062.342-.641.883-.956.833a1.508,1.508,0,0,0-.724.124,3.493,3.493,0,0,1-.63.126c-.222.027-.507-.042-.646.219-.2.385-.657.354-.95.587a.109.109,0,0,1-.1.011.73.73,0,0,0-.827.056c-.039.025-.108.053-.107,0,0-.309-.152-.075-.223-.063-.117.021-.213.128-.371.087a.575.575,0,0,1,.4-.343c.25-.063.5-.111.749-.191.2-.067.238-.2.06-.346-.063-.053-.2-.052-.155-.184s.16-.107.262-.109a1.23,1.23,0,0,0,.647-.16c.126-.079.23-.205.014-.3-.254-.11-.1-.243.007-.266.311-.067.526-.467.913-.269.016.008.079-.027.079-.042,0-.356.255-.2.465-.2-.181-.088-.188-.175-.06-.273.37-.283.652-.714,1.2-.7.089,0,.244-.074.212-.176-.047-.15-.188-.054-.292-.029a3.523,3.523,0,0,0-1.248.648c-.217.159-.41-.014-.614.092-.526.274-1.073.508-1.614.753-.076.035-.187.153-.238.06-.15-.275-.49-.252-.675-.475.019-.023.035-.062.06-.07.236-.079.266-.274.241-.471a.312.312,0,0,0-.295-.245c-.218-.031-.309.14-.362.3-.064.193-.242.23-.371.333-.073.059-.175.13-.276.038s-.028-.161,0-.249c.041-.129.084-.356-.035-.369-.307-.032-.376-.188-.374-.447,0-.032-.051-.083-.088-.093-.29-.085-.127-.252-.047-.36a.849.849,0,0,1,1.129-.169c-.006-.169-.032-.317-.227-.367-.081-.021-.185-.11-.086-.154.227-.1.334-.333.54-.44a4.408,4.408,0,0,1,1.735-.638.384.384,0,0,0,.38-.375c0-.07.042-.218.114-.137.183.207.176,0,.236-.077a1.012,1.012,0,0,0,.272-.6c.2.284.324.282.67.026.056-.041.119-.081.1-.161s-.1-.09-.163-.1a2.163,2.163,0,0,0-.8.113c-.183.037-.2.1-.128.25.032.072.139.18.023.237s-.178-.068-.22-.16a.337.337,0,0,0-.471-.193,3.342,3.342,0,0,1-1.672.264c-.316-.065-.681.09-.973-.166-.074.128.132.248-.052.3a2.433,2.433,0,0,1-.6.09c-.152,0-.218-.1-.246-.288-.04-.268.062-.516.03-.781-.022-.176.206-.255.349-.327s.145.07.16.169a.107.107,0,0,0,.12.1c.088-.007.038-.1.066-.129.129-.157-.071-.466.154-.518.472-.109.742-.539,1.206-.665.4-.107.463-.111.487.3,0,.078-.075.221.065.221a.765.765,0,0,0,.589-.225c.12-.128.247-.245.161-.445-.025-.058-.1-.118-.018-.177a.307.307,0,0,1,.264-.015c.092.024.037.114.046.175.02.144-.085.285,0,.433a.877.877,0,0,0,1.3.172c.062-.06.13-.273.256-.014.06.123.217-.036.336-.033a.063.063,0,0,0,.048-.1c-.056-.09-.154-.08-.244-.09a2.684,2.684,0,0,0-.439-.049c-.168.011-.217-.09-.269-.206-.064-.142.046-.173.138-.221a.377.377,0,0,0,.169-.247c.174-.551.08-.721-.467-.875-.147-.041-.348-.074-.318-.287a.309.309,0,0,1,.394-.241,1.264,1.264,0,0,0,.961-.272c.374-.255.85-.48.764-1.081a.356.356,0,0,1,.1-.279.607.607,0,0,1,.654-.259c.293.067.641.224.879.128a1.778,1.778,0,0,1,1.2-.114.775.775,0,0,0,.554-.076,4.506,4.506,0,0,1,1.936-.564.236.236,0,0,0,.251-.183.49.49,0,0,1,.478-.325c.333-.007.664-.165,1-.01.049.022.137,0,.165-.119-.4-.11-.765-.416-1.215-.133a.215.215,0,0,1-.282-.035.08.08,0,0,1,0-.121c.317-.18.118-.413.055-.62-.028-.093.044-.28-.132-.266s-.422.107-.426.283a1.61,1.61,0,0,1-.47.956c-.225.291-.406.672-.876.673a.7.7,0,0,0-.635.316.283.283,0,0,1-.427.033c-.135-.148.055-.23.134-.329.023-.029.087-.037.05-.109-.77.265-1.514.378-2.058-.433.014.359-.127.5-.513.563-.239.042-.5.078-.623.351-.019.042-.086.063-.133.092-.424.256-.942.137-1.381.347-.081.039-.251.067-.295-.067-.032-.1.08-.186.166-.236a7.039,7.039,0,0,0,1.138-.769,3.52,3.52,0,0,0,1.112-1.2.5.5,0,0,1,.668-.307c.2.075.317,0,.36-.223a3.751,3.751,0,0,1,.294-.8,2.418,2.418,0,0,1,.784-1.225.132.132,0,0,0-.151-.218,1,1,0,0,1-.5.06c-.075,0-.17.05-.22-.037s.01-.173.073-.242a2.653,2.653,0,0,0,.463-.875A1.907,1.907,0,0,1,9,31.316a1,1,0,0,0,.4-.646c.049-.295.22-.364.5-.224a2.055,2.055,0,0,1,.488.235c.15.131.317.057.322-.122a.3.3,0,0,1,.253-.308c.4-.127.806-.3,1.229.064a.683.683,0,0,1,.079-.677c-.339.108-.583-.041-.914-.127.081-.049.11-.081.137-.08a.314.314,0,0,0,.351-.407c-.077-.2-.339-.162-.54-.074a2.3,2.3,0,0,1-.757.2,20.875,20.875,0,0,0-2.867.324c-.168.036-.281-.085-.348-.224a.612.612,0,0,1-.106-.461c-.1.176.033.489-.267.492s-.555.226-.912.1-.4-.045-.328-.473c.14-.053.13.179.258.146a.911.911,0,0,1,0-.278c.068-.2.027-.481.363-.483.068,0,.179.179.218-.052.018-.108.09-.173-.039-.272-.113-.087-.216-.236.026-.33.071-.028.11-.1.05-.163-.074-.083-.109.016-.163.045a1.186,1.186,0,0,0-.468.652.506.506,0,0,1-.386.293c-.189.046-.446-.294-.587.1L4.9,28.524a.554.554,0,0,1-.367-.509c.025-.249.011-.59.412-.625A.757.757,0,0,0,5.2,27.3c.065-.032.11-.1.054-.167s-.135-.157-.187-.055a.545.545,0,0,1-.435.246c-.247,0-.461.2-.712.1-.224-.086-.5-.1-.552-.416a.139.139,0,0,0-.173-.078,1.254,1.254,0,0,1-.884-.037c.17-.461.334-.589.645-.5.086.025.181.092.248-.006.108-.159-.089-.134-.135-.2s-.095-.127-.084-.179c.041-.2-.115-.2-.222-.227-.2-.059-.206-.053-.171-.271.018-.112-.062-.058-.105-.065-.188-.032-.253-.182-.289-.334a.163.163,0,0,1,.163-.185c.339-.028.634-.345,1.008-.153a.1.1,0,0,0,.143-.051c-.063-.126-.24-.256-.14-.388s.312-.091.472-.054a1.577,1.577,0,0,0,.431.092.488.488,0,0,0,.407-.272c.078-.143-.043-.256-.162-.334-.16-.1-.071-.271-.113-.4-.119-.371.215-.7.088-1.07-.031-.092.12-.116.209-.125a5.16,5.16,0,0,1,1.12-.16c.36.035.745-.156,1.136-.1a.129.129,0,0,0,.155-.1c.017-.1-.076-.129-.143-.166-.282-.158-.329-.4-.06-.576.195-.126.087-.256.087-.378,0-.174-.172-.113-.267-.134a2.842,2.842,0,0,0-.466-.076c-.353-.017-.725-.158-1.039.194-.281.315-.717.207-1.077.212-.179,0-.3-.306-.438-.483-.041-.053-.076-.147-.122-.153-.361-.041-.31-.289-.283-.529.016-.139-.02-.3-.178-.248-.264.092-.522-.041-.772.032a.478.478,0,0,1-.539-.208c.149-.078.351-.085.367-.28.02-.236.15-.158.284-.133.179.035.365.163.532-.043.145-.179.314-.124.528-.116.339.012.639-.021.9.255.045.049.229-.037.2.134-.017.109-.124.124-.22.093a.157.157,0,0,0-.221.1c-.042.1.015.154.1.176.155.039.036.205.144.289.063-.229.29-.146.436-.255-.12-.166-.241-.343.03-.447-.189-.22-.518-.365-.349-.771.06-.144-.055-.129-.157-.115-.138.019-.311.1-.391-.076a.973.973,0,0,1-.11-.484c.013-.121.228-.069.316-.161.052-.055.159-.034.178-.13-.254-.143-.261-.144-.223-.448a.592.592,0,0,0-.462-.758c.087.236.023.362-.195.49-.122.072-.441.206-.247.518.078.125-.136.259-.054.4.057.1.085.191-.009.275s-.21.045-.317-.007-.2-.115-.168-.258a5.023,5.023,0,0,1,.482-1.426c.057-.1.038-.149-.057-.184-.256-.093-.175-.232-.1-.424.109-.283.4-.321.57-.516.129-.152.215-.119.319.024a.709.709,0,0,0,.488.327c.261.04.283.219.143.42a.751.751,0,0,1-.323.295c.3.1.439,0,.446-.256a.617.617,0,0,1,.539-.685c-.33-.208-.389-.3-.32-.433a.67.67,0,0,1,.8-.254,1.327,1.327,0,0,0,1.045.172.575.575,0,0,1,.337.011,7.2,7.2,0,0,0,1.228.146c.232.04.493.173.661-.134.025-.045.078-.015.122-.015.451,0,.625.453.983.6.021.009.034.094.017.127-.119.231.1.384.156.559.054.158.284.246.487.256s.188-.159.247-.276a2.857,2.857,0,0,0,.256-.668c.024-.105.068-.209.193-.2.411.013.842-.1,1.2.249.14.139.4.327.532.24.3-.205.591-.119.892-.159a.583.583,0,0,1,.668.292,2.939,2.939,0,0,0,.252.32c.08.091.173.14.313,0-.818-.423-.339-.922-.1-1.411a.487.487,0,0,0,.415.1.8.8,0,0,0-.976-.058c-.1.072-.121.033-.17-.058-.2-.38-.2-.365.186-.579.165-.091.366-.166.457-.344a.625.625,0,0,1,.463-.3c.308-.042.357-.173.327-.431a.258.258,0,0,1,.135-.257c.1-.052.136.039.181.1s.111.062.182.039c.281-.09.561-.183.844-.264s.415-.23.352-.521a.2.2,0,0,1,.111-.227c.322-.208.283-.668.613-.871.032-.02.029-.106.032-.162.017-.321.151-.14.259-.053.061-.175-.015-.222-.173-.249-.288-.05-.46.161-.68.266-.119.057-.245.2-.368.106s.038-.243.046-.37a.437.437,0,0,0-.031-.1c-.505.231-.784.77-1.318.955-.006-.252.175-.318.351-.4.111-.053.245-.152.17-.289s-.167.02-.252.043c-.055.015-.128,0-.164.037-.285.266-.383.153-.356-.264-.461.443-.941.267-1.411.2-.051-.007-.125-.035-.143-.073-.1-.227-.321-.278-.519-.354s-.377-.139-.4-.452c-.015-.228-.047-.326.2-.36.1-.014.129-.114.151-.208a.368.368,0,0,1,.13-.231c.474-.358.94-.738,1.65-.385-.15-.217-.207-.34.068-.31a4.078,4.078,0,0,0,.44,0c-.235-.155-.46-.3-.683-.449-.085-.056-.053-.153.008-.15.262.013.429-.281.734-.181a.747.747,0,0,0,.544-.108c.094-.057.017-.255-.031-.384-.038-.1-.135-.149-.223-.2a.673.673,0,0,1-.267-.77.184.184,0,0,1,.083-.094c.049-.02.085.02.1.068.077.322.249.177.445.1a1.279,1.279,0,0,1-.394-.263c-.125-.138-.321-.321-.191-.453.218-.221.105-.468.156-.7.383.22.448.18.687-.161A3.871,3.871,0,0,0,17.3,3.417c.08-.227.177-.3.389-.241s.485.142.665.034a1.837,1.837,0,0,1,.561-.152c.29-.077.642-.094.612-.56a.274.274,0,0,1,.333-.262c.134.048.439.042.342.352-.027.087-.028.2.079.146.238-.129.274.109.406.17.189.087.181.232.14.473.189-.322.361-.537-.017-.751-.192-.108-.1-.426.123-.5.062-.022.134,0,.19-.056.074-.08.1-.227.235-.227.17,0,.016.242.192.269.093-.183.185-.375.455-.275.028.011.089-.055.13-.091.443-.387.541-.355.7.214a.561.561,0,0,1,0,.43c-.045.09-.06.2.033.244.339.144.382.519.613.75a.5.5,0,0,1-.13.711.889.889,0,0,0-.487.549c.122.011.243-.155.346.006.089.141.02.253-.076.367a1.348,1.348,0,0,1-.3.273.636.636,0,0,0-.3.478c.086-.035.175-.041.207-.087a3.8,3.8,0,0,1,.786-.791c.082-.066.237-.217,0-.342a.187.187,0,0,1-.053-.272.256.256,0,0,1,.222-.134c.114-.006.174.111.322.147-.17-.181-.2-.336-.088-.5a.289.289,0,0,0,0-.351,3.094,3.094,0,0,0-.447-.639c-.222-.2-.17-.38-.109-.606.057-.211.213-.407.16-.633s.056-.218.227-.252c.347-.069.784.14,1.008-.365.094-.212.148-.449-.068-.627-.08-.066-.183-.133-.111-.248.055-.087.158-.065.25-.033.395.138.788.28,1.187.408a.472.472,0,0,1,.356.37c.032.143.072.314.207.379.414.2.834.386,1.265.541.2.073.423.126.454.352s-.193.343-.37.441c-.417.233-.839.457-1.261.681-.5.263-.662.788-.955,1.212-.023.034.011.107.019.166a.809.809,0,0,1,.886.048.631.631,0,0,0,.885-.456c.011-.091,0-.194.066-.259a1.563,1.563,0,0,0,.372-1c.03-.264.083-.338.315-.152.442.353.96.18,1.451.187.084,0,.124-.088.177-.147a1.079,1.079,0,0,1,.761-.375,1.056,1.056,0,0,0,.837-.37c.158-.192.355-.323.613-.1a.4.4,0,0,0,.388.079c.417-.212.731.03,1.033.227a.619.619,0,0,0,.755.015c.094-.062.186-.158.307-.083a2.039,2.039,0,0,1,.552.39c.161.205.443.405.372.7a4.247,4.247,0,0,1-.163.864c-.1.214-.11.4.249.348.343-.045.443.1.374.454A.967.967,0,0,1,35.9,5.2a.291.291,0,0,0,.166.461.98.98,0,0,1,.514.607c.151.385.5.63.7.978.041.07.114.064.184.047.295-.07.45.114.564.333a1.053,1.053,0,0,1-.58,1.6c-.611.215-1.2.748-.968,1.427a4.105,4.105,0,0,1,.831-.679.822.822,0,0,1,.706-.117.712.712,0,0,0,.5-.021.692.692,0,0,1,.944.571,1.177,1.177,0,0,0,.261.687.827.827,0,0,1,.138.437c.04.3,0,.655.364.818M38.36,13.979c.425-.043.554-.149.655-.53a.442.442,0,0,1,.151-.261.441.441,0,0,0,.164-.387,1.437,1.437,0,0,0-.858-1.446c-.088-.045-.181-.22-.282-.084s-.15.354-.056.466a1.724,1.724,0,0,1,.3.5,1.816,1.816,0,0,1-.071,1.741" transform="translate(-0.001 -0.001)" fill="#3fc0c8"/>
        <path id="Path_47409" data-name="Path 47409" d="M75.663,443.554c.231.2.577.11.876.226.089.035.174.066.126.192-.021.055-.027.126.036.146.142.043.243.112.126.255-.1.12-.2,0-.3-.048-.326-.154-.656-.3-.982-.455-.084-.04-.234-.04-.212-.175s.167-.122.326-.14" transform="translate(-70.176 -413.182)" fill="#3fc0c8"/>
      </g>
    </g>
  </g>
</svg>
