<svg id="Group_14797" data-name="Group 14797" xmlns="http://www.w3.org/2000/svg" xmlns:xlink="http://www.w3.org/1999/xlink" width="23.508" height="60.864" viewBox="0 0 23.508 60.864">
  <defs>
    <clipPath id="clip-path">
      <rect id="Rectangle_3367" data-name="Rectangle 3367" width="23.508" height="60.864" fill="#3fc0c8"/>
    </clipPath>
  </defs>
  <g id="Group_14796" data-name="Group 14796" clip-path="url(#clip-path)">
    <path id="Path_47762" data-name="Path 47762" d="M7.112,59.75c.019-.2.036-.4.058-.6a2.509,2.509,0,0,0-.11-1.227,5.991,5.991,0,0,1-.223-1.188,16.319,16.319,0,0,0-.64-2.3,5.868,5.868,0,0,1-.367-1.644,1.48,1.48,0,0,0-.075-.439c-.487-1.365-.662-2.817-1.174-4.174a3.1,3.1,0,0,1-.117-.5A1.767,1.767,0,0,0,3.82,46.6a.793.793,0,0,1-.312-1.052.845.845,0,0,0-.143-.875,1.057,1.057,0,0,1-.174-1.05,1.643,1.643,0,0,0-.067-.911C2.7,40.888,2.047,39.131,1.48,37.348A13.746,13.746,0,0,1,.84,34.653,12.584,12.584,0,0,0,.1,31.885a.942.942,0,0,1,.3-1.212c.811-.61,1.482-1.372,2.228-2.052a4.233,4.233,0,0,0,.889-1.076A15.719,15.719,0,0,1,4.684,25.8a10.485,10.485,0,0,0,1.684-2.985,2.589,2.589,0,0,1,.723-1.187.5.5,0,0,0,.172-.458,1.154,1.154,0,0,1,.236-.84,4.8,4.8,0,0,0,.619-1.359q.472-1.484.962-2.962a1.446,1.446,0,0,1,.178-.372.929.929,0,0,0,.193-.973c-.08-.187.043-.4.131-.578a3.053,3.053,0,0,0,.427-1.548.782.782,0,0,1,.14-.451,2.339,2.339,0,0,0,.349-1.144,3.2,3.2,0,0,1,.217-.9,2.552,2.552,0,0,0,.16-.861,4.088,4.088,0,0,1,.3-1.165c.075-.207.275-.236.484-.135a.557.557,0,0,0,.813-.152,1.361,1.361,0,0,0,.419-1.275,1.856,1.856,0,0,1,.2-1.237,2.484,2.484,0,0,0,.316-1.092c.011-.354.179-.481.542-.476.106,0,.211.035.316.033.551-.011,1.1,0,1.651-.055.38-.04.482-.036.661.312a.756.756,0,0,0,1.221.282,2.176,2.176,0,0,1,.63-.361,1.119,1.119,0,0,0,.7-1.02A5.178,5.178,0,0,1,19.382,1.5a1.174,1.174,0,0,1,.289-.453c.174-.152.355-.175.476.052.134.249.288.225.452.059a1.032,1.032,0,0,1,.658-.329.814.814,0,0,0,.619-.447.353.353,0,0,1,.342-.232.507.507,0,0,0,.219-.029c.195-.106.368-.218.549.036.307.431.33.577.089.912-.279.388-.275.476.037.854a.869.869,0,0,1,.077,1.065c-.011.018-.023.036-.035.053-.5.748-.5.749.11,1.441a.936.936,0,0,1,.218.862,7.025,7.025,0,0,0-.111,1.267,3.335,3.335,0,0,1-1.226,2.687.615.615,0,0,0-.235.332.561.561,0,0,1-.647.439c-.3-.012-.562.025-.628.389-.007.037-.043.092-.074.1-.462.091-.648.568-1.048.742-.195.085-.234.206-.138.407a1.725,1.725,0,0,1,.018,1.5.79.79,0,0,0-.094.4,3.625,3.625,0,0,1-.278,1.457c-.026.084-.061.172-.008.245.186.257.07.52.061.793a7.273,7.273,0,0,0,.014,1.39,1.275,1.275,0,0,1,0,.571,9.192,9.192,0,0,1-.369,1.29,1.046,1.046,0,0,0-.131.723.532.532,0,0,1-.117.447,1.044,1.044,0,0,0-.078,1.264.75.75,0,0,1-.066.95.4.4,0,0,0-.039.5c.214.424.04.856.031,1.283,0,.19-.206.283-.377.355a2,2,0,0,0-1.316,1.589,1.864,1.864,0,0,1-.353.708,1.1,1.1,0,0,0-.241.924.478.478,0,0,1-.068.369,1.674,1.674,0,0,0-.158,1.084,1.479,1.479,0,0,1-.184.916c-.181.32,0,.678.014,1.019,0,.061.074.128.06.178-.171.628.2,1.277-.075,1.9-.047.109-.069.239-.222.228-.289-.02-.291.176-.253.358a11.067,11.067,0,0,0,.279,1.113,1.343,1.343,0,0,1-.268,1.453.434.434,0,0,0-.086.133c-.062.15-.135.338.044.425s.249-.107.3-.239A2.2,2.2,0,0,1,16,36.206c.054-.048.115-.118.193-.061s.046.138.021.206a1.215,1.215,0,0,1-.261.507.835.835,0,0,0-.241.756c.013.137.011.276.01.415a.484.484,0,0,1-.389.516.587.587,0,0,0-.455.44,2.267,2.267,0,0,0-.159.549,1.755,1.755,0,0,1-.573,1.238.635.635,0,0,0-.209.486,2.005,2.005,0,0,1-.515,1.267,5.224,5.224,0,0,0-1.02,2.3,1.582,1.582,0,0,1-.275.738A1.124,1.124,0,0,0,12.062,47a.615.615,0,0,1-.053.821,1.191,1.191,0,0,0-.288.694.8.8,0,0,1-.082.338,1.444,1.444,0,0,0-.04,1.376,1.369,1.369,0,0,1-.394,1.672,1.514,1.514,0,0,0-.551,1.143.772.772,0,0,1-.238.577.792.792,0,0,0-.25.814,3.073,3.073,0,0,1-.515,2.275A2.663,2.663,0,0,0,9.3,57.982a2.781,2.781,0,0,1-.338,1.11,1.511,1.511,0,0,0-.208.814c.017.228-.06.357-.315.373-.307.02-.5.268-.729.433-.349.251-.464.2-.524-.23a5.34,5.34,0,0,1-.073-.732" transform="translate(-0.001 0)" fill="#3fc0c8"/>
  </g>
</svg>
