<svg id="Group_14793" data-name="Group 14793" xmlns="http://www.w3.org/2000/svg" xmlns:xlink="http://www.w3.org/1999/xlink" width="54.609" height="65.048" viewBox="0 0 54.609 65.048">
  <defs>
    <clipPath id="clip-path">
      <rect id="Rectangle_3365" data-name="Rectangle 3365" width="54.609" height="65.048" fill="#3fc0c8"/>
    </clipPath>
  </defs>
  <g id="Group_14792" data-name="Group 14792" clip-path="url(#clip-path)">
    <path id="Path_47755" data-name="Path 47755" d="M10.714,7.411c.141-.061.191-.148.157-.222-.359-.8.051-1.327.59-1.847a1.289,1.289,0,0,0,.484-1.326c-.084-.308-.038-.618.355-.694a.605.605,0,0,1,.766.566,1.293,1.293,0,0,0,.229.6c.119.191.306.245.453.073.222-.26.528-.259.81-.327a.561.561,0,0,1,.774.41c.054.2.218.314.356.459-.277-.344-.169-.791-.364-1.173a.942.942,0,0,1,.535-1.143c.247-.094.484-.163.615.172a.386.386,0,0,0,.266.208.221.221,0,0,0,.234-.029c.084-.08,0-.137-.031-.211a1.73,1.73,0,0,1,.22-1.478,1.282,1.282,0,0,1,1.364.013.966.966,0,0,0,.528.342c.33.043.554,0,.687-.377C20,.709,20.329.6,21.111.564A6.434,6.434,0,0,0,24.2.1a.469.469,0,0,1,.638.043c.156.2-.019.361-.161.51a.328.328,0,0,0,.079.547,1.233,1.233,0,0,1,.7.846,1.067,1.067,0,0,0,.924.644c.9.2,1.808.368,2.707.573a4.329,4.329,0,0,0,.79,0,4.073,4.073,0,0,1,1.184.355c.284.1.268.465-.019.67s-.586.369-.855.584c-.24.193-.282.393.062.563.9.444.893.451.256,1.231a.528.528,0,0,0-.046.126c.146.1.407,0,.491.218.078.2-.03.392-.071.582a3.851,3.851,0,0,0-.1.685.787.787,0,0,1-1.235.751c-.223-.109-.439-.146-.585.046a1.1,1.1,0,0,1-.873.37c-.372.042-.632.349-.964.495a10.209,10.209,0,0,1-.957.416,1.2,1.2,0,0,0-.952,1.127,1.6,1.6,0,0,0,.669,1.559c.2.129.447.223.3.525-.182.37-.234.934-.783.9-.532-.032-.554.293-.456.575.226.65.164,1.334.338,1.992a3.557,3.557,0,0,0,2.081,2.408,10.083,10.083,0,0,1,1.884,1.448,2.447,2.447,0,0,0,1.324.707c.293.025.49.343.609.656.557,1.469,1.106,2.937,1.543,4.451A4.263,4.263,0,0,0,34.5,29.088a5.26,5.26,0,0,1,.751.789,1.753,1.753,0,0,0,.512.382.968.968,0,0,1,.632.627c.1.318.488.415.8.522a1.476,1.476,0,0,1,.511.178A3.069,3.069,0,0,0,40.022,32c.755-.05,1.51-.115,2.261-.233a.756.756,0,0,1,.85.54.686.686,0,0,1-.311.933c-.167.105-.3.261-.472.362a.673.673,0,0,0,.014,1.249c1,.508,2.034.962,3.07,1.4a13.868,13.868,0,0,1,2.882,1.187c.214.154.411.332.616.5a8.35,8.35,0,0,0,2.585,1.2.876.876,0,0,1,.648.553.967.967,0,0,0,.517.579,4.06,4.06,0,0,1,1.884,2.081.521.521,0,0,1-.062.516,2.207,2.207,0,0,0-.352,1.366c.025.341-.125.506-.491.338a4.987,4.987,0,0,1-.964-.376,1.409,1.409,0,0,1-.672-1.275,1.465,1.465,0,0,0-1.634-1.2,3.261,3.261,0,0,1-2.064-.546,1,1,0,0,1-.372-.409c-.157-.484-.408-.237-.616-.117A3.359,3.359,0,0,0,46.2,42.293a2.24,2.24,0,0,1-.289.571.844.844,0,0,0-.228.989c.094.239-.082.419-.228.568a1.038,1.038,0,0,0-.074,1.307.532.532,0,0,0,.559.253,1.086,1.086,0,0,1,.958.4c.319.353.84.43,1.189.783.168.17.285.273.218.527-.13.5.187.993.023,1.5a.311.311,0,0,0,.119.261c.441.3.138.61.016.895-.153.36-.478.222-.735.162a1.728,1.728,0,0,0-1.986,1.824c.037.212.059.426.091.639a1.167,1.167,0,0,1-.732,1.4A2.138,2.138,0,0,0,43.9,56.015c-.143.8-.337.977-1.143.967a1.061,1.061,0,0,0-.248.007c-.928.215-1.33-.31-1.263-1.244a1.1,1.1,0,0,0-.164-.7,12.465,12.465,0,0,1-1.546,2.746,1.542,1.542,0,0,0-.151.462,2.981,2.981,0,0,1-.433,1.3.983.983,0,0,0,.354,1.37c.205.127.473.28.155.562-.117.1-.049.163.02.24.1.111.195.224.289.339.312.381.286.68-.1.95a1.3,1.3,0,0,0-.61,1.573c.044.139.107.289-.061.4a.379.379,0,0,1-.411,0,1.72,1.72,0,0,0-1.263-.261c-.2.061-.411-.076-.615-.148a2.581,2.581,0,0,1-1.512-1.407,1.682,1.682,0,0,0-1.923-.913,1.628,1.628,0,0,1-1.337-.493c-.536-.472-1.2-.673-1.755-1.085a2.6,2.6,0,0,1-.633-.549c-.056-.08-.129-.2-.2-.208-.8-.088-1.374-1.016-2.305-.639-.071.029-.209.038-.238,0-.291-.4-.842-.54-1.037-1a1.681,1.681,0,0,1-.018-1.41,1.555,1.555,0,0,1,.885-.966c.132-.052.356-.126.382-.347.011-.094-.026-.222.115-.233a.3.3,0,0,1,.3.223,1.3,1.3,0,0,0,.338.542.56.56,0,0,0,.912-.321c.053-.36.193-.558.586-.46.032.008.075.024.1.011.549-.331.924-.217,1.1.425,0,.014.027.035.035.033.624-.188.747.5,1.165.67.279.114.57.272.852.086a2.691,2.691,0,0,1,1.767-.21,3.389,3.389,0,0,0,2.531-.747,1.2,1.2,0,0,1,1.317-.192c.79.394,1.051.04,1.177-.668.456.566.83.217,1.2-.083a.508.508,0,0,1,.591-.057c.7.287.862.2,1.123-.539.061-.171.14-.336.215-.5a.6.6,0,0,0-.139-.8c-.318-.262-.209-.5.092-.661.257-.135.49-.354.819-.318a.508.508,0,0,0,.6-.331.805.805,0,0,0-.063-.892,2.76,2.76,0,0,1-.683-1.813,3.066,3.066,0,0,0-.781-1.888,3.87,3.87,0,0,1-.694-1.988A2.232,2.232,0,0,0,40.9,43.7c-.243-.248-.466-.134-.692.064a.681.681,0,0,1-1.14-.155,1.322,1.322,0,0,0-.888-.638c-.754-.123-.921-.54-.559-1.213.178-.331-.574-1.783-.944-1.806-.072,0-.149.055-.223.088-.54.246-1.169.149-1.7.453-.136.079-.215-.05-.2-.186a.412.412,0,0,1,.106-.218c.164-.173.514-.277.433-.539-.061-.2-.352-.325-.536-.489-.091-.081-.191-.169-.306-.088-.345.243-.841.118-1.165.606-.035-.442.235-.759.036-1.056a12.939,12.939,0,0,0-1.186-1.874c-.226-.238-.491-.41-.81-.108-.237.225-.462.026-.625-.09a1.227,1.227,0,0,0-1.634.007c-.175.138-.382.108-.444-.111-.244-.862-1.021-.956-1.691-1.18a.717.717,0,0,1-.452-.327,3.412,3.412,0,0,0-1.452-1.454.433.433,0,0,1-.254-.344c-.146-.893-.811-1.261-1.56-1.542-.408-.153-.528-.545-.659-.881a2.394,2.394,0,0,0-1.853-1.486c-.175-.041-.337-.085-.487.106-.2.248-.4.078-.543-.08-.185-.2-.086-.358.139-.46.279-.125.253-.269.079-.5a8.521,8.521,0,0,1-.82-1.033.862.862,0,0,0-.631-.354c-.273-.062-.537-.147-.324-.532a.344.344,0,0,0-.092-.451.59.59,0,0,0-.69-.112c-.126.067-.239.124-.356,0a.339.339,0,0,1-.065-.415,2.347,2.347,0,0,0-.4-2.642,3.379,3.379,0,0,1-.49-1.825,2.684,2.684,0,0,0-.374-1.421,1.477,1.477,0,0,0-1.256-.673.991.991,0,0,1-.691-.267c-.593-.468-1.244-.86-1.8-1.382-.036-.034-.083-.079-.124-.079-.811,0-1.412-.642-2.2-.706a2.2,2.2,0,0,0-1.521.95.784.784,0,0,1-.557.573.727.727,0,0,0-.518.55,1.858,1.858,0,0,1-1.237,1.256c-.425.138-.856.26-1.286.383a.651.651,0,0,1-.725-.311c-.19-.244-.08-.457.065-.679a3.1,3.1,0,0,1,.483-.493c.148-.145.3-.328.187-.57-.129-.267-.36-.209-.56-.129a1.085,1.085,0,0,1-1.129-.16c-.424-.339-1.014-.436-1.353-.85a2.22,2.22,0,0,1,.189-2.774c.329-.383.251-.57-.19-.807-.36-.193-.83-.342-.723-.924.02-.108-.069-.172-.146-.242-.209-.188-.467-.409-.337-.7a.714.714,0,0,1,.819-.335c.506.1.817-.292,1.239-.394.28-.068.329-.95.08-1.177a1.174,1.174,0,0,1-.423-.913c0-.218-.141-.317-.3-.414a.855.855,0,0,1-.374-.862c.018-.355.3-.445.579-.516a.655.655,0,0,0,.378-.223c.076-.1.172-.19.292-.141A2.548,2.548,0,0,0,4.439,6.2a.74.74,0,0,1,.7.117.987.987,0,0,0,1.312-.487.585.585,0,0,1,.257-.28c.255-.171.511-.349.217-.71a.252.252,0,0,1,.128-.408,2.056,2.056,0,0,0,.839-.746.591.591,0,0,1,.673-.2c.293.09.214.38.186.6A1.415,1.415,0,0,0,9.85,5.7c.184.05.42.147.386.328-.111.582.455.871.478,1.384" transform="translate(0 0)" fill="#3fc0c8"/>
    <path id="Path_47756" data-name="Path 47756" d="M59.162,358.822c.15-.153-.029-.481.231-.463a.758.758,0,0,1,.6.513c.078.391.617.616.374,1.111-.051.1.129.17.232.217.217.1.346.2.019.33-.068.028-.119.1-.058.154.084.073.214.181.292.16.477-.131.4.246.313.411-.32.608.046,1.123.208,1.636a1.153,1.153,0,0,1-.25,1.38c-.691.725-.7.811-.171,1.647a.338.338,0,0,1,.067.276c-.287,1.213-.372,2.454-.54,3.684a16.106,16.106,0,0,1-.395,1.847c-.074.283-.233.525-.613.322-.145-.077-.331-.108-.42-.25-.376-.6-.928-.273-1.4-.252-.193.008-.29.278-.222.489.152.471-.106.736-.426,1.011s-.618.52-1.03.152a.238.238,0,0,0-.228-.016c-.422.379-.5.114-.554-.269a2.1,2.1,0,0,0-.159-.411c-.043-.116-.1-.217-.242-.207-.122.009-.146.115-.171.213-.032.129-.055.28-.228.277s-.2-.15-.253-.27c-.109-.246-.128-.548-.5-.6-.141-.021-.2-.218-.2-.37,0-.135.124-.188.238-.22.187-.052.283.044.316.217.027.139.11.225.242.175.184-.07.028-.19.009-.287-.015-.08-.095-.183-.067-.23.379-.65-.169-1.472.421-2.1.207-.222,0-.612.05-.923.027-.174-.07-.4.285-.393.238,0,.237-.281.212-.478s-.137-.259-.313-.132c-.149.108-.21-.024-.274-.109a.907.907,0,0,1,.207-1.114c.04-.027.112-.068.108-.093-.075-.448.166-.963-.076-1.328a1.039,1.039,0,0,1-.239-.78c.037-.268-.205-.446-.26-.685-.087-.378-.374-.165-.567-.193-.162-.024-.31-.113-.251-.225.247-.463-.13-1.008.222-1.45a.59.59,0,0,0,.087-.514,1.473,1.473,0,0,1,.464-1.2.21.21,0,0,1,.346-.005.236.236,0,0,1-.074.381.661.661,0,0,0-.37.772c.046.322.376.348.643.452a.876.876,0,0,0,1.114-.225.218.218,0,0,1,.122-.081c.771-.071,1.033-.795,1.539-1.2a.8.8,0,0,1,.425-.225.357.357,0,0,0,.311-.215c.255-.582.279-.59.855-.3" transform="translate(-48.118 -322.698)" fill="#3fc0c8"/>
    <path id="Path_47757" data-name="Path 47757" d="M150.6,262.748c-.131,0-.247.009-.361,0a.329.329,0,0,1-.323-.363c0-.2.15-.278.333-.291a1.613,1.613,0,0,0,1.063-.249.142.142,0,0,1,.136-.01c.259.256.066.555.06.833-.006.243-.193.243-.355.145a.691.691,0,0,0-.553-.063" transform="translate(-134.994 -235.766)" fill="#3fc0c8"/>
  </g>
</svg>
