<?xml version="1.0" encoding="utf-8"?>
<!-- Generator: Adobe Illustrator 19.0.0, SVG Export Plug-In . SVG Version: 6.00 Build 0)  -->
<svg version="1.1" id="Layer_1" xmlns="http://www.w3.org/2000/svg" xmlns:xlink="http://www.w3.org/1999/xlink" x="0px" y="0px"
	 viewBox="-92.1 111.4 19.7 19.7" style="enable-background:new -92.1 111.4 19.7 19.7;" xml:space="preserve">
<style type="text/css">
	.st0{fill:#00B6C4;}
</style>
<g id="Group_14690" transform="translate(13.471 -12.738)">
	<g id="Group_14681" transform="translate(-12 12)">
		<g id="Group_14685">
			<path id="Icon_metro-link" class="st0" d="M-85.2,124.4c-0.3,0-0.5-0.1-0.7-0.3c-1.9-1.9-1.9-4.9,0-6.8l3.8-3.8
				c1.9-1.9,4.9-1.9,6.8,0s1.9,4.9,0,6.8l0,0l-1.7,1.7c-0.4,0.4-1,0.4-1.4,0s-0.4-1,0-1.4c0,0,0,0,0,0l1.7-1.7c1-1.1,1-2.9-0.1-3.9
				c-1.1-1-2.7-1-3.8,0l-3.8,3.8c-1.1,1.1-1.1,2.8,0,3.9c0.4,0.4,0.4,1,0,1.4C-84.6,124.3-84.9,124.4-85.2,124.4L-85.2,124.4z
				 M-88.8,131.9c-2.7,0-4.8-2.2-4.8-4.8c0-1.3,0.5-2.5,1.4-3.4l1.7-1.7c0.4-0.4,1.1-0.3,1.4,0.1c0.3,0.4,0.3,1,0,1.4l-1.7,1.7
				c-1,1.1-1,2.9,0.1,3.9c1.1,1,2.7,1,3.8,0l3.8-3.8c1.1-1.1,1.1-2.8,0-3.9c-0.4-0.4-0.4-1.1,0-1.5c0.4-0.4,1.1-0.4,1.5,0
				c1.9,1.9,1.9,4.9,0,6.8l-3.8,3.8C-86.3,131.4-87.5,131.9-88.8,131.9z"/>
		</g>
	</g>
</g>
</svg>
