<svg xmlns="http://www.w3.org/2000/svg" width="20.119" height="16.347" viewBox="0 0 20.119 16.347">
  <path id="Icon_awesome-list-ul" data-name="Icon awesome-list-ul" d="M1.886,3.375A1.886,1.886,0,1,0,3.772,5.261,1.886,1.886,0,0,0,1.886,3.375Zm0,6.287a1.886,1.886,0,1,0,1.886,1.886A1.886,1.886,0,0,0,1.886,9.662Zm0,6.287a1.886,1.886,0,1,0,1.886,1.886A1.886,1.886,0,0,0,1.886,15.95Zm17.6.629H6.916a.629.629,0,0,0-.629.629v1.257a.629.629,0,0,0,.629.629H19.491a.629.629,0,0,0,.629-.629V17.207A.629.629,0,0,0,19.491,16.578ZM19.491,4H6.916a.629.629,0,0,0-.629.629V5.89a.629.629,0,0,0,.629.629H19.491a.629.629,0,0,0,.629-.629V4.632A.629.629,0,0,0,19.491,4Zm0,6.287H6.916a.629.629,0,0,0-.629.629v1.257a.629.629,0,0,0,.629.629H19.491a.629.629,0,0,0,.629-.629V10.92A.629.629,0,0,0,19.491,10.291Z" transform="translate(0 -3.375)" fill="#3fc0c8"/>
</svg>
