<svg xmlns="http://www.w3.org/2000/svg" width="161.711" height="138.952" viewBox="0 0 161.711 138.952">
  <g id="Group_14836" data-name="Group 14836" transform="translate(-66 -355)">
    <path id="Path_47399" data-name="Path 47399" d="M118.527,16.261C91.152-6.162,52.669-6.656,24.3,15.812,9.3,27.69-2.439,45.735-.7,72.99-.083,82.63,1.875,90.522,4.8,96.968c11.832,26.131,61.838,24.556,64.614,24.52q2.7-.033,5.395.068a110.372,110.372,0,0,1,18.709,2.314c8.778,1.857,19.972,2.713,30.033-1.1a34.664,34.664,0,0,0,4.974-2.348c5.543-3.179,11.741-6.228,15.438-13.662a65.2,65.2,0,0,0,5.9-21.236C153.722,53.922,136.762,31.2,118.527,16.261Z" transform="translate(77.8 355.872) rotate(5)" fill="#f1f5f8"/>
    <g id="ANERIS_logo" data-name="ANERIS logo" transform="translate(76.4 356.2)">
      <path id="Path_7" data-name="Path 7" d="M87.9,100.818c-3.489,0-5.821-3.192-8.07-6.284-1.34-1.836-2.712-3.721-4.134-4.548-1.5-.877-3.9-1.141-6.235-1.422-3.738-.43-7.591-.877-9.261-3.754-1.6-2.778-.116-6.268,1.34-9.658.943-2.2,1.935-4.482,1.935-6.351S62.5,64.666,61.54,62.45c-1.455-3.374-2.944-6.88-1.34-9.658,1.67-2.878,5.524-3.324,9.261-3.754,2.315-.265,4.713-.546,6.235-1.406,1.422-.827,2.811-2.712,4.134-4.548,2.266-3.093,4.6-6.284,8.07-6.284,3.489,0,5.821,3.192,8.07,6.284,1.34,1.836,2.712,3.721,4.134,4.548,1.5.876,3.9,1.141,6.235,1.406,3.738.43,7.591.877,9.261,3.754,1.6,2.778.116,6.268-1.34,9.658-.943,2.2-1.935,4.482-1.935,6.351,0,1.852.976,4.134,1.935,6.351,1.455,3.374,2.944,6.88,1.34,9.658-1.67,2.878-5.524,3.324-9.261,3.754-2.315.265-4.73.546-6.235,1.422-1.422.827-2.811,2.712-4.134,4.548C93.706,97.626,91.374,100.818,87.9,100.818ZM87.9,39c-2.4,0-4.4,2.745-6.334,5.391-1.472,2-2.993,4.085-4.8,5.127-1.9,1.091-4.531,1.406-7.062,1.687-3.208.364-6.516.744-7.64,2.7-1.058,1.852.165,4.7,1.455,7.723,1.025,2.415,2.1,4.9,2.1,7.194s-1.075,4.8-2.1,7.194c-1.29,3.026-2.53,5.871-1.455,7.723,1.125,1.951,4.432,2.332,7.64,2.7,2.547.3,5.176.6,7.062,1.687,1.819,1.042,3.341,3.126,4.8,5.143,1.935,2.646,3.953,5.391,6.334,5.391,2.4,0,4.4-2.745,6.334-5.391,1.472-2,2.993-4.085,4.8-5.127,1.9-1.091,4.531-1.406,7.062-1.687,3.192-.364,6.516-.744,7.64-2.7,1.058-1.852-.165-4.7-1.455-7.723-1.025-2.415-2.1-4.9-2.1-7.194s1.075-4.8,2.1-7.194c1.29-3.026,2.53-5.871,1.455-7.723-1.125-1.951-4.432-2.332-7.64-2.7-2.547-.3-5.16-.6-7.062-1.687-1.819-1.058-3.341-3.126-4.8-5.127C92.284,41.745,90.283,39,87.9,39Z" transform="translate(-18.284 0)" fill="#3fc0c8" stroke="#3fc0c8" stroke-width="1"/>
      <path id="Path_8" data-name="Path 8" d="M56.337,115.513a5.284,5.284,0,0,1-2.729-.695c-2.878-1.67-3.324-5.524-3.754-9.261-.265-2.315-.546-4.73-1.422-6.235-.827-1.422-2.712-2.811-4.548-4.151-3.093-2.249-6.284-4.6-6.284-8.07,0-3.489,3.192-5.821,6.284-8.07,1.819-1.34,3.721-2.712,4.531-4.134.877-1.5,1.141-3.9,1.422-6.235.43-3.738.876-7.591,3.754-9.261,2.778-1.6,6.268-.1,9.658,1.34,2.2.943,4.482,1.935,6.351,1.935,1.852,0,4.134-.976,6.351-1.935,3.374-1.455,6.88-2.944,9.658-1.34,2.878,1.67,3.324,5.524,3.754,9.261.265,2.315.546,4.73,1.422,6.235.827,1.422,2.712,2.811,4.548,4.134,3.093,2.266,6.284,4.6,6.284,8.07,0,3.489-3.192,5.821-6.284,8.07-1.836,1.34-3.721,2.712-4.548,4.134-.877,1.5-1.141,3.9-1.406,6.235-.43,3.738-.877,7.591-3.754,9.261-2.778,1.6-6.268.116-9.658-1.34-.513-.215-1.025-.447-1.538-.645a7.461,7.461,0,0,1-4.581-5.689A7.781,7.781,0,0,1,72.462,99.7a10.5,10.5,0,0,1,3.192-1.538c.38-.132.761-.265,1.125-.413,5.176-2.1,8.649-8.8,8.2-15.132a18.256,18.256,0,0,1-5.788,3.208,17.736,17.736,0,0,0-5.11,2.712,10.4,10.4,0,0,0-3.291,6.367,1.178,1.178,0,0,1-1.174,1.025h0a1.193,1.193,0,0,1-1.174-1.025,10.4,10.4,0,0,0-3.291-6.367,17.736,17.736,0,0,0-5.11-2.712,18.114,18.114,0,0,1-5.788-3.208c-.447,6.334,3.043,13.032,8.2,15.132.364.149.744.281,1.125.413A10.9,10.9,0,0,1,66.773,99.7a7.813,7.813,0,0,1,2.613,7.459,8.254,8.254,0,0,1-4.9,5.8l-1.224.529C60.918,114.488,58.52,115.513,56.337,115.513Zm.033-54.641a3.194,3.194,0,0,0-1.687.413c-1.951,1.125-2.332,4.432-2.7,7.64-.3,2.547-.6,5.176-1.687,7.062-1.058,1.819-3.126,3.341-5.127,4.8-2.646,1.935-5.391,3.953-5.391,6.334s2.745,4.4,5.391,6.334c2,1.472,4.085,2.993,5.143,4.8,1.091,1.9,1.406,4.531,1.687,7.062.364,3.192.744,6.516,2.7,7.64,1.852,1.075,4.7-.165,7.723-1.455l1.24-.529a6.059,6.059,0,0,0,3.605-4.25,5.634,5.634,0,0,0-1.819-5.309,8.835,8.835,0,0,0-2.58-1.207c-.413-.149-.827-.281-1.224-.447-6.83-2.778-11.031-11.907-9.162-19.945l.612-2.6,1.373,2.282c1.389,2.315,3.8,3.291,6.367,4.316a19.815,19.815,0,0,1,5.722,3.076,11.623,11.623,0,0,1,3.059,4.234,11.675,11.675,0,0,1,3.06-4.234A19.815,19.815,0,0,1,78.4,83.81c2.563-1.025,4.978-2,6.367-4.316l1.373-2.282.612,2.6c1.869,8.037-2.315,17.166-9.162,19.945-.4.165-.81.314-1.224.447a8.836,8.836,0,0,0-2.58,1.207,5.62,5.62,0,0,0-1.8,5.342,5.352,5.352,0,0,0,3.274,4.085c.529.215,1.042.447,1.571.661,3.026,1.29,5.871,2.514,7.723,1.455,1.951-1.125,2.332-4.432,2.7-7.64.3-2.547.6-5.16,1.687-7.062,1.058-1.819,3.126-3.341,5.143-4.8,2.646-1.935,5.391-3.953,5.391-6.334,0-2.4-2.745-4.4-5.391-6.334-2-1.472-4.085-2.993-5.127-4.8-1.091-1.9-1.406-4.531-1.687-7.062-.364-3.208-.744-6.516-2.7-7.64-1.852-1.075-4.7.165-7.723,1.455-2.415,1.025-4.9,2.1-7.194,2.1s-4.8-1.075-7.194-2.1C60.191,61.782,58.074,60.872,56.37,60.872Z" transform="translate(0 -18.284)" fill="#3fc0c8" stroke="#3fc0c8" stroke-width="1"/>
    </g>
  </g>
</svg>
