<?xml version="1.0" encoding="utf-8"?>
<!-- Generator: Adobe Illustrator 19.0.0, SVG Export Plug-In . SVG Version: 6.00 Build 0)  -->
<svg version="1.1" id="Layer_1" xmlns="http://www.w3.org/2000/svg" xmlns:xlink="http://www.w3.org/1999/xlink" x="0px" y="0px"
	 viewBox="-34.3 57.1 150.5 129.4" style="enable-background:new -34.3 57.1 150.5 129.4;" xml:space="preserve">
<style type="text/css">
	.st0{fill:#F1F5F8;}
	.st1{fill:#3FC0C8;stroke:#3FC0C8;}
</style>
<g id="Group_14836" transform="translate(-66 -355)">
	<path id="Path_47399" class="st0" d="M155.5,433.4c-25.3-24.7-63.6-28.6-93.8-8.7c-16,10.5-29.2,27.5-29.9,54.8
		c-0.2,9.7,1,17.7,3.4,24.4c9.5,27.1,59.5,29.9,62.2,30.1c1.8,0.1,3.6,0.3,5.4,0.5c6.2,0.8,12.4,2.1,18.4,3.9
		c8.6,2.6,19.7,4.4,30,1.5c1.8-0.5,3.5-1.1,5.2-1.9c5.8-2.7,12.2-5.2,16.6-12.3c3.7-6.4,6.3-13.4,7.7-20.6
		C187.2,474,172.3,449.9,155.5,433.4z"/>
	<g id="ANERIS_logo" transform="translate(76.4 356.2)">
		<path id="Path_7" class="st1" d="M30.6,151.9c-3.5,0-5.8-3.2-8.1-6.3c-1.3-1.8-2.7-3.7-4.1-4.5c-1.5-0.9-3.9-1.1-6.2-1.4
			c-3.7-0.4-7.6-0.9-9.3-3.8c-1.6-2.8-0.1-6.3,1.3-9.7c0.9-2.2,1.9-4.5,1.9-6.4s-1-4.1-1.9-6.4c-1.5-3.4-2.9-6.9-1.3-9.7
			c1.7-2.9,5.5-3.3,9.3-3.8c2.3-0.3,4.7-0.5,6.2-1.4c1.4-0.8,2.8-2.7,4.1-4.5c2.3-3.1,4.6-6.3,8.1-6.3c3.5,0,5.8,3.2,8.1,6.3
			c1.3,1.8,2.7,3.7,4.1,4.5c1.5,0.9,3.9,1.1,6.2,1.4c3.7,0.4,7.6,0.9,9.3,3.8c1.6,2.8,0.1,6.3-1.3,9.7c-0.9,2.2-1.9,4.5-1.9,6.4
			c0,1.9,1,4.1,1.9,6.4c1.5,3.4,2.9,6.9,1.3,9.7c-1.7,2.9-5.5,3.3-9.3,3.8c-2.3,0.3-4.7,0.5-6.2,1.4c-1.4,0.8-2.8,2.7-4.1,4.5
			C36.4,148.7,34.1,151.9,30.6,151.9z M30.6,90c-2.4,0-4.4,2.7-6.3,5.4c-1.5,2-3,4.1-4.8,5.1c-1.9,1.1-4.5,1.4-7.1,1.7
			c-3.2,0.4-6.5,0.7-7.6,2.7c-1.1,1.9,0.2,4.7,1.5,7.7c1,2.4,2.1,4.9,2.1,7.2s-1.1,4.8-2.1,7.2c-1.3,3-2.5,5.9-1.5,7.7
			c1.1,2,4.4,2.3,7.6,2.7c2.5,0.3,5.2,0.6,7.1,1.7c1.8,1,3.3,3.1,4.8,5.1c1.9,2.6,4,5.4,6.3,5.4c2.4,0,4.4-2.7,6.3-5.4
			c1.5-2,3-4.1,4.8-5.1c1.9-1.1,4.5-1.4,7.1-1.7c3.2-0.4,6.5-0.7,7.6-2.7c1.1-1.9-0.2-4.7-1.5-7.7c-1-2.4-2.1-4.9-2.1-7.2
			s1.1-4.8,2.1-7.2c1.3-3,2.5-5.9,1.5-7.7c-1.1-2-4.4-2.3-7.6-2.7c-2.5-0.3-5.2-0.6-7.1-1.7c-1.8-1.1-3.3-3.1-4.8-5.1
			C35,92.8,33,90,30.6,90z"/>
		<path id="Path_8" class="st1" d="M17.3,148.3c-1,0-1.9-0.2-2.7-0.7c-2.9-1.7-3.3-5.5-3.8-9.3c-0.3-2.3-0.5-4.7-1.4-6.2
			c-0.8-1.4-2.7-2.8-4.5-4.2c-3.1-2.2-6.3-4.6-6.3-8.1c0-3.5,3.2-5.8,6.3-8.1c1.8-1.3,3.7-2.7,4.5-4.1c0.9-1.5,1.1-3.9,1.4-6.2
			c0.4-3.7,0.9-7.6,3.8-9.3c2.8-1.6,6.3-0.1,9.7,1.3c2.2,0.9,4.5,1.9,6.4,1.9c1.9,0,4.1-1,6.4-1.9c3.4-1.5,6.9-2.9,9.7-1.3
			c2.9,1.7,3.3,5.5,3.8,9.3c0.3,2.3,0.5,4.7,1.4,6.2c0.8,1.4,2.7,2.8,4.5,4.1c3.1,2.3,6.3,4.6,6.3,8.1c0,3.5-3.2,5.8-6.3,8.1
			c-1.8,1.3-3.7,2.7-4.5,4.1c-0.9,1.5-1.1,3.9-1.4,6.2c-0.4,3.7-0.9,7.6-3.8,9.3c-2.8,1.6-6.3,0.1-9.7-1.3c-0.5-0.2-1-0.4-1.5-0.6
			c-2.4-1-4.2-3.1-4.6-5.7c-0.5-2.8,0.5-5.6,2.6-7.4c1-0.7,2-1.2,3.2-1.5c0.4-0.1,0.8-0.3,1.1-0.4c5.2-2.1,8.6-8.8,8.2-15.1
			c-1.7,1.4-3.7,2.5-5.8,3.2c-1.8,0.6-3.6,1.5-5.1,2.7c-1.8,1.7-3,3.9-3.3,6.4c-0.1,0.6-0.6,1-1.2,1l0,0c-0.6,0-1.1-0.4-1.2-1
			c-0.3-2.4-1.5-4.7-3.3-6.4c-1.5-1.2-3.3-2.1-5.1-2.7c-2.1-0.7-4.1-1.8-5.8-3.2c-0.4,6.3,3,13,8.2,15.1c0.4,0.1,0.7,0.3,1.1,0.4
			c1.1,0.3,2.2,0.9,3.2,1.5c2.2,1.8,3.2,4.7,2.6,7.5c-0.6,2.6-2.4,4.8-4.9,5.8l-1.2,0.5C21.9,147.3,19.5,148.3,17.3,148.3z
			 M17.4,93.6c-0.6,0-1.2,0.1-1.7,0.4c-2,1.1-2.3,4.4-2.7,7.6c-0.3,2.5-0.6,5.2-1.7,7.1c-1.1,1.8-3.1,3.3-5.1,4.8
			c-2.6,1.9-5.4,4-5.4,6.3s2.7,4.4,5.4,6.3c2,1.5,4.1,3,5.1,4.8c1.1,1.9,1.4,4.5,1.7,7.1c0.4,3.2,0.7,6.5,2.7,7.6
			c1.9,1.1,4.7-0.2,7.7-1.5l1.2-0.5c1.8-0.7,3.2-2.3,3.6-4.3c0.4-2-0.3-4-1.8-5.3c-0.8-0.5-1.7-0.9-2.6-1.2
			c-0.4-0.1-0.8-0.3-1.2-0.4c-6.8-2.8-11-11.9-9.2-19.9l0.6-2.6l1.4,2.3c1.4,2.3,3.8,3.3,6.4,4.3c2.1,0.7,4,1.7,5.7,3.1
			c1.3,1.2,2.4,2.6,3.1,4.2c0.7-1.6,1.7-3.1,3.1-4.2c1.7-1.3,3.7-2.4,5.7-3.1c2.6-1,5-2,6.4-4.3l1.4-2.3l0.6,2.6
			c1.9,8-2.3,17.2-9.2,19.9c-0.4,0.2-0.8,0.3-1.2,0.4c-0.9,0.3-1.8,0.7-2.6,1.2c-1.5,1.3-2.2,3.4-1.8,5.3c0.3,1.8,1.5,3.4,3.3,4.1
			c0.5,0.2,1,0.4,1.6,0.7c3,1.3,5.9,2.5,7.7,1.5c2-1.1,2.3-4.4,2.7-7.6c0.3-2.5,0.6-5.2,1.7-7.1c1.1-1.8,3.1-3.3,5.1-4.8
			c2.6-1.9,5.4-4,5.4-6.3c0-2.4-2.7-4.4-5.4-6.3c-2-1.5-4.1-3-5.1-4.8c-1.1-1.9-1.4-4.5-1.7-7.1c-0.4-3.2-0.7-6.5-2.7-7.6
			c-1.9-1.1-4.7,0.2-7.7,1.5c-2.4,1-4.9,2.1-7.2,2.1s-4.8-1.1-7.2-2.1C21.2,94.5,19.1,93.6,17.4,93.6z"/>
	</g>
</g>
</svg>
