<svg xmlns="http://www.w3.org/2000/svg" xmlns:xlink="http://www.w3.org/1999/xlink" width="79" height="79" viewBox="0 0 79 79">
  <defs>
    <clipPath id="clip-path">
      <rect id="Rectangle_27" data-name="Rectangle 27" width="79" height="79" transform="translate(0.061 -0.047)" fill="#3fc0c8"/>
    </clipPath>
  </defs>
  <g id="Group_40" data-name="Group 40" transform="translate(-0.061 0.047)">
    <g id="Group_35" data-name="Group 35" transform="translate(0 0)" clip-path="url(#clip-path)">
      <path id="Path_32" data-name="Path 32" d="M225.231,437.223h.054c.867,0,1.756-.031,2.644-.091l-.18-2.629c-.846.059-1.7.1-2.514.086Z" transform="translate(-185.677 -358.161)" fill="#3fc0c8"/>
      <path id="Path_33" data-name="Path 33" d="M197.325,435.99l.175-2.629q-1.266-.083-2.505-.251l-.35,2.611c.893.12,1.794.21,2.681.269" transform="translate(-160.462 -357.014)" fill="#3fc0c8"/>
      <path id="Path_34" data-name="Path 34" d="M254.184,433.643c.887-.122,1.781-.277,2.659-.458l-.536-2.58c-.818.171-1.652.315-2.479.427Z" transform="translate(-209.252 -354.948)" fill="#3fc0c8"/>
      <path id="Path_35" data-name="Path 35" d="M167.193,430.5l.531-2.58c-.819-.169-1.642-.368-2.446-.592l-.706,2.539c.862.239,1.744.452,2.621.633" transform="translate(-135.671 -352.249)" fill="#3fc0c8"/>
      <path id="Path_36" data-name="Path 36" d="M7.932,270.613c-.226-.8-.428-1.625-.6-2.444l-2.579.54c.184.877.4,1.758.642,2.619Z" transform="translate(-3.919 -221.038)" fill="#3fc0c8"/>
      <path id="Path_37" data-name="Path 37" d="M433.237,256.6c.18-.873.333-1.767.454-2.657l-2.61-.355c-.113.83-.256,1.664-.424,2.48Z" transform="translate(-355.028 -209.017)" fill="#3fc0c8"/>
      <path id="Path_38" data-name="Path 38" d="M.827,242.658l2.61-.36c-.115-.828-.2-1.67-.26-2.5l-2.628.183c.062.893.156,1.794.278,2.681" transform="translate(-0.453 -197.647)" fill="#3fc0c8"/>
      <path id="Path_39" data-name="Path 39" d="M434.6,224.033v.17q0,1.269-.084,2.516l2.628.178c.061-.893.091-1.8.091-2.709v-.154Z" transform="translate(-358.212 -184.653)" fill="#3fc0c8"/>
      <path id="Path_40" data-name="Path 40" d="M2.714,210.334l-2.629-.172Q0,211.455,0,212.768v.085l2.634-.085q0-1.225.08-2.433" transform="translate(0 -173.218)" fill="#3fc0c8"/>
      <path id="Path_41" data-name="Path 41" d="M435.554,193.4l-2.609.368c.116.827.206,1.67.265,2.5l2.628-.188c-.064-.893-.16-1.794-.284-2.682" transform="translate(-356.914 -159.402)" fill="#3fc0c8"/>
      <path id="Path_42" data-name="Path 42" d="M2.447,179.751c-.179.876-.329,1.771-.448,2.659l2.611.35c.111-.83.251-1.664.419-2.481Z" transform="translate(-1.648 -148.148)" fill="#3fc0c8"/>
      <path id="Path_43" data-name="Path 43" d="M427.024,164.094c.229.8.432,1.626.6,2.441l2.578-.543c-.185-.876-.4-1.757-.648-2.619Z" transform="translate(-352.033 -134.647)" fill="#3fc0c8"/>
      <path id="Path_44" data-name="Path 44" d="M270.174,5.133c-.859-.238-1.742-.449-2.624-.628l-.524,2.583c.823.166,1.645.363,2.446.584Z" transform="translate(-220.133 -3.678)" fill="#3fc0c8"/>
      <path id="Path_45" data-name="Path 45" d="M181.541,4.777l-.364-2.609c-.892.125-1.785.28-2.656.463l.541,2.578c.812-.17,1.646-.315,2.479-.432" transform="translate(-147.17 -1.751)" fill="#3fc0c8"/>
      <path id="Path_46" data-name="Path 46" d="M241.487.724C240.6.607,239.7.519,238.8.462l-.167,2.629c.834.053,1.677.135,2.505.244Z" transform="translate(-196.729 -0.345)" fill="#3fc0c8"/>
      <path id="Path_47" data-name="Path 47" d="M211.618,2.641,211.61.007c-.9,0-1.8.036-2.694.1l.185,2.626q1.246-.087,2.517-.091" transform="translate(-172.227 0.031)" fill="#3fc0c8"/>
      <path id="Path_48" data-name="Path 48" d="M14.488,28.976A14.488,14.488,0,1,0,0,14.488,14.5,14.5,0,0,0,14.488,28.976m6.586-4.639a11.82,11.82,0,0,1-13.171,0V21.653a1.331,1.331,0,0,1,.9-1.253l1.933-.645a12,12,0,0,1,7.494,0l1.927.642a1.335,1.335,0,0,1,.913,1.256Zm-9.22-11.167V10.537a2.634,2.634,0,1,1,5.268,0v2.634a2.634,2.634,0,1,1-5.268,0M14.488,2.634a11.842,11.842,0,0,1,9.22,19.288v-.269A3.971,3.971,0,0,0,21,17.9l-1.938-.646c-.315-.1-.636-.192-.957-.274a5.242,5.242,0,0,0,1.649-3.809V10.537a5.268,5.268,0,1,0-10.537,0v2.634a5.242,5.242,0,0,0,1.649,3.81c-.322.082-.643.17-.96.275L7.965,17.9a3.967,3.967,0,0,0-2.7,3.749v.269a11.842,11.842,0,0,1,9.22-19.288" transform="translate(0 0.036)" fill="#3fc0c8"/>
      <path id="Path_49" data-name="Path 49" d="M299.488,0a14.488,14.488,0,1,0,14.488,14.488A14.5,14.5,0,0,0,299.488,0m6.586,24.337a11.82,11.82,0,0,1-13.171,0V21.653a1.33,1.33,0,0,1,.9-1.253l1.933-.645a12,12,0,0,1,7.494,0l1.927.642a1.334,1.334,0,0,1,.913,1.256Zm-9.22-11.166V10.537a2.634,2.634,0,1,1,5.268,0v2.634a2.634,2.634,0,1,1-5.268,0m11.854,8.751v-.269A3.971,3.971,0,0,0,306,17.9l-1.938-.646c-.315-.1-.636-.192-.957-.274a5.242,5.242,0,0,0,1.649-3.809V10.537a5.268,5.268,0,0,0-10.537,0v2.634a5.242,5.242,0,0,0,1.649,3.81c-.322.082-.643.17-.96.275l-1.944.649a3.967,3.967,0,0,0-2.7,3.749v.269a11.854,11.854,0,1,1,18.439,0" transform="translate(-234.95 0.036)" fill="#3fc0c8"/>
      <path id="Path_50" data-name="Path 50" d="M14.488,313.976A14.488,14.488,0,1,0,0,299.488a14.5,14.5,0,0,0,14.488,14.488m6.586-4.639a11.821,11.821,0,0,1-13.171,0v-2.684a1.331,1.331,0,0,1,.9-1.253l1.933-.645a11.992,11.992,0,0,1,7.494,0l1.927.642a1.335,1.335,0,0,1,.913,1.256Zm-9.22-11.167v-2.634a2.634,2.634,0,1,1,5.268,0v2.634a2.634,2.634,0,1,1-5.268,0m2.634-10.537a11.842,11.842,0,0,1,9.22,19.288v-.269A3.971,3.971,0,0,0,21,302.9l-1.938-.646c-.315-.1-.636-.192-.957-.274a5.242,5.242,0,0,0,1.649-3.809v-2.634a5.268,5.268,0,0,0-10.537,0v2.634a5.242,5.242,0,0,0,1.649,3.81c-.322.082-.643.17-.96.275l-1.944.649a3.967,3.967,0,0,0-2.7,3.749v.269a11.842,11.842,0,0,1,9.22-19.288" transform="translate(0 -234.914)" fill="#3fc0c8"/>
      <path id="Path_51" data-name="Path 51" d="M299.488,285a14.488,14.488,0,1,0,14.488,14.488A14.5,14.5,0,0,0,299.488,285m6.586,24.338a11.821,11.821,0,0,1-13.171,0v-2.685a1.33,1.33,0,0,1,.9-1.253l1.933-.645a11.993,11.993,0,0,1,7.494,0l1.927.642a1.334,1.334,0,0,1,.913,1.256Zm-9.22-11.167v-2.634a2.634,2.634,0,1,1,5.268,0v2.634a2.634,2.634,0,1,1-5.268,0m11.854,8.751v-.269A3.971,3.971,0,0,0,306,302.9l-1.938-.646c-.315-.1-.636-.192-.957-.274a5.242,5.242,0,0,0,1.649-3.809v-2.634a5.268,5.268,0,0,0-10.537,0v2.634a5.242,5.242,0,0,0,1.649,3.81c-.322.082-.643.17-.96.275l-1.944.649a3.967,3.967,0,0,0-2.7,3.749v.269a11.854,11.854,0,1,1,18.439,0" transform="translate(-234.95 -234.914)" fill="#3fc0c8"/>
      <path id="Path_52" data-name="Path 52" d="M156.988,171.476A14.488,14.488,0,1,0,142.5,156.988a14.5,14.5,0,0,0,14.488,14.488m0-26.342a11.854,11.854,0,1,1-11.854,11.854,11.868,11.868,0,0,1,11.854-11.854" transform="translate(-117.475 -117.439)" fill="#3fc0c8"/>
      <path id="Path_53" data-name="Path 53" d="M187.08,204.915a1.313,1.313,0,0,0,.931-.386l9.22-9.22-1.863-1.863-8.288,8.289-3.02-3.02-1.863,1.863,3.951,3.951a1.313,1.313,0,0,0,.931.386" transform="translate(-150.201 -159.439)" fill="#3fc0c8"/>
    </g>
  </g>
</svg>
