<svg id="Group_14782" data-name="Group 14782" xmlns="http://www.w3.org/2000/svg" xmlns:xlink="http://www.w3.org/1999/xlink" width="48.061" height="55.828" viewBox="0 0 48.061 55.828">
  <defs>
    <clipPath id="clip-path">
      <rect id="Rectangle_3360" data-name="Rectangle 3360" width="48.061" height="55.828" fill="#3fc0c8"/>
    </clipPath>
  </defs>
  <g id="Group_14781" data-name="Group 14781" clip-path="url(#clip-path)">
    <path id="Path_47410" data-name="Path 47410" d="M19.417,45.439c.025-.166.165-.3.032-.505-.326-.511-.308-.522-.121-1.106-.038,0-.073,0-.107,0-.557.04-.553.041-.424-.5a2.437,2.437,0,0,0,.049-.426c.019-.338.229-.564.523-.45a.715.715,0,0,0,.906-.314c.973-1.33,2.221-2.438,3.113-3.829a20.039,20.039,0,0,0,2.257-4.989,17.52,17.52,0,0,0,.752-3.872,18.207,18.207,0,0,1,.918-4.474,5.357,5.357,0,0,0,.25-1.659c.007-.734.224-.994,1.081-.8.171.039.1.149.082.244-.13.577.035.83.753,1.15a.935.935,0,0,0,1.024-.373.847.847,0,0,1,.831-.465.9.9,0,0,0,.619-.274c.889-.791,1.79-1.568,2.681-2.356a1.255,1.255,0,0,1,.6-.27c.3-.063.428-.3.619-.5.519-.534.3-1.26.548-1.864a2.493,2.493,0,0,1,1-1.215,1.9,1.9,0,0,0,.709-.71,1.052,1.052,0,0,1,.62-.518c1.1-.336,2.028-1.025,3.083-1.437a7.171,7.171,0,0,1,3-.6c.527.029,1.008-.174,1.536-.155a1.59,1.59,0,0,1,.913.213c.106.073.2.187.345.077a3.648,3.648,0,0,1,2-.589,6.062,6.062,0,0,0,1.962-.488,2.32,2.32,0,0,1,1.857-.181c.215.081.542,0,.8.122s.483.3.331.636c-.142.318.148.537.168.818a1.3,1.3,0,0,0,.441,1,2.376,2.376,0,0,0,2.063.668,3.125,3.125,0,0,0-.159.6c-.069.33.1.421.358.481.367.086.733.18,1.1.262a.208.208,0,0,1,.169.141c.13.368-.014.767.132,1.137.028.071-.1.1-.163.147a.94.94,0,0,0-.177,1.124.649.649,0,0,1,.086.411,7.305,7.305,0,0,0,.154,1.675c.05.259-.1.453-.148.677a3.837,3.837,0,0,1-.66,1.578A5.849,5.849,0,0,0,56.864,27.3c-.013.509-.053,1.017-.089,1.526-.031.439-.22.566-.62.4a.773.773,0,0,0-.708-.034.372.372,0,0,1-.342-.022,3.381,3.381,0,0,0-2.087-.108c-.277.034-.426.2-.4.578a1.089,1.089,0,0,0,.407.943c.107.077.1.228-.046.213-.231-.024-.35.2-.5.209-.374.027-.242.194-.164.375a1.092,1.092,0,0,1,.077.381c.011.187-.166.415.034.554.263.183.5.493.842.458a3.832,3.832,0,0,1,1.724.4c.3.109.5.069.633-.234.05-.116.094-.278.25-.263s.169.184.208.3a2.248,2.248,0,0,0,.675,1.106.811.811,0,0,1,.184.947,6.4,6.4,0,0,1-.372.86.906.906,0,0,0,.084,1.089c.237.365.125.63-.316.615a.561.561,0,0,0-.619.441.767.767,0,0,1-.63.566.63.63,0,0,0-.485.518c-.09.561-.461.7-.928.668a.564.564,0,0,0-.7.484.465.465,0,0,1-.437.426.352.352,0,0,0-.31.353c-.023.206.151.216.282.258a5.256,5.256,0,0,1,1.368.964c.186.133.117.494-.09.619-.1.063-.207.122-.216.256-.036.537-.474.747-.83,1.022-.174.135-.3,0-.4-.118a.351.351,0,0,0-.477-.111c-.474.212-.962.392-1.441.593a.981.981,0,0,0-.37.214c-.4.474-.83.324-1.269.075-.081-.046-.165-.085-.248,0-.028.084.04.116.083.161a.412.412,0,0,1,.022.538c-.126.155-.369.03-.476-.09a.781.781,0,0,0-.579-.272c-.062,0-.164-.022-.176-.057-.141-.435-.429-.349-.773-.285a.607.607,0,0,1-.765-.428c-.123-.349-.453-.263-.785-.155.318.156.373.479.571.7a.277.277,0,0,1,.01.333c-.075.1-.19.028-.29.01A1.354,1.354,0,0,1,44.546,45c-.068-.069-.139-.023-.2.039a1.444,1.444,0,0,1-1.121.5c-.313-.014-.138.294-.065.4a2.306,2.306,0,0,1,.266.469c.1.25.117.475-.154.637-.064.038-.156.079-.143.17s.114.093.19.1a1.087,1.087,0,0,1,.54.216c.176.109.376.175.2.5s.019.628.4.768l.074.026c.611.221.62.225.375.825a.4.4,0,0,0,.117.542,7.416,7.416,0,0,1,1.181,1.54,1.626,1.626,0,0,1,.2,1.211,3.574,3.574,0,0,0-.016,1.541.793.793,0,0,1-.37.888c-.407.317-.5.81-.8,1.18a2.712,2.712,0,0,1-.25.347,1.6,1.6,0,0,0-.4,1.371c.011.343.209.41.5.229a4.742,4.742,0,0,1,.518-.272.174.174,0,0,1,.237.079c.05.1-.032.147-.1.178-.2.091-.216.162-.042.326.2.192,0,.321-.155.359a2.483,2.483,0,0,0-1.3.883.406.406,0,0,1-.153.12,1.289,1.289,0,0,0-.814.928c-.09.309-.372.373-.508.123-.151-.279-.3-.425-.562-.163a.457.457,0,0,0,.04.646.8.8,0,0,1,.138.849c.446-.4.874-.176,1.279-.237.193-.029.331.017.271.282-.138.616-.042.781.594.931.253.06.318.124.183.352a.558.558,0,0,0,0,.489c.117.356-.072.592-.441.624-.189.016-.347.1-.318.353.054.473-.052.587-.515.575.02.18.175.262.282.346.181.142.341.27.179.507a.376.376,0,0,1-.528.079.478.478,0,0,0-.63.1h-.392c-.108-.2-.193-.274-.475-.165a.8.8,0,0,1-.961-.259c-.111-.154-.206-.156-.29-.006-.163.294-.468.248-.721.315-.17.045-.231-.048-.163-.23.187-.5.132-.663-.3-.981a.77.77,0,0,1,.041-1.257.606.606,0,0,0,.182-.145c.272-.427.721-.733.851-1.273-.074-.118-.294.106-.342-.1-.037-.162.093-.27.183-.37a.967.967,0,0,0,.3-1.079.481.481,0,0,1,.28-.6.259.259,0,0,0,.17-.312c-.049-.283.051-.4.441-.351-.43-.31-.322-.519-.026-.709.157-.1.172-.217.079-.4-.108-.21-.255-.174-.382-.1-.322.2-.427.054-.453-.252-.025-.289-.239-.289-.434-.252a1.132,1.132,0,0,1-1.2-.308,1.451,1.451,0,0,0-.636-.287.5.5,0,0,1-.4-.587c.076-.476-.32-.68-.537-.984-.052-.072-.226-.12-.286-.043-.171.219-.483.225-.636.437-.186.259-.41.232-.659.157a.56.56,0,0,0-.58.051c-.173.132-.429.067-.65.052a1.4,1.4,0,0,0-.346-.025c-.356.07-.415-.081-.347-.392.038-.173.189-.363-.037-.535a.565.565,0,0,0-.647-.084c-.3.138-.529.014-.524-.282a1.276,1.276,0,0,0-.461-.957c-.257-.25-.338-.482-.11-.778a.762.762,0,0,0-.038-.91c-.142-.263-.5-.171-.675-.407a.458.458,0,0,0-.212.327.759.759,0,0,1-.394.675,2.763,2.763,0,0,0-.473.521c-.082.1-.207.239-.317.087-.316-.437-.748-.221-1.137-.236a4.227,4.227,0,0,1-.464.028.272.272,0,0,1-.228-.352c.043-.181.195-.145.319-.091.268.115.292-.013.363-.25.1-.345.2-.629-.119-.913a.554.554,0,0,0-.815,0,4.494,4.494,0,0,0-.988,1.215c-.065.171-.293.152-.457.119a1.83,1.83,0,0,0-1.038-.036c-.253.091-.209-.152-.241-.289a1,1,0,0,1-.017-.194c-.007-.195.307-.422.058-.553-.207-.109-.506,0-.755.074-.124.037-.241.094-.362.141-.713.281-.851.782-.4,1.407.118.162.355.325.225.54a.729.729,0,0,1-.689.28c-.131-.005-.313,0-.364-.106-.185-.379-.512-.289-.811-.282a.536.536,0,0,1-.578-.272.521.521,0,0,0-.7-.235,1.691,1.691,0,0,1-1.57-.419c-.225-.313-.592-.418-.858-.669-.133-.126-.585.088-.647.271-.012.036,0,.079-.014.116-.193.76-.479.975-1.28.983a.5.5,0,0,1-.343-.152c-.214-.18-.4-.407-.739-.366-.179.021-.221-.2-.309-.321-.294-.414-.467-.47-.944-.286a1.329,1.329,0,0,1-1.5-.572,2.076,2.076,0,0,0-.591-.661c-.566-.418-.615-.717-.021-1.05.364-.2.709-.442,1.064-.662a.867.867,0,0,1,.715-.094c.491.131.717-.008.86-.507.049-.171.2-.267.3-.405.154-.221.227-.4-.059-.621a.714.714,0,0,1,.271-1.263,2.241,2.241,0,0,1,1.027-.194c.315.05.806-.648.7-.992-.118-.4.059-.581.4-.647.365-.07.679-.271,1.033-.361.219-.056.45-.16.592.163.084.191.25.036.379.01-.084.3.152.372.344.478a7.4,7.4,0,0,1,2.292,1.581,1.514,1.514,0,0,0,1.3.517c.185-.017.334-.1.3-.281a.324.324,0,0,0-.4-.219c-.048.009-.089.055-.137.074-.327.134-1.07-.057-1.086-.358s-.242-.353-.348-.529a.522.522,0,0,1-.059-.1c-.179-.563-.72-.631-1.159-.82a2.689,2.689,0,0,1-.61-.245.511.511,0,0,0-.43-.105m16.1-17.091c-.227-.056-.451-.126-.681-.164-.209-.035-.5-.039-.54.187-.108.66-.686.807-1.114,1.113a.353.353,0,0,1-.47.008.887.887,0,0,0-.828-.273c-.3.035-.432.1-.408.446a3.9,3.9,0,0,0,.6,1.761c.32.523-.03.854-.173,1.253a.762.762,0,0,0-.043.4c.015.089.108.1.19.1.18.013.183-.147.26-.244.166-.209-.034-.444.081-.675a.657.657,0,0,0,.474.525c-.153.121-.315.186-.366.3-.256.571-.9.827-1.127,1.414-.029.075-.085.086-.158.07-.127-.028-.263-.012-.275.136a.351.351,0,0,0,.277.336c.52.166,1.077.177,1.658.407-.11-.287-.022-.53-.138-.749-.1-.187-.022-.3.13-.428a9.257,9.257,0,0,1,1.1-.726c.723-.464,1.383-1.023,2.134-1.453.191-.11.53-.242.4-.578a.618.618,0,0,1,.156-.717c.327-.286.224-.539.059-.826a.661.661,0,0,1-.126-.324.571.571,0,0,1,.247.3c.151.314.361.634-.082.911a.346.346,0,0,0-.117.39.659.659,0,0,1,.561-.377.469.469,0,0,0,.319-.214,2.224,2.224,0,0,1,1.289-.823c.4-.091.48-.282.174-.573a1.92,1.92,0,0,1-.447-1.625c0-.222.013-.445,0-.667a.985.985,0,0,1,.185-.664c.334-.445.454-1.068,1.115-1.249-.189-.131-.387.035-.495-.1a.529.529,0,0,0-.853.059c-.288.335-.529.241-.819.112-.273-.122-.548-.347-.84-.274a.925.925,0,0,1-.972-.327c-.384-.391-.382-.506.08-.8.139-.088.272-.169.228-.364a6.946,6.946,0,0,1-.019-1.486,4.168,4.168,0,0,0-.431-1.46c-.032-.088-.07-.192-.189-.145a2.205,2.205,0,0,0-.758.295q-1.408,1.245-2.833,2.472a.248.248,0,0,0-.053.395c.1.137.161.3.248.445A2.738,2.738,0,0,1,32.561,26a1.054,1.054,0,0,0,.364.908c.169.2.354.228.523.009a.439.439,0,0,1,.561-.123.779.779,0,0,0,.336.091c.3-.027.419.146.455.416.056.423.087.864.635.966.032.006.056.052.083.08m-18.3,22.89c.372,0,.37,0,.8.249.06.034.155,0,.225.023.549.176,1.14.276,1.292,1a1.431,1.431,0,0,0,.535.7c.33.289.645.039.97.034.418-.006.391-.192.394-.465a.5.5,0,0,0-.335-.553c-.1-.035-.239-.081-.243-.178-.015-.384-.307-.328-.531-.345a1.065,1.065,0,0,1-.961-.463,1.506,1.506,0,0,0-.618-.566c-.11-.048-.228-.094-.2-.245s.137-.174.251-.218a4.582,4.582,0,0,0,.537-.232.668.668,0,0,1,.769,0c.193.136.393.039.6.006-.389.041-.534-.268-.714-.493-.1-.12-.117-.141-.259-.049a2.1,2.1,0,0,1-1.15.423,4.323,4.323,0,0,1-1.162-.383.045.045,0,0,1-.024-.03,1.427,1.427,0,0,0-.82-1c-.212-.123-.3-.182-.475,0a1.068,1.068,0,0,1-.348.248.565.565,0,0,0-.413.478.732.732,0,0,1-.346.58c-.156.086-.17.281.058.394a.639.639,0,0,0,.485.06,3.288,3.288,0,0,1,1.191-.178c.441.044.582.391.753.714.148.281-.212.277-.258.483" transform="translate(-10.777 -11.127)" fill="#3fc0c8"/>
    <path id="Path_47411" data-name="Path 47411" d="M0,546.351a.452.452,0,0,0,.182-.627c-.189-.432.022-.684.643-.8a3.055,3.055,0,0,0,.96-.31.61.61,0,0,1,.63.07,3.784,3.784,0,0,0,1.525.569c.17.015.263.16.381.261a.954.954,0,0,0,.863.214c.223-.047.4.1.6.158a.708.708,0,0,0,.73-.114,1.263,1.263,0,0,1,.464-.285.641.641,0,0,0,.559-.64.374.374,0,0,1,.673-.1c.283.572.871.618,1.295.949,0-.111-.123-.285.146-.27.189.01.356-.127.541-.181.2-.059.368-.1.47.1s.3.376.107.67a4.744,4.744,0,0,1-2.031,1.792,9.152,9.152,0,0,0-1.371.6c-.156.1-.368.109-.545.231-.232.16-.364.049-.292-.284a1.567,1.567,0,0,1-.722.186c-.289.034-.5-.06-.5-.43a.674.674,0,0,0-.652-.78,9.75,9.75,0,0,1-1.5-.525c-.133-.044-.233-.167-.333.065-.087.2-.326.073-.492.117-.289.076-.325.219-.247.451.106.317-.036.4-.332.448a1.41,1.41,0,0,1-1.627-1.069C.1,546.706.1,546.589,0,546.508Z" transform="translate(0 -501.748)" fill="#3fc0c8"/>
    <path id="Path_47412" data-name="Path 47412" d="M215.213,87.942a2.222,2.222,0,0,1-.532,1.795,4.689,4.689,0,0,1-1.39,1.168c-.31.147-.492.024-.57-.294a2.11,2.11,0,0,1,.188-1.333,11.952,11.952,0,0,1,1.3-2.134c.264-.383.5-.342.665.088.1.256.382.408.34.709" transform="translate(-195.961 -80.054)" fill="#3fc0c8"/>
    <path id="Path_47413" data-name="Path 47413" d="M287.065,16.348a.852.852,0,0,0-.761.273,1.424,1.424,0,0,1-.887.367,2.012,2.012,0,0,0-1.123.438c-.2.163-.375.182-.54-.018s-.034-.335.075-.517a1.443,1.443,0,0,1,1.2-.673,10.391,10.391,0,0,0,2.727-.8,5.033,5.033,0,0,1,.518-.173c.131-.037.273-.048.327.115a.28.28,0,0,1-.165.387,1.693,1.693,0,0,0-.9.548c-.081.115-.3.039-.469.051" transform="translate(-261.381 -14.028)" fill="#3fc0c8"/>
    <path id="Path_47414" data-name="Path 47414" d="M358.212,11.9c-.411-.274-.77.105-1.177.265a.677.677,0,0,1-.856-.437c-.1-.367.165-.665.508-.531a4.207,4.207,0,0,0,2.007.088c.546-.054,1.092-.042,1.638-.05.123,0,.32-.03.327.126s-.188.149-.309.138a4.865,4.865,0,0,0-1.475.323,2.434,2.434,0,0,1-.663.078" transform="translate(-328.165 -10.291)" fill="#3fc0c8"/>
    <path id="Path_47415" data-name="Path 47415" d="M434.882.309c.008-.269.179-.361.338-.279.768.394,1.537-.011,2.3.039.109.007.277-.093.313.048s-.148.183-.26.226A4.756,4.756,0,0,1,435.7.925c-.148,0-.242.133-.353.224a.338.338,0,0,1-.361.076c-.12-.072-.036-.22-.007-.325a3.29,3.29,0,0,1,.164-.352c.045-.108.26-.174.131-.315-.107-.117-.226.071-.392.075" transform="translate(-400.7 0)" fill="#3fc0c8"/>
    <path id="Path_47416" data-name="Path 47416" d="M241.881,54.047a.15.15,0,0,1-.122.146c-.3.028-.5.274-.773.36-.34.106-.652.207-.719.648-.036.236-.825.614-1.081.585a.163.163,0,0,1-.145-.111.155.155,0,0,1,.076-.2c.68-.374,1.14-1.034,1.826-1.4a1.113,1.113,0,0,1,.747-.174c.089.017.183.037.192.146" transform="translate(-220.239 -49.651)" fill="#3fc0c8"/>
  </g>
</svg>
