<?xml version="1.0" encoding="utf-8"?>
<!-- Generator: Adobe Illustrator 19.0.0, SVG Export Plug-In . SVG Version: 6.00 Build 0)  -->
<svg version="1.1" id="Layer_1" xmlns="http://www.w3.org/2000/svg" xmlns:xlink="http://www.w3.org/1999/xlink" x="0px" y="0px"
	 viewBox="-34.3 57.1 150.5 129.4" style="enable-background:new -34.3 57.1 150.5 129.4;" xml:space="preserve">
<style type="text/css">
	.st0{fill:#F1F5F8;}
	.st1{clip-path:url(#SVGID_2_);}
	.st2{fill:#3FC0C8;}
	.st3{clip-path:url(#SVGID_4_);}
	.st4{fill:none;}
	.st5{fill:none;stroke:#3FC0C8;stroke-width:3;}
</style>
<g id="Group_14839" transform="translate(-899.645 -355.048)">
	<path id="Path_47402" class="st0" d="M989.1,433.5c-25.3-24.7-63.6-28.6-93.8-8.7c-16,10.5-29.2,27.5-29.9,54.8
		c-0.2,9.7,1,17.7,3.4,24.4c9.5,27.1,59.5,29.9,62.2,30.1c1.8,0.1,3.6,0.3,5.4,0.5c6.2,0.8,12.4,2.1,18.4,3.9
		c8.6,2.6,19.7,4.4,30,1.5c1.8-0.5,3.5-1.1,5.2-1.9c5.8-2.7,12.2-5.2,16.6-12.3c3.7-6.4,6.3-13.4,7.7-20.6
		C1020.9,474.1,1006,450,989.1,433.5z"/>
	<g id="Group_14745" transform="translate(6 -1)">
		<g id="Group_14742" transform="translate(945 399)">
			<g id="Group_14739">
				<g>
					<defs>
						<rect id="SVGID_1_" x="-39" y="51" width="59" height="59"/>
					</defs>
					<clipPath id="SVGID_2_">
						<use xlink:href="#SVGID_1_"  style="overflow:visible;"/>
					</clipPath>
					<g id="Group_14738" class="st1">
						<path id="Path_47376" class="st2" d="M16.1,101.7c0,2.5-2,4.5-4.5,4.5H7.1V62.4h7.7c0.7,0,1.3,0.6,1.3,1.3L16.1,101.7z
							 M3.6,106.2H-31c-2.5,0-4.5-2-4.5-4.5V55.8c0-0.7,0.6-1.3,1.3-1.3H2.3c0.7,0,1.3,0.6,1.3,1.3L3.6,106.2z M14.8,59H7.1v-3.2
							c0-2.6-2.1-4.8-4.8-4.8h-36.5c-2.6,0-4.8,2.1-4.8,4.8v45.9c0,4.4,3.6,8,8,8h42.6c4.4,0,8-3.6,8-8V63.8
							C19.6,61.1,17.4,59,14.8,59"/>
					</g>
				</g>
			</g>
			<g id="Group_14741">
				<g>
					<defs>
						<rect id="SVGID_3_" x="-39" y="51" width="59" height="59"/>
					</defs>
					<clipPath id="SVGID_4_">
						<use xlink:href="#SVGID_3_"  style="overflow:visible;"/>
					</clipPath>
					<g id="Group_14740" class="st3">
						<path id="Path_47378" class="st2" d="M-30.4,87.8h11.3c0.9,0,1.7-0.8,1.7-1.7s-0.8-1.7-1.7-1.7h-11.3c-0.9,0-1.7,0.8-1.7,1.7
							S-31.3,87.8-30.4,87.8"/>
						<path id="Path_47379" class="st2" d="M-14.4,86.1c0,0.9,0.8,1.7,1.7,1.7c0,0,0,0,0,0h11.3c0.9,0,1.7-0.8,1.7-1.7
							c0-0.9-0.8-1.7-1.7-1.7c0,0,0,0,0,0h-11.3C-13.6,84.4-14.4,85.2-14.4,86.1C-14.4,86.1-14.4,86.1-14.4,86.1"/>
						<path id="Path_47380" class="st2" d="M-30.4,94.7h11.3c0.9,0,1.7-0.8,1.7-1.7s-0.8-1.7-1.7-1.7h-11.3c-0.9,0-1.7,0.8-1.7,1.7
							S-31.3,94.7-30.4,94.7"/>
						<path id="Path_47381" class="st2" d="M-12.7,94.7h11.3c0.9,0,1.7-0.8,1.7-1.7s-0.8-1.7-1.7-1.7h-11.3c-0.9,0-1.7,0.8-1.7,1.7
							S-13.6,94.7-12.7,94.7"/>
						<path id="Path_47382" class="st2" d="M-19,98.1h-11.3c-0.9,0-1.7,0.8-1.7,1.7s0.8,1.7,1.7,1.7H-19c0.9,0,1.7-0.8,1.7-1.7
							S-18,98.1-19,98.1"/>
						<path id="Path_47383" class="st2" d="M-1.3,98.1h-11.3c-0.9,0-1.7,0.8-1.7,1.7s0.8,1.7,1.7,1.7h11.3c0.9,0,1.7-0.8,1.7-1.7
							S-0.3,98.1-1.3,98.1"/>
					</g>
				</g>
			</g>
		</g>
		<g id="Rectangle_3350" transform="translate(952 406)">
			<path class="st4" d="M-34,51h22c2.8,0,5,2.2,5,5v13c0,2.8-2.2,5-5,5h-22c-2.8,0-5-2.2-5-5V56C-39,53.3-36.8,51-34,51z"/>
			<path class="st5" d="M-34,52.5h22c1.9,0,3.5,1.6,3.5,3.5v13c0,1.9-1.6,3.5-3.5,3.5h-22c-1.9,0-3.5-1.6-3.5-3.5V56
				C-37.5,54.1-35.9,52.5-34,52.5z"/>
		</g>
	</g>
</g>
</svg>
