<svg xmlns="http://www.w3.org/2000/svg" width="64.651" height="71.793" viewBox="0 0 64.651 71.793">
  <path id="Path_47763" data-name="Path 47763" d="M262.387,75.5l.236-1.254.751-.477v-.192h-.321l-.819.381v-.217l.547-.817.54-.289.255-.523H265l.261-.529V71.2l-.932-.2v-.356L265,70.25v-.612h.257l.368.713h.3v-.287l-.375-.338-.249-.483v-.257l.891-.664v-.5l-.369-.157V67.2l1.187-.543.206-.606h1.089l.26-.262v-.178l-.871-.382v-.221l.827-.449-.335-.273H267.7v-.264L269.1,63v-.636L269.76,62h.816v-.709l.441-.268V60.9l-.3-.271v-.4l1.048-1.273h.506l.39.56.657.28.79-.52-1.14-.288.809-.863v-.274l-.3-.2-.928.731h-.722v-.529l.3-.689,1.335-.182,1.475-1.2v1.2l.252.349h.3l.31-.57V55.4l-.478-.225v-.424l.568-.472h.259l.88.52.379.5h.414l.247-.658.408-.475v-.359l-.212-1.485.6-.484-.554-.337v-.548l.733-.553.707-.1v-.133l-.351-.27V49.1l.379-.532h.214l.325,1.117h.538l.359-.463.829.943h.538V49.8l-.779-.871V47.537l.374-.72h.405v2.109h.341V47.312l1-1.227v2.547l-.581.913h.419l.392-1.09.579-.519V46.787l.414-.677.245.777h.285l.234-1.4,1.376,1.677h.169V45.416l-1.127-.534V43.84h.259v.28h.428l.214-.268.79.635-.225.512h.425l.249-.515h.444l.667,1.47h.169l.33-1.888.776-1.153h.962v-.955l.466-.37v-.169l-.586-.46.295-.377v-.414l.65-.22.855.733.809-.407h.379l-.993,1.508-.442,1.584-.173,1.534h.615l.888-2.525,1.086-2.74h.417V41.5h.3l-.356,1.428h.356l.771-.873.543-3.433.313.262h.223l.227-.295h.5l.809.824v.423l-.534.375-.824.454-.214.534.83-.285.321.186-.364.985h.948L299.68,40.5l.336-.913H301l.342.985h.219l.19-.517h.987l.505.752,1.772.952-1.9,2.024-2.764-.339v.339l1.987,1.108,1.249.488.254,2.157-1.189.985-.312.891-.154.276-.5-.276v-1l.6-.69-.519-1.556-.7-.558-1.046-.321-.579-.8h-.555l-1.525.948h-.938l-.972,1V50.9l-.957.485-.42.738-.9.8h-.428l-.542-1.039h-.477l-.718.843-.886.238-.388-.31h-1.221l-.258-.884-1.654-2.211h-.832l-.178.228v.651l-.863.449h-1.422v.539l.489.325-.273,2.7h-.508l-2.624-.806-.846.437V55.8l-.46,1.093h-.624l-.427-.523h-.849l-1.035,1.111-.332,1.425-.842.748v.689l.472.871v.553l-2.02,2.514-.823,1.554-.387,1.1-.534.352h-.668l-.38.4-.587,4.479-2,2.975v.66l.975,1.182-.382.759v.706l-.546.471-.807-.419h-1.623l-1.1.886-1.461,1.634-.307,1.086.379.67v1.29l-.87,2.365.332,1.221-.41,2.245v1.49l1.457,1.283v1.094l-.582.876-1.031.565h-.407v.632l.554,1.018V98.1l-.488,1.211v1.422l-.42.575h-1.365l-.306.376v.813l-.667.838v2.026l-.849,1.291-1.216.431v-1.792l-.583-.493v-2.762h-.167l-.377.935h-.447v.622l.381.309v.8l-.847,1.278h-1.318l-.384-.752h-.3v.752l-1.425,1.092-.217.748-.836.244-2.049,1.689-.651-.789h-.223l-.3.9-.969.512h-.87l-.21-1.17h-.466l-.4.56-.2-.352h-.368l-.2.249h-.151l.368-1.313h-.091l-.5.237-1.074-1.176-1.3-2.04.457-1.5h.473l.245.455h.26l.178-.741,1.051-.857v-.194l.2-.131v-.534l.5-.435-.12-.218-.389.094-.517.421-.565-.254-.069-.347H242.4l-.121.73-.365.078-.065-.529h-.064l-.2.361-.57.22-.211.776h-.435l.128-.826.606-1.335.726-.668,1.271-.1,1.389-.156v-.309l-1.562-.088,1.524-1.521h.328v-.143l-.3-.233,1.112-1.116.178.677h.239l.245-.576.881-.456v-.079l-.956-.2-.266-.413h-.091l-2.153,1.932-.214.68h-.345l-.274-.582.189-.534h-.273l-.392.238h-.131l-.111.351h-.078l-.152-.471v-.914l1.486-1.091.376-.084-.06-.27-1.48.227-.3-.456v-.314l1.025-.324v-.3h-.657l.225-1h.966l.192.343h.228l.222-.336h1.1l.378.281h1.361v1.525l1.069-.4v-.78l1.716-.494v-.3l-.8-.275.85-.984v-.494h-.547l-1.065,1.971h-1.149l-.2-1.553h-.187l-.8,1.116h-.264l-.528-.409H244.5l-.307.285H243.06l-.476-.74.289-.926.846-.641v-.478l-.631-.327v-.978l.211-.28h.249l.088.44-.249.255.162.159.861-.573h.314l.631.622h1.1l.395-.211v-.186l-.741-.19v-.087l.59-.138v-.074h-1.377l-1.34-.2v-.333l.3-.114v-.127l-.31-.423v-.2h.476l.21.465h.18l.2-.249H246l.338.774h.214V86.28l.587-.762h.415l-.268,1.113h.457l.207-1.04.312-.4h-.738V84.118l1.6.214,1.407.362.322-.421-.307-.481h-.869l-.226-.155v-.1l.437-.126v-.155l-.334-.126v-.508l.417-.367.953.328.487-.88,1.092-.168.394-.594h.288l.127.537h.166l1.127-1.229h1.022v.994h.463l.35-1.028.7-.392.548.389v.978h1.692l.762-1.112,1.592-.771v-.591l-1.386.794-2.07.7-.585-.778-.353-.847.8-.636h.524l.308-1,.946-.954.263-.5.943-.767.624.767Z" transform="translate(-240.369 -38.589)" fill="#3fc0c8"/>
</svg>
