<svg xmlns="http://www.w3.org/2000/svg" width="28" height="28" viewBox="0 0 28 28">
  <path id="Icon_awesome-plus-circle" data-name="Icon awesome-plus-circle" d="M14.562.563a14,14,0,1,0,14,14A14,14,0,0,0,14.562.563Zm8.129,15.581a.679.679,0,0,1-.677.677H16.821v5.194a.679.679,0,0,1-.677.677H12.982a.679.679,0,0,1-.677-.677V16.821H7.111a.679.679,0,0,1-.677-.677V12.982a.679.679,0,0,1,.677-.677H12.3V7.111a.679.679,0,0,1,.677-.677h3.161a.679.679,0,0,1,.677.677V12.3h5.194a.679.679,0,0,1,.677.677Z" transform="translate(28.563 -0.563) rotate(90)" fill="#1b1b2d"/>
</svg>
