<svg xmlns="http://www.w3.org/2000/svg" xmlns:xlink="http://www.w3.org/1999/xlink" width="43.329" height="60.095" viewBox="0 0 43.329 60.095">
  <defs>
    <clipPath id="clip-path">
      <rect id="Rectangle_3368" data-name="Rectangle 3368" width="26.32" height="54.372" fill="#3fc0c8"/>
    </clipPath>
  </defs>
  <g id="Group_14823" data-name="Group 14823" transform="translate(18.596) rotate(20)">
    <g id="Group_14822" data-name="Group 14822" clip-path="url(#clip-path)">
      <path id="Path_47764" data-name="Path 47764" d="M2.021,36.116c-.306.067-.594-.032-.876.061a.215.215,0,0,1-.182-.024.524.524,0,0,0-.728-.079c-.171.1-.226-.141-.233-.284A1.452,1.452,0,0,1,.141,35.2a3.953,3.953,0,0,0,.242-1.31,4.952,4.952,0,0,1,.68-2.559A1.023,1.023,0,0,0,.99,30.11c-.474-.654-.607-.715.231-1.169a1.96,1.96,0,0,1,.878-.262c.107,0,.194,0,.165-.15a1.039,1.039,0,0,1,.256-.8,5.462,5.462,0,0,1,.706-.782,1.53,1.53,0,0,0,.476-.983,1.839,1.839,0,0,1,.325-.958,3.83,3.83,0,0,0,.691-2.026,2.824,2.824,0,0,1,.414-1.328.476.476,0,0,0-.1-.686.492.492,0,0,1-.168-.626A8.553,8.553,0,0,0,5.5,17.114a2.832,2.832,0,0,1,.463-1.182A3.105,3.105,0,0,0,6.4,14.385a2.58,2.58,0,0,1,.314-1.131,3.052,3.052,0,0,0,.061-2.481,9.822,9.822,0,0,1-.551-2.128A3.236,3.236,0,0,0,5.8,7.414a1.321,1.321,0,0,1-.112-1.223c.063-.157.086-.329.138-.491a.718.718,0,0,0-.2-.76c-.169-.177-.347-.346-.506-.532a.444.444,0,0,1,.022-.66c.8-.771,1.384-1.728,2.148-2.53a3.794,3.794,0,0,1,.387-.38A.775.775,0,0,1,8.45.655.78.78,0,0,0,9.473.346a.7.7,0,0,1,.98-.234c.036.023.1.046.1.075.047.39.39.329.63.406a.341.341,0,0,1,.28.4.33.33,0,0,1-.322.327c-.463.081-.6.5-.808.832-.066.107.013.225.121.3a.692.692,0,0,1,.317.463.531.531,0,0,0,.558.5.717.717,0,0,0,.713-.442c.056-.115.1-.235.159-.348a.524.524,0,0,1,.368-.282c.135-.03.217,0,.24.164.049.346.2.449.512.289a2.279,2.279,0,0,1,1.467-.1c.342.052.406.154.338.5-.035.179.032.192.163.139.108-.044.21-.1.314-.157a.3.3,0,0,1,.425.087c.124.2.245.161.419.08a3.741,3.741,0,0,1,1.005-.153,1.019,1.019,0,0,0,1.006-1.037c.05-.408.107-.447.513-.337.144.039.286.085.427.133a.718.718,0,0,0,.777-.114c.108-.1.183-.089.287.028a.609.609,0,0,0,1.01.029c.131-.133.191-.141.319,0a.827.827,0,0,0,1.167.149c.081-.052.159-.106.242-.155a.235.235,0,0,1,.3.015.263.263,0,0,1,.085.316,2.361,2.361,0,0,1-.147.283c-.063.109-.072.191.065.256a.377.377,0,0,1,.187.438c-.045.326-.1.652-.164.975a.744.744,0,0,0,.357.762.591.591,0,0,0,.742.047.456.456,0,0,1,.484-.027,5.805,5.805,0,0,1,1.042.677c.185.149.244.306.072.514-.149.18-.272.381-.415.566a1.1,1.1,0,0,0-.292.624c-.016.325-.361.53-.324.876-.553.185-.774.862-1.406.939a2.843,2.843,0,0,0-.545.177,1.578,1.578,0,0,0-1.144,1.29,2.961,2.961,0,0,1-.143.49.7.7,0,0,1-.738.537.737.737,0,0,0-.372.076c-.494.247-.511.48-.061.792a2.636,2.636,0,0,1,.777.653,1.882,1.882,0,0,1-.008,1.988c-.286.43-.288.451.028.864a.754.754,0,0,1,.144.663c-.071.289-.166.572-.244.86-.162.6-.072.783.5,1.012.275.11.314.3.064.5-.4.32-.82.609-1.232.912-.111.082-.226.161-.331.251a.759.759,0,0,0-.067,1.214,5.466,5.466,0,0,0,.561.472,1,1,0,0,1,.267,1.413,1.8,1.8,0,0,1-.177.265,1.512,1.512,0,0,0-.453,1.27.62.62,0,0,1-.55.788c-.1.018-.151.107-.207.186a.622.622,0,0,1-.98.151.429.429,0,0,0-.461-.093,2.428,2.428,0,0,1-1.686.014c-.22-.092-.535-.195-.673.04s.169.377.316.531c.353.369.721.725,1.082,1.087a1.266,1.266,0,0,1,.355,1.365,2.032,2.032,0,0,0,.884,2.191c.159.107.276.192.224.43s.137.346.357.32a1.393,1.393,0,0,1,.746.12.6.6,0,0,1,.352.88,1.81,1.81,0,0,1-.457.567c-.259.264-.247.419.057.605.157.1.282.2.247.4a.415.415,0,0,1-.374.343,4.246,4.246,0,0,1-.539.056c-.226.014-.276.126-.194.32a.538.538,0,0,0,.219.306,2.194,2.194,0,0,1,.8.848,2.507,2.507,0,0,0,.269.4.667.667,0,0,1,.169.8.814.814,0,0,0,.041.5.485.485,0,0,1-.017.372c-.082.137-.173.19-.29.033-.077-.1-.156-.2-.237-.3a.821.821,0,0,0-.725-.329,1.611,1.611,0,0,1-.925-.189.357.357,0,0,0-.523.14.97.97,0,0,0-.057,1.208,12.971,12.971,0,0,1,1.141,1.956c.276.562.474.611,1.054.4.2-.071.433-.284.612-.068s-.061.43-.172.623a.934.934,0,0,0-.177.563.56.56,0,0,1-.784.59c-.078-.027-.155-.051-.2.019-.217.321-.6.4-.89.6-.43.3-.495.421-.391.924a.691.691,0,0,1-.316.716,3.948,3.948,0,0,0-.759.815,2.494,2.494,0,0,0-.409,2.151c.166.675.446,1.31.652,1.97a2.646,2.646,0,0,1,.09,1.57c-.139.469-.293.586-.777.583a2.278,2.278,0,0,0-1.272.462,8.244,8.244,0,0,0-1.4,1.062,2.4,2.4,0,0,1-.373.3.875.875,0,0,1-1.148-.029,3.586,3.586,0,0,1-.366-.309,1.242,1.242,0,0,0-.933-.417,1.38,1.38,0,0,1-.583-.154,2.853,2.853,0,0,0-1.841-.179.989.989,0,0,1-1.052-.265.431.431,0,0,0-.657-.009,1.051,1.051,0,0,1-1.18.208.651.651,0,0,0-.744.229c-.152.164-.288.344-.454.492a.623.623,0,0,1-.82.083.583.583,0,0,1-.189-.739,3.38,3.38,0,0,1,.582-1.058A2.956,2.956,0,0,0,4.688,50.7a1.706,1.706,0,0,1,.4-.859.825.825,0,0,0,.168-.863.716.716,0,0,1,.076-.643,1,1,0,0,0,.1-.919,2.236,2.236,0,0,1,.025-1.562,1.424,1.424,0,0,0-.187-1.421.9.9,0,0,1-.075-.971A5.63,5.63,0,0,0,5.3,39.378a1.844,1.844,0,0,0-.448-.835.656.656,0,0,0-.869-.128c-.352.2-.688.427-1.038.628-.2.118-.438.227-.66.064a.712.712,0,0,1-.227-.724,1.332,1.332,0,0,1,.081-.308,1.1,1.1,0,0,0-.224-1.186c-.291-.352-.268-.456.109-.772m.594-.068c.17.05.291.088.414.12.413.108.527.055.679-.344a2.372,2.372,0,0,1,.462-.753.965.965,0,0,0,.171-.988.342.342,0,0,0-.256-.259c-.157-.031-.238.081-.295.195-.114.228-.2.467-.32.694a2.95,2.95,0,0,1-.854,1.335" transform="translate(0 0.001)" fill="#3fc0c8"/>
    </g>
  </g>
</svg>
