<svg xmlns="http://www.w3.org/2000/svg" xmlns:xlink="http://www.w3.org/1999/xlink" width="187.222" height="183.046" viewBox="0 0 187.222 183.046">
  <defs>
    <clipPath id="clip-path">
      <rect id="Rectangle_3351" data-name="Rectangle 3351" width="60.805" height="49.009" fill="#3fc0c8"/>
    </clipPath>
  </defs>
  <g id="Group_14838" data-name="Group 14838" transform="translate(-647.791 -340.551)">
    <path id="Path_47401" data-name="Path 47401" d="M106.965,25.506C81.011-1.368,46.6-4.27,22.764,19.255,10.163,31.692.883,51.26,4.263,82a100.909,100.909,0,0,0,6.513,27.288c12.318,30.094,56.882,31.372,59.36,31.5q2.408.127,4.823.405a85.022,85.022,0,0,1,16.868,3.742c7.965,2.622,18.022,4.267,26.753.59a24.246,24.246,0,0,0,4.286-2.335c4.738-3.236,10.071-6.284,12.876-14.415,2.108-6.1,3.482-13.822,3.849-23.511C140.925,69.984,124.254,43.406,106.965,25.506Z" transform="matrix(-0.407, 0.914, -0.914, -0.407, 839.5, 397.359)" fill="#f1f5f8"/>
    <g id="Group_14744" data-name="Group 14744" transform="matrix(0.921, -0.391, 0.391, 0.921, 703.843, 421.397)">
      <g id="Group_14743" data-name="Group 14743" transform="translate(0 0)" clip-path="url(#clip-path)">
        <path id="Path_47384" data-name="Path 47384" d="M3.562,16.879H7.107v5.849H3.562Zm7.108-4.15L35.414,7.538v25L10.67,27.344ZM21.83,38.05h-.357v-4.8l5.28,1.107A5.137,5.137,0,0,1,21.83,38.05m-3.919,5.882h0a1.512,1.512,0,1,1-3.023,0V31.869l3.023.634ZM38.977,5.349a1.786,1.786,0,1,1,3.572,0V34.724a1.786,1.786,0,1,1-3.572,0ZM1.781,26.291H7.107v2.5a1.782,1.782,0,0,0,1.416,1.743l2.8.588V43.933a5.055,5.055,0,0,0,3.916,4.94,5.109,5.109,0,0,0,1.169.136,5.078,5.078,0,0,0,5.064-5.076v-2.32h.357a8.708,8.708,0,0,0,8.418-6.521l5.379,1.128a5.349,5.349,0,0,0,10.484-1.5V5.349a5.349,5.349,0,0,0-10.484-1.5L8.523,9.539a1.781,1.781,0,0,0-1.416,1.743v2.035H1.781A1.781,1.781,0,0,0,0,15.1V24.51a1.781,1.781,0,0,0,1.781,1.781" transform="translate(0 0)" fill="#3fc0c8"/>
        <path id="Path_47385" data-name="Path 47385" d="M73.3,2.4,69.72,5.355A1.781,1.781,0,1,0,71.989,8.1l3.581-2.958A1.781,1.781,0,0,0,73.3,2.4" transform="translate(-17.854 -0.514)" fill="#3fc0c8"/>
        <path id="Path_47386" data-name="Path 47386" d="M69.72,45.786,73.3,48.744A1.781,1.781,0,0,0,75.569,46L71.989,43.04a1.781,1.781,0,0,0-2.269,2.747" transform="translate(-17.854 -11.019)" fill="#3fc0c8"/>
        <path id="Path_47387" data-name="Path 47387" d="M76.342,24.305H68.784a1.782,1.782,0,1,0,0,3.563h7.558a1.782,1.782,0,0,0,0-3.563" transform="translate(-17.319 -6.282)" fill="#3fc0c8"/>
      </g>
    </g>
  </g>
</svg>
