<?xml version="1.0" encoding="utf-8"?>
<!-- Generator: Adobe Illustrator 19.0.0, SVG Export Plug-In . SVG Version: 6.00 Build 0)  -->
<svg version="1.1" id="Layer_1" xmlns="http://www.w3.org/2000/svg" xmlns:xlink="http://www.w3.org/1999/xlink" x="0px" y="0px"
	 viewBox="-15.6 52.1 158.2 129.8" style="enable-background:new -15.6 52.1 158.2 129.8;" xml:space="preserve">
<style type="text/css">
	.st0{fill:#F1F5F8;}
	.st1{clip-path:url(#SVGID_2_);}
	.st2{fill:#3FC0C8;}
</style>
<g id="Group_14838" transform="translate(-647.791 -340.551)">
	<path id="Path_47401" class="st0" d="M746.7,514.7c35.1-12.8,51.8-43.1,40-74.4c-6.2-16.6-20.3-33-49.8-42.4
		c-8.9-3-18.2-4.7-27.6-5.2c-32.5-1-51.8,39.2-53,41.4c-0.7,1.4-1.5,2.8-2.3,4.2c-2.9,5-6.4,9.6-10.3,13.9
		c-5.6,6.2-11.2,14.7-11.4,24.2c0,1.6,0.1,3.3,0.4,4.9c1,5.6,1.6,11.8,7.9,17.6c4.7,4.4,11.2,8.8,19.9,13.1
		C692.2,527.6,723.3,523.2,746.7,514.7z"/>
	<g id="Group_14744" transform="matrix(0.921, -0.391, 0.391, 0.921, 703.843, 421.397)">
		<g>
			<defs>
				
					<rect id="SVGID_1_" x="-35.6" y="17.4" transform="matrix(-0.9205 0.3908 -0.3908 -0.9205 6.3599 82.5191)" width="60.8" height="49"/>
			</defs>
			<clipPath id="SVGID_2_">
				<use xlink:href="#SVGID_1_"  style="overflow:visible;"/>
			</clipPath>
			<g id="Group_14743" transform="translate(0 0)" class="st1">
				<path id="Path_47384" class="st2" d="M-32.1,34.3h3.5v5.8h-3.5V34.3z M-24.9,30.1l24.7-5.2l0,25l-24.7-5.2V30.1z M-13.8,55.5
					h-0.4v-4.8l5.3,1.1C-9.5,53.9-11.5,55.4-13.8,55.5 M-17.7,61.3L-17.7,61.3c0,0.8-0.6,1.5-1.5,1.6c-0.8,0-1.5-0.6-1.6-1.5
					c0,0,0-0.1,0-0.1V49.3l3,0.6V61.3z M3.4,22.8c0-1,0.8-1.8,1.8-1.8c1,0,1.8,0.8,1.8,1.8c0,0,0,0,0,0v29.4c0,1-0.8,1.8-1.8,1.8
					c-1,0-1.8-0.8-1.8-1.8c0,0,0,0,0,0V22.8z M-33.8,43.7h5.3v2.5c0,0.8,0.6,1.6,1.4,1.7l2.8,0.6v12.8c0,2.4,1.6,4.4,3.9,4.9
					c0.4,0.1,0.8,0.1,1.2,0.1c2.8,0,5.1-2.3,5.1-5.1V59h0.4c4,0,7.4-2.7,8.4-6.5L0,53.6c0.8,2.8,3.8,4.5,6.6,3.6
					c2.3-0.7,3.9-2.8,3.9-5.1V22.8c0-3-2.4-5.3-5.3-5.4c-2.4,0-4.5,1.6-5.1,3.9l-27.1,5.7c-0.8,0.2-1.4,0.9-1.4,1.7v2h-5.3
					c-1,0-1.8,0.8-1.8,1.8c0,0,0,0,0,0v9.4C-35.6,42.9-34.8,43.7-33.8,43.7L-33.8,43.7"/>
				<path id="Path_47385" class="st2" d="M19.8,19.3l-3.6,3c-0.8,0.6-0.9,1.7-0.3,2.5c0.6,0.8,1.7,0.9,2.5,0.3c0,0,0,0,0.1,0l3.6-3
					c0.7-0.7,0.8-1.8,0.1-2.5C21.6,18.8,20.6,18.7,19.8,19.3"/>
				<path id="Path_47386" class="st2" d="M16.2,52.2l3.6,3c0.8,0.6,1.9,0.5,2.5-0.3c0.6-0.7,0.5-1.8-0.2-2.4l-3.6-3
					c-0.8-0.6-1.9-0.5-2.5,0.2C15.4,50.4,15.5,51.5,16.2,52.2"/>
				<path id="Path_47387" class="st2" d="M23.4,35.4h-7.6c-1,0-1.8,0.8-1.8,1.7c0,1,0.8,1.8,1.7,1.8c0,0,0.1,0,0.1,0h7.6
					c1,0,1.8-0.8,1.7-1.8C25.1,36.2,24.4,35.4,23.4,35.4"/>
			</g>
		</g>
	</g>
</g>
</svg>
