<svg xmlns="http://www.w3.org/2000/svg" xmlns:xlink="http://www.w3.org/1999/xlink" width="198.096" height="198.146" viewBox="0 0 198.096 198.146">
  <defs>
    <clipPath id="clip-path">
      <rect id="Rectangle_3354" data-name="Rectangle 3354" width="54.652" height="58.942" fill="#3fc0c8"/>
    </clipPath>
  </defs>
  <g id="Group_14837" data-name="Group 14837" transform="translate(-329 -325.451)">
    <path id="Path_47400" data-name="Path 47400" d="M110.833,26.714C83.651.2,48.073-3.259,23.781,19.077,10.939,30.884,1.628,49.66,5.548,79.5a94.99,94.99,0,0,0,7.108,26.55C25.8,135.424,71.844,137.5,74.4,137.673q2.489.168,4.987.483A94.713,94.713,0,0,1,96.866,142.1c8.263,2.689,18.673,4.472,27.64,1.075a24.616,24.616,0,0,0,4.394-2.181c4.849-3.044,10.314-5.9,13.1-13.718,2.092-5.87,3.4-13.321,3.647-22.7C146.529,70.43,128.939,44.376,110.833,26.714Z" transform="matrix(0.629, -0.777, 0.777, 0.629, 322.705, 435.931)" fill="#f1f5f8"/>
    <g id="Group_14752" data-name="Group 14752" transform="translate(401 397.591)">
      <g id="Group_14751" data-name="Group 14751" clip-path="url(#clip-path)">
        <path id="Path_47390" data-name="Path 47390" d="M18.264,37.469a1.793,1.793,0,0,1-.571,1.306,1.738,1.738,0,0,1-1.21.475H11.651a1.717,1.717,0,0,1-.341-.037,1.781,1.781,0,0,1,0-3.5,1.718,1.718,0,0,1,.341-.037h4.831a1.738,1.738,0,0,1,1.21.475,1.8,1.8,0,0,1,.571,1.314" transform="translate(-2.545 -9.2)" fill="#3fc0c8"/>
        <path id="Path_47391" data-name="Path 47391" d="M46.643,35.683H27.079c-.687,0-1.245.8-1.245,1.783s.557,1.783,1.245,1.783H46.643c.688,0,1.245-.8,1.245-1.783s-.557-1.783-1.245-1.783" transform="translate(-6.661 -9.201)" fill="#3fc0c8"/>
        <path id="Path_47392" data-name="Path 47392" d="M18.264,46.959a1.793,1.793,0,0,1-.571,1.306,1.738,1.738,0,0,1-1.21.475H11.651a1.718,1.718,0,0,1-.341-.037,1.781,1.781,0,0,1,0-3.5,1.718,1.718,0,0,1,.341-.037h4.831a1.738,1.738,0,0,1,1.21.475,1.8,1.8,0,0,1,.571,1.314" transform="translate(-2.545 -11.647)" fill="#3fc0c8"/>
        <path id="Path_47393" data-name="Path 47393" d="M46.643,45.174H27.079c-.687,0-1.245.8-1.245,1.783s.557,1.783,1.245,1.783H46.643c.688,0,1.245-.8,1.245-1.783s-.557-1.783-1.245-1.783" transform="translate(-6.661 -11.648)" fill="#3fc0c8"/>
        <path id="Path_47394" data-name="Path 47394" d="M18.264,56.631a1.769,1.769,0,0,1-.571,1.306,1.738,1.738,0,0,1-1.21.475H11.651a1.779,1.779,0,0,1-.341-3.525,1.718,1.718,0,0,1,.341-.037h4.831a1.738,1.738,0,0,1,1.21.475,1.769,1.769,0,0,1,.571,1.306" transform="translate(-2.545 -14.143)" fill="#3fc0c8"/>
        <path id="Path_47395" data-name="Path 47395" d="M46.643,54.847H27.079c-.687,0-1.245.8-1.245,1.783s.557,1.783,1.245,1.783H46.643c.688,0,1.245-.8,1.245-1.783s-.557-1.783-1.245-1.783" transform="translate(-6.661 -14.142)" fill="#3fc0c8"/>
        <path id="Path_47396" data-name="Path 47396" d="M51.314,9.42H46.92v3.562h4.394a2,2,0,0,1,2,2V55.812a2,2,0,0,1-2,1.989H14.169a2,2,0,0,1-2-1.989v-5H8.61v5a5.565,5.565,0,0,0,5.559,5.559H51.314a5.565,5.565,0,0,0,5.559-5.559V14.979A5.565,5.565,0,0,0,51.314,9.42" transform="translate(-2.22 -2.429)" fill="#3fc0c8"/>
        <path id="Path_47397" data-name="Path 47397" d="M42.711,0H5.566A5.567,5.567,0,0,0,0,5.559V46.392a5.567,5.567,0,0,0,5.566,5.559H42.711a5.565,5.565,0,0,0,5.559-5.559V5.559A5.565,5.565,0,0,0,42.711,0M44.7,46.392a1.989,1.989,0,0,1-1.989,1.989H5.566a1.993,1.993,0,0,1-2-1.989V5.559a2,2,0,0,1,2-2H42.711a2,2,0,0,1,1.989,2Z" fill="#3fc0c8"/>
        <path id="Path_47398" data-name="Path 47398" d="M25.736,25.34a2.65,2.65,0,0,1-2.609-3.074l.545-3.344-2.208-1.983a2.644,2.644,0,0,1,1.294-4.571l3.042-.554,1.71-2.944a2.645,2.645,0,0,1,4.575,0l1.709,2.943,3.044.554a2.645,2.645,0,0,1,1.291,4.572L35.92,18.922l.545,3.344a2.632,2.632,0,0,1-1.074,2.578,2.681,2.681,0,0,1-2.788.178L29.8,23.518l-2.808,1.505a2.644,2.644,0,0,1-1.252.318m4.06-5.4,3.389,1.817-.656-4.027,2.719-2.44L31.8,14.658l-2-3.444-2,3.443-3.451.629,2.719,2.44-.656,4.027Zm-.44-9.482h0Zm.883,0h0" transform="translate(-5.308 -1.947)" fill="#3fc0c8"/>
      </g>
    </g>
  </g>
</svg>
