<?xml version="1.0" encoding="utf-8"?>
<!-- Generator: Adobe Illustrator 19.0.0, SVG Export Plug-In . SVG Version: 6.00 Build 0)  -->
<svg version="1.1" id="Layer_1" xmlns="http://www.w3.org/2000/svg" xmlns:xlink="http://www.w3.org/1999/xlink" x="0px" y="0px"
	 viewBox="2.4 62 161.7 128.4" style="enable-background:new 2.4 62 161.7 128.4;" xml:space="preserve">
<style type="text/css">
	.st0{fill:#F1F5F8;}
	.st1{clip-path:url(#SVGID_2_);}
	.st2{fill:#3FC0C8;}
</style>
<g id="Group_14837" transform="translate(-329 -325.451)">
	<path id="Path_47400" class="st0" d="M392.2,388.5c-37.7,4.4-62.8,29.9-60.7,62.8c1.1,17.4,9.8,36.4,35.5,52.2
		c7.8,4.9,16.2,8.7,25.1,11.2c31.1,8.3,61.7-26.2,63.4-28.1c1.1-1.2,2.3-2.4,3.5-3.6c4.3-4.1,9-7.9,14.1-11.1
		c7.3-4.7,15.2-11.7,18.2-20.8c0.5-1.6,0.9-3.2,1.1-4.8c0.7-5.7,1.9-11.7-2.4-18.8c-3.2-5.3-8.2-11-15.3-17.1
		C448.6,388.2,417.3,385.5,392.2,388.5z"/>
	<g id="Group_14752" transform="translate(401 397.591)">
		<g>
			<defs>
				<rect id="SVGID_1_" x="-21" y="21.9" width="54.7" height="58.9"/>
			</defs>
			<clipPath id="SVGID_2_">
				<use xlink:href="#SVGID_1_"  style="overflow:visible;"/>
			</clipPath>
			<g id="Group_14751" class="st1">
				<path id="Path_47390" class="st2" d="M-5.3,50.1c0,0.5-0.2,1-0.6,1.3c-0.3,0.3-0.8,0.5-1.2,0.5h-4.8c-0.1,0-0.2,0-0.3,0
					c-1-0.2-1.6-1.1-1.4-2.1c0.1-0.7,0.7-1.3,1.4-1.4c0.1,0,0.2,0,0.3,0h4.8c0.4,0,0.9,0.2,1.2,0.5C-5.5,49.1-5.3,49.6-5.3,50.1"/>
				<path id="Path_47391" class="st2" d="M19,48.3H-0.6c-0.7,0-1.2,0.8-1.2,1.8s0.6,1.8,1.2,1.8H19c0.7,0,1.2-0.8,1.2-1.8
					S19.7,48.3,19,48.3"/>
				<path id="Path_47392" class="st2" d="M-5.3,57.2c0,0.5-0.2,1-0.6,1.3c-0.3,0.3-0.8,0.5-1.2,0.5h-4.8c-0.1,0-0.2,0-0.3,0
					c-1-0.2-1.6-1.1-1.4-2.1c0.1-0.7,0.7-1.3,1.4-1.4c0.1,0,0.2,0,0.3,0h4.8c0.4,0,0.9,0.2,1.2,0.5C-5.5,56.2-5.3,56.7-5.3,57.2"/>
				<path id="Path_47393" class="st2" d="M19,55.4H-0.6c-0.7,0-1.2,0.8-1.2,1.8s0.6,1.8,1.2,1.8H19c0.7,0,1.2-0.8,1.2-1.8
					S19.7,55.4,19,55.4"/>
				<path id="Path_47394" class="st2" d="M-5.3,64.3c0,0.5-0.2,1-0.6,1.3c-0.3,0.3-0.8,0.5-1.2,0.5h-4.8c-1,0-1.8-0.8-1.8-1.8
					c0-0.9,0.6-1.6,1.4-1.7c0.1,0,0.2,0,0.3,0h4.8c0.4,0,0.9,0.2,1.2,0.5C-5.5,63.4-5.3,63.8-5.3,64.3"/>
				<path id="Path_47395" class="st2" d="M19,62.6H-0.6c-0.7,0-1.2,0.8-1.2,1.8c0,1,0.6,1.8,1.2,1.8H19c0.7,0,1.2-0.8,1.2-1.8
					C20.2,63.4,19.7,62.6,19,62.6"/>
				<path id="Path_47396" class="st2" d="M28.1,28.8h-4.4v3.6h4.4c1.1,0,2,0.9,2,2v40.8c0,1.1-0.9,2-2,2H-9.1c-1.1,0-2-0.9-2-2v-5
					h-3.6v5c0,3.1,2.5,5.6,5.6,5.6h37.1c3.1,0,5.6-2.5,5.6-5.6V34.4C33.6,31.3,31.2,28.8,28.1,28.8"/>
				<path id="Path_47397" class="st2" d="M21.7,21.9h-37.1c-3.1,0-5.6,2.5-5.6,5.6v40.8c0,3.1,2.5,5.6,5.6,5.6h37.1
					c3.1,0,5.6-2.5,5.6-5.6V27.4C27.3,24.3,24.8,21.9,21.7,21.9 M23.7,68.2c0,1.1-0.9,2-2,2h-37.1c-1.1,0-2-0.9-2-2c0,0,0,0,0,0
					V27.4c0-1.1,0.9-2,2-2h37.1c1.1,0,2,0.9,2,2L23.7,68.2z"/>
				<path id="Path_47398" class="st2" d="M-0.6,45.2c-1.5,0-2.6-1.2-2.6-2.7c0-0.1,0-0.3,0-0.4l0.5-3.3l-2.2-2
					c-1.1-1-1.2-2.6-0.2-3.7c0.4-0.4,0.9-0.7,1.5-0.8l3-0.6l1.7-2.9c0.7-1.3,2.4-1.7,3.6-1c0.4,0.2,0.7,0.6,1,1l1.7,2.9l3,0.6
					c1.4,0.3,2.4,1.6,2.1,3.1c-0.1,0.6-0.4,1.1-0.8,1.5l-2.2,2l0.5,3.3c0.2,1-0.3,2-1.1,2.6c-0.8,0.6-1.9,0.6-2.8,0.2l-2.8-1.5
					l-2.8,1.5C0.3,45.1-0.1,45.2-0.6,45.2 M3.5,39.8l3.4,1.8l-0.7-4l2.7-2.4l-3.5-0.6l-2-3.4l-2,3.4L-2,35.2l2.7,2.4l-0.7,4
					L3.5,39.8z M3.1,30.4L3.1,30.4z M3.9,30.4L3.9,30.4"/>
			</g>
		</g>
	</g>
</g>
</svg>
