<svg xmlns="http://www.w3.org/2000/svg" width="173.434" height="149.025" viewBox="0 0 173.434 149.025">
  <g id="Group_15879" data-name="Group 15879" transform="translate(-0.001)">
    <path id="Path_47399" data-name="Path 47399" d="M128.052,117.1c-29.36,24.048-70.632,24.579-101.059.482C10.909,104.845-1.683,85.491.184,56.261c.66-10.339,2.759-18.8,5.892-25.717C18.766,2.518,72.4,4.208,75.375,4.246q2.894.036,5.786-.073a118.373,118.373,0,0,0,20.066-2.482c9.414-1.991,21.419-2.909,32.21,1.185a37.178,37.178,0,0,1,5.335,2.518c5.945,3.41,12.592,6.679,16.557,14.652,2.979,5.984,5.191,13.47,6.329,22.776C165.8,76.711,147.608,101.083,128.052,117.1Z" transform="matrix(-0.996, 0.087, -0.087, -0.996, 173.434, 134.884)" fill="#f1f5f8"/>
  </g>
</svg>
