<svg xmlns="http://www.w3.org/2000/svg" width="60.024" height="46.69" viewBox="0 0 60.024 46.69">
  <g id="Group_13991" data-name="Group 13991" transform="translate(216 -50.18)">
    <path id="Path_27326" data-name="Path 27326" d="M96.879,675.041c.311.044.4.233.5.481a.654.654,0,0,0,1.045.358.589.589,0,0,1,.911.2,1.072,1.072,0,0,0,1.534.4,2.553,2.553,0,0,1,1.62-.121c.594.1.6.745,1.094.95-.169.241-.4.191-.6.2-.475.031-.555.3-.448.647.348,1.132-.238,1.909-1.629,2.109a10.573,10.573,0,0,0-2.885.677c-.07.031-.171.032-.217.079-1.25,1.272-2.958.722-4.5.736a7.062,7.062,0,0,0-3.55.7c-.519.293-.718.576-.384,1.082.089.135.273.278.074.434a.449.449,0,0,1-.573-.045c-.284-.193-.619-.318-.795.047-.605,1.255-2,1.8-3,2.694-.844.756-1.77,1.44-2.658,2.158a.749.749,0,0,0-.323.809c.217.961-.226,1.962.392,2.915a5.125,5.125,0,0,0,.912,1.078c.237.21.448.565-.018.665a15.375,15.375,0,0,1-1.958.659,3.062,3.062,0,0,0-2.216,1.213,17.345,17.345,0,0,1-1.209,1.4,1.914,1.914,0,0,0-.594,1.189c-.068.583-.536.82-1.152.565a2.859,2.859,0,0,0-2.829-.07c-.206.13-.591.018-.84.118a2.206,2.206,0,0,0-1.379,1.06,2.043,2.043,0,0,1-1.291,1.238,1.379,1.379,0,0,0-.466.357c-.615.583-.613.585-1.019-.109a1.743,1.743,0,0,0-1.921-.338,1.187,1.187,0,0,1-1.609-.148,3.5,3.5,0,0,0-2.055-.691,4,4,0,0,1-1.3-.3,8.145,8.145,0,0,0-5.91-.488,1.319,1.319,0,0,1-.858-.043,2.791,2.791,0,0,0-2.836.5,3.851,3.851,0,0,1-.852.486c-1.206.534-1.445.457-2.12-.619a.921.921,0,0,0-.3-.322c-.927-.519-1.4-1.353-1.043-2.175a.71.71,0,0,0-.188-.93c-.338-.34-.464-.67.155-.862.245-.076.321-.234.214-.446a6.914,6.914,0,0,0-2.413-3.067,2.665,2.665,0,0,0-.956-.347c-.788-.146-1.08-.6-.749-1.247a1.63,1.63,0,0,0,.224-1c-.062-.457.365-.643.66-.89a2.6,2.6,0,0,1,2.265-.856c.612.109.78-.332.972-.732.215-.45-.223-.47-.474-.569-.287-.113-.305-.3-.321-.515a1.745,1.745,0,0,0-.308-.8c-.157-.247-.2-.5.145-.664a.9.9,0,0,0,.482-.607c.082-.277.305-.368.638-.409a1.473,1.473,0,0,0,1.474-1.447c.035-.331.034-.563-.42-.713s-.415-.554-.371-.922c.139-1.169.133-1.17-.184-1.877a3.391,3.391,0,0,1,1.587.335c.528.175.76.034.876-.368a4.239,4.239,0,0,1,.707-1.161c.261-.382.655-.684.19-1.238-.252-.3.133-.5.512-.449.62.084.807-.143.734-.675-.083-.607.4-1.042.629-1.555.192-.426.688-.8.211-1.349-.131-.15.025-.368.183-.41.985-.259,1.686-1.06,2.887-.966.75.059.922-.84,1.519-1.167.117-.064-.171-.807-.562-1a.651.651,0,0,1-.4-.882c.169-.644-.188-.978-.835-1.167a5.831,5.831,0,0,1-1.308-.508,1.759,1.759,0,0,0-1.654-.073.935.935,0,0,1-1.343-.317c-.292-.447-.906-.452-1.438-.477-.21-.01-.421.04-.63.031-.173-.008-.4.017-.453-.205-.046-.2.091-.3.276-.371s.384-.15.573-.229c.119-.05.226-.1.2-.256a2.371,2.371,0,0,0-1.358-1.056,4.938,4.938,0,0,0-2.638.381.5.5,0,0,1,.091-.681c.392-.334.88-.594.992-1.129.009-.045.117-.085.187-.1.257-.062.681.065.689-.293.007-.323-.5-.2-.655-.4l.893-.72c.131-.106.325-.193.195-.4-.117-.187-.3-.169-.487-.112s-.394.13-.6.18c-.143.035-.305.142-.441.008s-.041-.265.076-.367c.145-.127.233-.269.08-.432-.462-.494-.153-1.121-.447-1.683-.19-.363.477-.591.893-.613a2.63,2.63,0,0,0,1.137-.2.411.411,0,0,1,.45-.01c.488.461,1.093.254,1.654.32.583.069.972.009,1.027-.625.029-.331,2.047-.92,2.259-.653.432.542,1.1.331,1.615.576.214.1.54.138.5.38-.17,1.035.936,1.268,1.48,1.356,1.419.229,2.615.975,4,1.219a1.707,1.707,0,0,0,.544.088c.611-.115,1.1-.035,1.361.553a.367.367,0,0,0,.237.181c1.492.182,2.379,1.315,3.618,1.9a10.417,10.417,0,0,0,3.6.873,4.809,4.809,0,0,1,3.119,1.065,2.711,2.711,0,0,0,1.794.5,2.029,2.029,0,0,1,1.508.707,3.4,3.4,0,0,0,2.279.894c.447.071.907.052,1.1.547a.506.506,0,0,0,.3.221c.68.194,1.069.415.543,1.113-.2.269.17.6.6.647.123.013.3-.118.374-.074a14.5,14.5,0,0,1,2.357,1.455c.392.342.54.826,1.25.763.506-.045.806.318,1.061.67.128.176.17.46.45.465a18.428,18.428,0,0,1,2.647.742c.387.063.688.052.773-.363.088-.431.473-.466.774-.276.442.279,1.091.343,1.278.915.115.35.5.184.739.31.145.31-.053.6-.026.905a1.174,1.174,0,0,0,1.54.9C96.531,675.026,96.7,674.942,96.879,675.041Z" transform="translate(-259.56 -605.574)" fill="#3fc0c8"/>
  </g>
</svg>
