<?xml version="1.0" encoding="utf-8"?>
<!-- Generator: Adobe Illustrator 19.0.0, SVG Export Plug-In . SVG Version: 6.00 Build 0)  -->
<svg version="1.1" id="Layer_1" xmlns="http://www.w3.org/2000/svg" xmlns:xlink="http://www.w3.org/1999/xlink" x="0px" y="0px"
	 viewBox="2.4 62 161.7 128.4" style="enable-background:new 2.4 62 161.7 128.4;" xml:space="preserve">
<style type="text/css">
	.st0{fill:#F1F5F8;}
	.st1{clip-path:url(#SVGID_2_);}
	.st2{fill:#3FC0C8;}
	.st3{clip-path:url(#SVGID_4_);}
	.st4{fill:none;stroke:#3FC0C8;stroke-width:3;}
</style>
<g id="Group_14840" transform="translate(-1106.038 -328.451)">
	<path id="Path_47403" class="st0" d="M1169.2,391.5c-37.7,4.4-62.8,29.9-60.7,62.8c1.1,17.4,9.8,36.4,35.5,52.2
		c7.8,4.9,16.2,8.7,25.1,11.2c31.1,8.3,61.7-26.2,63.4-28.1c1.1-1.2,2.3-2.4,3.5-3.6c4.3-4.1,9-7.9,14.1-11.1
		c7.3-4.7,15.2-11.7,18.2-20.8c0.5-1.6,0.9-3.2,1.1-4.8c0.7-5.7,1.9-11.7-2.4-18.8c-3.2-5.3-8.2-11-15.3-17.1
		C1225.6,391.2,1194.3,388.5,1169.2,391.5z"/>
	<g id="Group_14750" transform="translate(1172 403.828)">
		<g id="Group_14747" transform="translate(0 0.171)">
			<g>
				<defs>
					<rect id="SVGID_1_" x="-21" y="21.9" width="67" height="57"/>
				</defs>
				<clipPath id="SVGID_2_">
					<use xlink:href="#SVGID_1_"  style="overflow:visible;"/>
				</clipPath>
				<g id="Group_14746" transform="translate(0 0)" class="st1">
					<path id="Path_47388" class="st2" d="M39.9,66h-54.6c-1.2,0.1-2.3-0.8-2.4-2.1v-2.4h59.4v2.4C42.2,65.1,41.2,66.1,39.9,66
						 M19.6,75.7H5.7l2.6-6.4H17L19.6,75.7z M-14.6,25.1h54.6c1.2-0.1,2.3,0.8,2.4,2.1v31h-59.4v-31C-17,25.9-15.9,25-14.6,25.1
						 M39.9,21.7h-54.6c-3.5,0-6.4,2.4-6.4,5.4v36.8c0,3,2.9,5.4,6.4,5.4H4.1l-2.6,6.4h-3.4c-0.9-0.1-1.8,0.5-1.9,1.4
						c-0.1,0.9,0.5,1.8,1.4,1.9c0.2,0,0.3,0,0.5,0h28.9c0.9,0.1,1.8-0.5,1.9-1.4s-0.5-1.8-1.4-1.9c-0.2,0-0.3,0-0.5,0h-3.4l-2.6-6.4
						h18.8c3.5,0,6.4-2.4,6.4-5.4V27.1C46.3,24.1,43.4,21.7,39.9,21.7"/>
				</g>
			</g>
		</g>
		<g id="Group_14749" transform="translate(0 0.171)">
			<g>
				<defs>
					<rect id="SVGID_3_" x="-21" y="21.9" width="56" height="56"/>
				</defs>
				<clipPath id="SVGID_4_">
					<use xlink:href="#SVGID_3_"  style="overflow:visible;"/>
				</clipPath>
				<g id="Group_14748" class="st3">
					<path id="Path_47389" class="st4" d="M18.2,40.5l-7.7-4.4c-1-0.6-2.3-0.2-2.8,0.8c-0.2,0.3-0.3,0.7-0.3,1v8.8
						c0,1.1,0.9,2.1,2.1,2.1c0.4,0,0.7-0.1,1-0.3l7.7-4.4c1-0.6,1.3-1.8,0.8-2.8C18.8,41,18.6,40.7,18.2,40.5"/>
				</g>
			</g>
		</g>
	</g>
</g>
</svg>
