<svg id="Group_39" data-name="Group 39" xmlns="http://www.w3.org/2000/svg" xmlns:xlink="http://www.w3.org/1999/xlink" width="81.455" height="88.864" viewBox="0 0 81.455 88.864">
  <defs>
    <clipPath id="clip-path">
      <rect id="Rectangle_26" data-name="Rectangle 26" width="81.455" height="88.864" fill="#3fc0c8"/>
    </clipPath>
  </defs>
  <g id="Group_33" data-name="Group 33" clip-path="url(#clip-path)">
    <path id="Path_29" data-name="Path 29" d="M44.911,53.865A31.588,31.588,0,0,0,59.573,80.019a10.579,10.579,0,0,1,4.952,8.937V98.6a1.508,1.508,0,0,0,1.509,1.509h3.018a6.043,6.043,0,0,0,6.037,6.037h3.018a6.043,6.043,0,0,0,6.037-6.037h3.018A1.508,1.508,0,0,0,88.671,98.6V88.981a10.4,10.4,0,0,1,4.72-8.816A31.675,31.675,0,0,0,74.875,21.678,31.949,31.949,0,0,0,44.911,53.865m33.2,49.26H75.089a3.022,3.022,0,0,1-3.018-3.018h9.055a3.022,3.022,0,0,1-3.018,3.018m7.546-6.037H67.543V94.07h18.11Zm0-8.107v2.071H67.543v-2.1c0-.311-.038-.615-.059-.923H85.712c-.022.316-.06.629-.06.948M75.034,24.692A28.653,28.653,0,0,1,91.791,77.607a13.168,13.168,0,0,0-5.531,7.409H66.933a13.644,13.644,0,0,0-5.736-7.54A28.578,28.578,0,0,1,47.929,53.815,28.9,28.9,0,0,1,75.034,24.692" transform="translate(-35.87 -17.279)" fill="#3fc0c8"/>
    <path id="Path_30" data-name="Path 30" d="M160.47,140.261A10.564,10.564,0,1,0,149.906,129.7a10.576,10.576,0,0,0,10.564,10.564m0-18.11a7.546,7.546,0,1,1-7.546,7.546,7.555,7.555,0,0,1,7.546-7.546" transform="translate(-119.742 -95.161)" fill="#3fc0c8"/>
    <rect id="Rectangle_13" data-name="Rectangle 13" width="3.018" height="3.018" transform="translate(39.218 61.7)" fill="#3fc0c8"/>
    <rect id="Rectangle_14" data-name="Rectangle 14" width="3.018" height="3.018" transform="translate(33.182 61.7)" fill="#3fc0c8"/>
    <rect id="Rectangle_15" data-name="Rectangle 15" width="3.018" height="3.018" transform="translate(45.255 61.7)" fill="#3fc0c8"/>
    <rect id="Rectangle_16" data-name="Rectangle 16" width="3.018" height="6.037" transform="translate(19.057 1.509) rotate(-30.001)" fill="#3fc0c8"/>
    <rect id="Rectangle_17" data-name="Rectangle 17" width="3.018" height="6.037" transform="translate(4.702 16.969) rotate(-60)" fill="#3fc0c8"/>
    <rect id="Rectangle_18" data-name="Rectangle 18" width="6.037" height="3.018" transform="translate(0 34.517)" fill="#3fc0c8"/>
    <rect id="Rectangle_19" data-name="Rectangle 19" width="6.037" height="3.018" transform="translate(4.702 55.083) rotate(-30)" fill="#3fc0c8"/>
    <rect id="Rectangle_20" data-name="Rectangle 20" width="6.037" height="3.018" transform="translate(19.057 70.542) rotate(-59.999)" fill="#3fc0c8"/>
    <rect id="Rectangle_21" data-name="Rectangle 21" width="3.018" height="6.037" transform="matrix(0.866, -0.5, 0.5, 0.866, 56.766, 66.824)" fill="#3fc0c8"/>
    <rect id="Rectangle_22" data-name="Rectangle 22" width="3.018" height="6.037" transform="matrix(0.5, -0.866, 0.866, 0.5, 70.016, 54.678)" fill="#3fc0c8"/>
    <rect id="Rectangle_23" data-name="Rectangle 23" width="6.037" height="3.018" transform="translate(75.419 34.517)" fill="#3fc0c8"/>
    <rect id="Rectangle_24" data-name="Rectangle 24" width="6.037" height="3.018" transform="matrix(0.866, -0.5, 0.5, 0.866, 70.016, 17.373)" fill="#3fc0c8"/>
    <rect id="Rectangle_25" data-name="Rectangle 25" width="6.037" height="3.018" transform="matrix(0.5, -0.866, 0.866, 0.5, 56.766, 5.228)" fill="#3fc0c8"/>
    <path id="Path_31" data-name="Path 31" d="M83.915,80.306H87.48q.13.548.292,1.088l-3.087,1.783a1.508,1.508,0,0,0-.553,2.061l3.018,5.228a1.511,1.511,0,0,0,.917.7,1.54,1.54,0,0,0,1.145-.15l3.074-1.776q.389.413.8.8l-1.776,3.074a1.51,1.51,0,0,0,.553,2.062L97.093,98.2a1.536,1.536,0,0,0,1.145.15,1.511,1.511,0,0,0,.917-.7l1.782-3.087q.539.161,1.088.292v3.565a1.508,1.508,0,0,0,1.509,1.509h6.037a1.508,1.508,0,0,0,1.509-1.509V94.851q.548-.13,1.088-.292l1.782,3.087a1.511,1.511,0,0,0,.917.7,1.538,1.538,0,0,0,1.145-.15l5.229-3.018a1.51,1.51,0,0,0,.553-2.062l-1.776-3.074q.414-.389.8-.8l3.074,1.776a1.537,1.537,0,0,0,1.145.15,1.511,1.511,0,0,0,.917-.7l3.018-5.228a1.508,1.508,0,0,0-.553-2.061l-3.087-1.783q.161-.539.292-1.088h3.565A1.509,1.509,0,0,0,130.7,78.8V72.761a1.509,1.509,0,0,0-1.509-1.509h-3.565q-.13-.548-.292-1.088l3.087-1.783a1.508,1.508,0,0,0,.553-2.061l-3.018-5.228a1.509,1.509,0,0,0-2.062-.553l-3.074,1.774q-.389-.412-.8-.8l1.776-3.074a1.51,1.51,0,0,0-.553-2.062l-5.229-3.018a1.511,1.511,0,0,0-2.062.553L112.167,57q-.539-.161-1.088-.291V53.142a1.509,1.509,0,0,0-1.509-1.509h-6.037a1.509,1.509,0,0,0-1.509,1.509v3.566q-.548.129-1.088.291l-1.782-3.088a1.511,1.511,0,0,0-2.062-.553l-5.229,3.018a1.51,1.51,0,0,0-.553,2.062l1.776,3.074q-.413.389-.8.8L89.212,60.54a1.508,1.508,0,0,0-2.062.553L84.132,66.32a1.508,1.508,0,0,0,.553,2.061l3.087,1.783q-.161.539-.292,1.088H83.915a1.509,1.509,0,0,0-1.509,1.509V78.8a1.509,1.509,0,0,0,1.509,1.509m1.509-6.037h3.29A1.509,1.509,0,0,0,90.2,73.012,16.489,16.489,0,0,1,91.008,70a1.509,1.509,0,0,0-.66-1.833L87.5,66.522l1.509-2.615,2.834,1.637a1.513,1.513,0,0,0,1.917-.345,16.779,16.779,0,0,1,2.212-2.213,1.508,1.508,0,0,0,.345-1.917l-1.638-2.833L97.3,56.728l1.643,2.847a1.507,1.507,0,0,0,1.833.66,16.587,16.587,0,0,1,3.012-.806,1.508,1.508,0,0,0,1.259-1.488V54.651h3.018v3.289a1.508,1.508,0,0,0,1.259,1.488,16.591,16.591,0,0,1,3.012.806,1.507,1.507,0,0,0,1.833-.66l1.643-2.847,2.615,1.509-1.638,2.833a1.508,1.508,0,0,0,.345,1.917,16.778,16.778,0,0,1,2.212,2.213,1.509,1.509,0,0,0,1.917.345l2.834-1.637,1.509,2.615-2.847,1.644A1.51,1.51,0,0,0,122.1,70a16.474,16.474,0,0,1,.806,3.012,1.509,1.509,0,0,0,1.488,1.258h3.289v3.018H124.39a1.509,1.509,0,0,0-1.488,1.258,16.474,16.474,0,0,1-.806,3.012,1.51,1.51,0,0,0,.66,1.833l2.847,1.644-1.509,2.615-2.834-1.637a1.505,1.505,0,0,0-1.917.344,16.676,16.676,0,0,1-2.212,2.212,1.508,1.508,0,0,0-.345,1.917l1.638,2.834-2.615,1.509-1.643-2.847a1.512,1.512,0,0,0-1.833-.66,16.477,16.477,0,0,1-3.012.806,1.509,1.509,0,0,0-1.259,1.488v3.289h-3.018V93.617a1.509,1.509,0,0,0-1.259-1.488,16.473,16.473,0,0,1-3.012-.806,1.516,1.516,0,0,0-1.833.66L97.3,94.83l-2.615-1.509,1.638-2.834a1.508,1.508,0,0,0-.345-1.917,16.677,16.677,0,0,1-2.212-2.212,1.509,1.509,0,0,0-1.917-.344L89.01,87.65,87.5,85.036l2.847-1.644a1.509,1.509,0,0,0,.66-1.833,16.489,16.489,0,0,1-.806-3.012,1.509,1.509,0,0,0-1.488-1.258h-3.29Z" transform="translate(-65.825 -41.244)" fill="#3fc0c8"/>
  </g>
</svg>
