<?xml version="1.0" encoding="utf-8"?>
<!-- Generator: Adobe Illustrator 19.0.0, SVG Export Plug-In . SVG Version: 6.00 Build 0)  -->
<svg version="1.1" id="Layer_1" xmlns="http://www.w3.org/2000/svg" xmlns:xlink="http://www.w3.org/1999/xlink" x="0px" y="0px"
	 viewBox="-15.7 57 150.5 129.4" style="enable-background:new -15.7 57 150.5 129.4;" xml:space="preserve">
<style type="text/css">
	.st0{fill:#1B1B2D;}
	.st1{enable-background:new    ;}
	.st2{fill:#3FC0C8;}
</style>
<g id="Group_14816" transform="translate(0 0)">
	<path id="Path_47313" class="st0" d="M108,78.4c-25.3-24.7-63.6-28.6-93.8-8.7c-16,10.5-29.2,27.5-29.9,54.8
		c-0.2,9.7,1,17.7,3.4,24.4c9.5,27.1,59.5,29.9,62.2,30.1c1.8,0.1,3.6,0.3,5.4,0.5c6.2,0.8,12.4,2.1,18.4,3.9
		c8.6,2.6,19.7,4.4,30,1.5c1.8-0.5,3.5-1.1,5.2-1.9c5.8-2.7,12.2-5.2,16.6-12.3c3.7-6.4,6.3-13.4,7.7-20.6
		C139.8,119,124.9,94.9,108,78.4z"/>
	<g class="st1">
		<path class="st2" d="M56.3,111.1c0.5,0,0.9,0.2,1.3,0.5c0.4,0.4,0.6,0.8,0.6,1.4c0,0.2,0,0.4-0.1,0.6L52.2,131
			c-0.1,0.4-0.3,0.6-0.6,0.8c-0.3,0.2-0.6,0.3-1,0.3c-0.3,0-0.7-0.1-1-0.3c-0.3-0.2-0.6-0.5-0.8-0.9l-4.3-9.9l0.3,0.2l-4.4,9.8
			c-0.2,0.4-0.4,0.7-0.8,0.9c-0.4,0.2-0.7,0.3-1,0.3s-0.6-0.1-1-0.3c-0.3-0.2-0.5-0.5-0.7-0.8L31,113.7c0-0.2,0-0.4,0-0.6
			c0-0.6,0.2-1.1,0.6-1.4c0.4-0.3,0.9-0.5,1.3-0.5c0.4,0,0.7,0.1,1.1,0.3c0.3,0.2,0.6,0.5,0.7,0.9l4.8,14.5h-0.7l4.3-10.2
			c0.2-0.4,0.4-0.6,0.7-0.9c0.3-0.2,0.6-0.3,1-0.3s0.7,0.1,1,0.3c0.3,0.2,0.5,0.5,0.7,0.9l3.9,9.8l-0.5,0.3l4.7-14.3
			c0.1-0.4,0.3-0.7,0.7-0.9C55.6,111.2,56,111.1,56.3,111.1z"/>
		<path class="st2" d="M69.7,111.2c1,0,2,0.3,2.9,0.9s1.6,1.4,2.2,2.4s0.8,2.2,0.8,3.4s-0.3,2.4-0.8,3.4c-0.6,1-1.3,1.8-2.2,2.4
			c-0.9,0.6-1.9,0.9-2.9,0.9h-5.5l0.3-0.5v6.2c0,0.5-0.2,1-0.5,1.3c-0.3,0.4-0.7,0.5-1.3,0.5c-0.5,0-0.9-0.2-1.2-0.5
			c-0.3-0.3-0.5-0.8-0.5-1.3V113c0-0.5,0.2-1,0.5-1.3c0.3-0.3,0.8-0.5,1.3-0.5H69.7z M69.7,121.3c0.4,0,0.8-0.2,1.1-0.5
			c0.4-0.3,0.7-0.7,0.9-1.2c0.2-0.5,0.4-1,0.4-1.6s-0.1-1.1-0.4-1.6c-0.2-0.5-0.5-0.9-0.9-1.2c-0.4-0.3-0.7-0.5-1.1-0.5h-5.6
			l0.4-0.5v7.6l-0.3-0.5C64.2,121.3,69.7,121.3,69.7,121.3z"/>
		<path class="st2" d="M84,132.2c-0.6,0-1-0.2-1.4-0.5s-0.5-0.8-0.5-1.3v-15.1l0.4,0.7l-2.2,1.6c-0.3,0.2-0.6,0.3-1.1,0.3
			s-0.9-0.2-1.3-0.5c-0.4-0.4-0.5-0.8-0.5-1.3c0-0.6,0.3-1.2,0.9-1.6l4.3-2.9c0.2-0.1,0.4-0.2,0.7-0.3c0.2-0.1,0.5-0.1,0.7-0.1
			c0.6,0,1,0.2,1.4,0.5c0.3,0.3,0.5,0.8,0.5,1.3v17.3c0,0.5-0.2,1-0.6,1.3C85.1,132,84.6,132.2,84,132.2z"/>
	</g>
</g>
</svg>
