<?xml version="1.0" encoding="utf-8"?>
<!-- Generator: Adobe Illustrator 27.0.0, SVG Export Plug-In . SVG Version: 6.00 Build 0)  -->
<svg version="1.1" id="Layer_1" xmlns="http://www.w3.org/2000/svg" xmlns:xlink="http://www.w3.org/1999/xlink" x="0px" y="0px"
	 viewBox="0 0 170 170" style="enable-background:new 0 0 170 170;" xml:space="preserve">
<style type="text/css">
	.st0{fill:#1B1B2D;}
	.st1{enable-background:new    ;}
	.st2{fill:#3FC0C8;}
</style>
<g id="Group_14819" transform="translate(-70 -2519.855)">
	<path id="Path_47311" class="st0" d="M203.5,2562.8c-25.3-24.7-63.6-28.6-93.8-8.7c-16,10.5-29.2,27.5-29.9,54.8
		c-0.2,9.7,1,17.7,3.4,24.4c9.5,27.1,59.5,29.9,62.2,30.1c1.8,0.1,3.6,0.3,5.4,0.5c6.2,0.8,12.4,2.1,18.4,3.9
		c8.6,2.6,19.7,4.4,30,1.5c1.8-0.5,3.5-1.1,5.2-1.9c5.8-2.7,12.2-5.2,16.6-12.3c3.7-6.4,6.3-13.4,7.7-20.6
		C235.3,2603.4,220.3,2579.3,203.5,2562.8z"/>
	<g class="st1">
		<path class="st2" d="M149,2600.4c0.5,0,0.9,0.2,1.3,0.5c0.4,0.4,0.6,0.8,0.6,1.4c0,0.2,0,0.4-0.1,0.6l-5.9,17.4
			c-0.1,0.4-0.3,0.6-0.6,0.8c-0.3,0.2-0.6,0.3-1,0.3c-0.3,0-0.7-0.1-1-0.3s-0.6-0.5-0.8-0.9l-4.4-10.1l0.3,0.2l-4.4,9.9
			c-0.2,0.4-0.4,0.7-0.8,0.9s-0.7,0.3-1,0.3c-0.3,0-0.6-0.1-1-0.3c-0.3-0.2-0.5-0.5-0.7-0.8l-5.9-17.4c-0.1-0.2-0.1-0.4-0.1-0.6
			c0-0.6,0.2-1.1,0.6-1.4c0.4-0.3,0.9-0.5,1.3-0.5c0.4,0,0.7,0.1,1.1,0.3c0.3,0.2,0.6,0.5,0.7,0.9l4.8,14.5l-0.7,0l4.3-10.2
			c0.2-0.4,0.4-0.6,0.7-0.9s0.6-0.3,1-0.3c0.4,0,0.7,0.1,1,0.3s0.5,0.5,0.7,0.9l3.9,9.8l-0.5,0.3l4.7-14.3c0.1-0.4,0.3-0.7,0.7-0.9
			C148.2,2600.5,148.6,2600.4,149,2600.4z"/>
		<path class="st2" d="M162.3,2600.5c1,0,2,0.3,2.9,0.9c0.9,0.6,1.6,1.4,2.2,2.4c0.6,1,0.8,2.2,0.8,3.4c0,1.2-0.3,2.4-0.8,3.4
			c-0.6,1-1.3,1.8-2.2,2.4c-0.9,0.6-1.9,0.9-2.9,0.9h-5.5l0.3-0.5v6.2c0,0.5-0.2,1-0.5,1.3c-0.3,0.4-0.7,0.5-1.3,0.5
			c-0.5,0-0.9-0.2-1.2-0.5c-0.3-0.3-0.5-0.8-0.5-1.3v-17.3c0-0.5,0.2-1,0.5-1.3s0.8-0.5,1.3-0.5H162.3z M162.3,2610.6
			c0.4,0,0.8-0.2,1.1-0.5c0.4-0.3,0.7-0.7,0.9-1.2c0.2-0.5,0.4-1,0.4-1.6c0-0.6-0.1-1.1-0.4-1.6s-0.5-0.9-0.9-1.2
			c-0.4-0.3-0.7-0.5-1.1-0.5h-5.6l0.4-0.5v7.6l-0.3-0.5H162.3z"/>
		<path class="st2" d="M181.2,2621.5c-0.5,0-0.9-0.2-1.3-0.5c-0.3-0.3-0.5-0.8-0.5-1.3v-14.1l0.6,0.1l-5.8,7.2l-0.2-0.4h10.6
			c0.5,0,0.9,0.2,1.2,0.5c0.3,0.3,0.5,0.7,0.5,1.2c0,0.5-0.2,0.8-0.5,1.2c-0.3,0.3-0.7,0.5-1.2,0.5h-13.1c-0.4,0-0.8-0.2-1.2-0.5
			s-0.6-0.8-0.6-1.3c0-0.4,0.2-0.8,0.5-1.2l9.5-11.6c0.2-0.2,0.4-0.4,0.6-0.5s0.5-0.2,0.9-0.2c0.5,0,0.9,0.2,1.3,0.5
			s0.5,0.8,0.5,1.3v17.3c0,0.5-0.2,1-0.5,1.3C182.1,2621.3,181.7,2621.5,181.2,2621.5z"/>
	</g>
</g>
</svg>
