<?xml version="1.0" encoding="utf-8"?>
<!-- Generator: Adobe Illustrator 27.0.0, SVG Export Plug-In . SVG Version: 6.00 Build 0)  -->
<svg version="1.1" id="Layer_1" xmlns="http://www.w3.org/2000/svg" xmlns:xlink="http://www.w3.org/1999/xlink" x="0px" y="0px"
	 viewBox="0 0 170 170" style="enable-background:new 0 0 170 170;" xml:space="preserve">
<style type="text/css">
	.st0{fill:#1B1B2D;}
	.st1{enable-background:new    ;}
	.st2{fill:#3FC0C8;}
</style>
<g id="Group_14820" transform="translate(-504 -2491)">
	<path id="Path_47312" class="st0" d="M569,2518.1c-37.7,4.4-62.8,29.9-60.7,62.8c1.1,17.4,9.8,36.4,35.5,52.2
		c7.8,4.9,16.2,8.7,25.1,11.2c31.1,8.3,61.7-26.2,63.4-28.1c1.1-1.2,2.3-2.4,3.5-3.6c4.3-4.1,9-7.9,14.1-11.1
		c7.3-4.7,15.2-11.7,18.2-20.8c0.5-1.6,0.9-3.2,1.1-4.8c0.7-5.7,1.9-11.7-2.4-18.8c-3.2-5.3-8.2-11-15.3-17.1
		C625.4,2517.9,594.1,2515.1,569,2518.1z"/>
	<g class="st1">
		<path class="st2" d="M583,2570.8c0.5,0,0.9,0.2,1.3,0.5c0.4,0.4,0.6,0.8,0.6,1.4c0,0.2,0,0.4-0.1,0.6l-5.9,17.4
			c-0.1,0.4-0.3,0.6-0.6,0.8c-0.3,0.2-0.6,0.3-1,0.3c-0.3,0-0.7-0.1-1-0.3c-0.3-0.2-0.6-0.5-0.8-0.9l-4.4-10.1l0.3,0.2l-4.4,9.9
			c-0.2,0.4-0.4,0.7-0.8,0.9c-0.3,0.2-0.7,0.3-1,0.3c-0.3,0-0.6-0.1-1-0.3c-0.3-0.2-0.5-0.5-0.7-0.8l-5.9-17.4
			c-0.1-0.2-0.1-0.4-0.1-0.6c0-0.6,0.2-1.1,0.6-1.4c0.4-0.3,0.9-0.5,1.3-0.5c0.4,0,0.7,0.1,1.1,0.3c0.3,0.2,0.6,0.5,0.7,0.9
			l4.8,14.5l-0.7,0l4.3-10.2c0.2-0.4,0.4-0.6,0.7-0.9c0.3-0.2,0.6-0.3,1-0.3c0.4,0,0.7,0.1,1,0.3c0.3,0.2,0.5,0.5,0.7,0.9l3.9,9.8
			l-0.5,0.3l4.7-14.3c0.1-0.4,0.3-0.7,0.7-0.9C582.3,2570.9,582.7,2570.8,583,2570.8z"/>
		<path class="st2" d="M596.4,2570.9c1,0,2,0.3,2.9,0.9c0.9,0.6,1.6,1.4,2.2,2.4c0.6,1,0.8,2.2,0.8,3.4c0,1.2-0.3,2.4-0.8,3.4
			c-0.6,1-1.3,1.8-2.2,2.4c-0.9,0.6-1.9,0.9-2.9,0.9h-5.5l0.3-0.5v6.2c0,0.5-0.2,1-0.5,1.3c-0.3,0.3-0.7,0.5-1.3,0.5
			c-0.5,0-0.9-0.2-1.2-0.5c-0.3-0.3-0.5-0.8-0.5-1.3v-17.3c0-0.5,0.2-1,0.5-1.3c0.3-0.3,0.8-0.5,1.3-0.5H596.4z M596.4,2581
			c0.4,0,0.8-0.2,1.1-0.5c0.4-0.3,0.7-0.7,0.9-1.2c0.2-0.5,0.4-1,0.4-1.6c0-0.6-0.1-1.1-0.4-1.6c-0.2-0.5-0.5-0.9-0.9-1.2
			c-0.4-0.3-0.7-0.5-1.1-0.5h-5.6l0.4-0.5v7.6l-0.3-0.5H596.4z"/>
		<path class="st2" d="M610.8,2592.2c-0.7,0-1.5-0.1-2.4-0.3c-0.8-0.2-1.5-0.6-2.1-1c-0.3-0.2-0.5-0.5-0.6-0.9
			c-0.1-0.3-0.2-0.7-0.2-1c0-0.3,0.1-0.7,0.4-1c0.3-0.3,0.7-0.4,1.2-0.4c0.4,0,0.8,0.2,1.4,0.6c0.3,0.2,0.7,0.4,1,0.5
			s0.8,0.2,1.2,0.2c1,0,1.8-0.2,2.5-0.5c0.7-0.3,1.2-0.8,1.6-1.5c0.4-0.6,0.6-1.3,0.6-2.2c0-0.8-0.2-1.4-0.5-1.9
			c-0.4-0.5-0.8-1-1.4-1.3c-0.6-0.3-1.2-0.5-1.8-0.5c-0.6,0-1.2,0.1-1.6,0.3s-0.9,0.4-1.3,0.6c-0.4,0.2-0.8,0.3-1.1,0.3
			c-0.7,0-1.2-0.1-1.5-0.4c-0.3-0.3-0.5-0.6-0.6-1c-0.1-0.4-0.1-0.8-0.1-1.1l0.9-7.3c0.1-0.4,0.3-0.8,0.6-1c0.3-0.3,0.7-0.4,1.2-0.4
			h8.7c0.5,0,0.9,0.2,1.2,0.5c0.3,0.3,0.5,0.7,0.5,1.2c0,0.5-0.2,0.8-0.5,1.2c-0.3,0.3-0.7,0.5-1.2,0.5h-7.7l0.3-0.3l-0.8,6.1
			l-0.4-1.1c0.1-0.2,0.4-0.4,0.8-0.6c0.4-0.2,0.9-0.3,1.4-0.5c0.5-0.1,1-0.2,1.5-0.2c1.3,0,2.5,0.3,3.6,0.9c1.1,0.6,1.9,1.4,2.5,2.5
			c0.6,1.1,0.9,2.2,0.9,3.6c0,1.5-0.3,2.8-1,3.9c-0.7,1.1-1.6,2-2.9,2.6S612.5,2592.2,610.8,2592.2z"/>
	</g>
</g>
</svg>
