<?xml version="1.0" encoding="utf-8"?>
<!-- Generator: Adobe Illustrator 19.0.0, SVG Export Plug-In . SVG Version: 6.00 Build 0)  -->
<svg version="1.1" id="Layer_1" xmlns="http://www.w3.org/2000/svg" xmlns:xlink="http://www.w3.org/1999/xlink" x="0px" y="0px"
	 viewBox="-28.9 56.7 158.2 129.7" style="enable-background:new -28.9 56.7 158.2 129.7;" xml:space="preserve">
<style type="text/css">
	.st0{fill:#1B1B2D;}
	.st1{enable-background:new    ;}
	.st2{fill:#3FC0C8;}
</style>
<g id="Group_14821" transform="translate(-917 -2506.099)">
	<path id="Path_47310" class="st0" d="M1002.5,2684.8c35.1-12.8,51.8-43.1,40-74.4c-6.2-16.6-20.3-33-49.8-42.4
		c-8.9-3-18.2-4.7-27.6-5.2c-32.5-1-51.8,39.2-53,41.4c-0.7,1.4-1.5,2.8-2.3,4.2c-2.9,5-6.4,9.6-10.3,13.9
		c-5.6,6.2-11.2,14.7-11.4,24.2c0,1.6,0.1,3.3,0.4,4.9c1,5.6,1.6,11.8,7.9,17.6c4.7,4.4,11.2,8.8,19.9,13.1
		C948,2697.7,979.1,2693.3,1002.5,2684.8z"/>
	<g class="st1">
		<path class="st2" d="M961.8,2619.4c0.5,0,0.9,0.2,1.3,0.5c0.4,0.4,0.6,0.8,0.6,1.4c0,0.2,0,0.4-0.1,0.6l-5.9,17.4
			c-0.1,0.4-0.3,0.6-0.6,0.8s-0.6,0.3-1,0.3c-0.3,0-0.7-0.1-1-0.3s-0.6-0.5-0.8-0.9l-4.4-10.1l0.3,0.2l-4.4,9.9
			c-0.2,0.4-0.4,0.7-0.8,0.9s-0.7,0.3-1,0.3s-0.6-0.1-1-0.3c-0.3-0.2-0.5-0.5-0.7-0.8l-5.9-17.4c-0.1-0.2-0.1-0.4-0.1-0.6
			c0-0.6,0.2-1.1,0.6-1.4c0.4-0.3,0.9-0.5,1.3-0.5c0.4,0,0.7,0.1,1.1,0.3c0.3,0.2,0.6,0.5,0.7,0.9l4.8,14.5h-0.7l4.3-10.2
			c0.2-0.4,0.4-0.6,0.7-0.9c0.3-0.2,0.6-0.3,1-0.3s0.7,0.1,1,0.3s0.5,0.5,0.7,0.9l3.9,9.8l-0.5,0.3l4.7-14.3
			c0.1-0.4,0.3-0.7,0.7-0.9C961.1,2619.5,961.4,2619.4,961.8,2619.4z"/>
		<path class="st2" d="M975.1,2619.5c1,0,2,0.3,2.9,0.9c0.9,0.6,1.6,1.4,2.2,2.4c0.6,1,0.8,2.2,0.8,3.4s-0.3,2.4-0.8,3.4
			c-0.6,1-1.3,1.8-2.2,2.4c-0.9,0.6-1.9,0.9-2.9,0.9h-5.5l0.3-0.5v6.2c0,0.5-0.2,1-0.5,1.3c-0.3,0.4-0.7,0.5-1.3,0.5
			c-0.5,0-0.9-0.2-1.2-0.5s-0.5-0.8-0.5-1.3v-17.3c0-0.5,0.2-1,0.5-1.3s0.8-0.5,1.3-0.5L975.1,2619.5L975.1,2619.5z M975.1,2629.6
			c0.4,0,0.7-0.2,1.1-0.5c0.4-0.3,0.7-0.7,0.9-1.2s0.4-1,0.4-1.6s-0.1-1.1-0.4-1.6c-0.2-0.5-0.5-0.9-0.9-1.2s-0.7-0.5-1.1-0.5h-5.6
			l0.4-0.5v7.6l-0.3-0.5H975.1z"/>
		<path class="st2" d="M990.9,2640.8c-1.1,0-2.1-0.2-2.9-0.7s-1.6-1.1-2.2-1.8c-0.6-0.8-1.1-1.7-1.4-2.6c-0.3-1-0.5-2-0.5-3
			c0-0.7,0.1-1.5,0.2-2.5c0.1-1,0.4-2,0.8-3c0.4-1.1,0.9-2.1,1.6-3.1c0.7-1,1.5-1.9,2.6-2.7c1.1-0.8,2.3-1.4,3.9-1.8
			c0.2-0.1,0.5-0.1,0.7-0.1c0.5,0,0.9,0.1,1.2,0.4c0.4,0.2,0.6,0.7,0.6,1.3c0,0.4-0.1,0.8-0.4,1.2s-0.7,0.6-1.2,0.7
			c-0.7,0.2-1.4,0.5-2,0.9c-0.7,0.4-1.3,0.9-1.9,1.4c-0.6,0.6-1.1,1.2-1.5,1.9s-0.7,1.5-0.9,2.3h-0.8c0.3-0.3,0.6-0.7,1-1.1
			c0.4-0.4,0.9-0.7,1.5-1c0.6-0.3,1.3-0.4,2.1-0.4c0.8,0,1.6,0.2,2.3,0.5c0.8,0.4,1.5,0.9,2.1,1.5s1.1,1.4,1.5,2.2
			c0.4,0.9,0.6,1.8,0.6,2.7c0,1.3-0.3,2.5-0.9,3.5c-0.6,1.1-1.5,1.9-2.5,2.5S992.2,2640.8,990.9,2640.8z M990.9,2637.5
			c0.6,0,1.2-0.2,1.7-0.5s0.9-0.8,1.2-1.3s0.5-1.2,0.5-1.9s-0.2-1.3-0.5-1.9c-0.3-0.5-0.7-1-1.2-1.3s-1.1-0.5-1.7-0.5
			s-1.2,0.2-1.7,0.5s-0.9,0.8-1.2,1.3c-0.3,0.6-0.5,1.2-0.5,1.9s0.2,1.3,0.5,1.9s0.7,1,1.2,1.3
			C989.7,2637.3,990.2,2637.5,990.9,2637.5z"/>
	</g>
</g>
</svg>
